SplineFontDB: 3.2
FontName: SansationRegular
FullName: Sansation Regular
FamilyName: Sansation
Weight: Book
Copyright: (c) 2011 Bernd Montag
Version: 1.31
ItalicAngle: 0
UnderlinePosition: -239
UnderlineWidth: 150
Ascent: 1638
Descent: 410
InvalidEm: 0
sfntRevision: 0x00010000
LayerCount: 2
Layer: 0 1 "Back" 1
Layer: 1 1 "Fore" 0
XUID: [1021 392 -1075691460 20872]
StyleMap: 0x0040
FSType: 8
OS2Version: 0
OS2_WeightWidthSlopeOnly: 0
OS2_UseTypoMetrics: 0
CreationTime: 935971200
ModificationTime: 1710941666
PfmFamily: 17
TTFWeight: 400
TTFWidth: 5
LineGap: 67
VLineGap: 0
Panose: 2 0 0 0 0 0 0 0 0 0
OS2TypoAscent: 1491
OS2TypoAOffset: 0
OS2TypoDescent: -431
OS2TypoDOffset: 0
OS2TypoLinegap: 307
OS2WinAscent: 1854
OS2WinAOffset: 0
OS2WinDescent: 434
OS2WinDOffset: 0
HheadAscent: 1854
HheadAOffset: 0
HheadDescent: -434
HheadDOffset: 0
OS2SubXSize: 1434
OS2SubYSize: 1331
OS2SubXOff: 0
OS2SubYOff: 283
OS2SupXSize: 1434
OS2SupYSize: 1331
OS2SupXOff: 0
OS2SupYOff: 977
OS2StrikeYSize: 102
OS2StrikeYPos: 530
OS2Vendor: 'HL  '
OS2UnicodeRanges: 00000000.00000000.00000000.00000000
Lookup: 4 0 1 "'liga' Standard Ligatures in Latin lookup 0" { "'liga' Standard Ligatures in Latin lookup 0 subtable"  } ['liga' ('latn' <'dflt' > ) 'zz01' ('latn' <'zz01' > ) ]
Lookup: 1 0 0 "'onum' Oldstyle Figures in Latin lookup 1" { "'onum' Oldstyle Figures in Latin lookup 1 subtable" ("oldstyle") } ['onum' ('latn' <'dflt' > ) 'zz02' ('latn' <'zz01' > ) ]
Lookup: 1 0 0 "'ss01' Style Set 1 in Latin lookup 2" { "'ss01' Style Set 1 in Latin lookup 2 subtable"  } ['salt' ('latn' <'dflt' > ) 'ss01' ('latn' <'dflt' > ) 'zz03' ('latn' <'zz01' > ) ]
Lookup: 1 0 0 "'ss02' Style Set 2 in Latin lookup 3" { "'ss02' Style Set 2 in Latin lookup 3 subtable"  } ['salt' ('latn' <'dflt' > ) 'ss02' ('latn' <'dflt' > ) 'zz04' ('latn' <'zz01' > ) ]
Lookup: 1 0 0 "'ss03' Style Set 3 in Latin lookup 4" { "'ss03' Style Set 3 in Latin lookup 4 subtable"  } ['ss03' ('latn' <'dflt' > ) 'zz05' ('latn' <'zz01' > ) ]

StartChar: .notdef
Encoding: 65536 -1 0
Width: 1124
GlyphClass: 2
Flags: W
LayerCount: 2
Fore
SplineSet
50 0 m 1,0,-1
 50 1280 l 1,1,-1
 1074 1280 l 1,2,-1
 1074 0 l 1,3,-1
 50 0 l 1,0,-1
82 32 m 1,4,-1
 1042 32 l 1,5,-1
 1042 1248 l 1,6,-1
 82 1248 l 1,7,-1
 82 32 l 1,4,-1
EndSplineSet
EndChar

StartChar: exclam
Encoding: 33 33 4
Width: 485
GlyphClass: 2
Flags: W
LayerCount: 2
Fore
SplineSet
335 1430 m 1,0,-1
 335 370 l 1,1,-1
 150 370 l 1,2,-1
 150 1430 l 1,3,-1
 335 1430 l 1,0,-1
335 185 m 1,4,-1
 335 0 l 1,5,-1
 150 0 l 1,6,-1
 150 185 l 1,7,-1
 335 185 l 1,4,-1
EndSplineSet
EndChar

StartChar: quotedbl
Encoding: 34 34 5
Width: 755
GlyphClass: 2
Flags: W
LayerCount: 2
Fore
SplineSet
655 1430 m 1,0,-1
 625 995 l 1,1,-1
 500 995 l 1,2,-1
 470 1430 l 1,3,-1
 655 1430 l 1,0,-1
285 1430 m 1,4,-1
 255 995 l 1,5,-1
 130 995 l 1,6,-1
 100 1430 l 1,7,-1
 285 1430 l 1,4,-1
EndSplineSet
EndChar

StartChar: numbersign
Encoding: 35 35 6
Width: 1893
GlyphClass: 2
Flags: W
LayerCount: 2
Fore
SplineSet
803 876 m 1,0,-1
 713 498 l 1,1,-1
 1090 498 l 1,2,-1
 1180 876 l 1,3,-1
 803 876 l 1,0,-1
403 -5 m 1,4,-1
 492 344 l 1,5,-1
 100 344 l 1,6,-1
 130 498 l 1,7,-1
 532 498 l 1,8,-1
 621 876 l 1,9,-1
 220 876 l 1,10,-1
 250 1030 l 1,11,-1
 662 1030 l 1,12,-1
 762 1425 l 1,13,-1
 942 1425 l 1,14,-1
 842 1030 l 1,15,-1
 1220 1030 l 1,16,-1
 1322 1430 l 1,17,-1
 1502 1430 l 1,18,-1
 1401 1030 l 1,19,-1
 1793 1030 l 1,20,-1
 1763 876 l 1,21,-1
 1361 876 l 1,22,-1
 1272 498 l 1,23,-1
 1673 498 l 1,24,-1
 1643 344 l 1,25,-1
 1231 344 l 1,26,-1
 1141 -5 l 1,27,-1
 961 -5 l 1,28,-1
 1051 344 l 1,29,-1
 673 344 l 1,30,-1
 583 -5 l 1,31,-1
 403 -5 l 1,4,-1
EndSplineSet
EndChar

StartChar: dollar
Encoding: 36 36 7
Width: 1050
GlyphClass: 2
Flags: W
LayerCount: 2
Fore
SplineSet
469 1238 m 1,0,-1
 469 1430 l 1,1,-1
 644 1430 l 1,2,-1
 644 1236 l 1,3,4
 778 1226 778 1226 910 1190 c 1,5,-1
 910 1030 l 1,6,7
 725 1090 725 1090 537 1090 c 0,8,9
 275 1090 275 1090 275 940 c 0,10,11
 275 800 275 800 440 800 c 2,12,-1
 590 800 l 2,13,14
 950 800 950 800 950 490 c 0,15,16
 950 239 950 239 644 198 c 1,17,-1
 644 0 l 1,18,-1
 469 0 l 1,19,-1
 469 191 l 1,20,21
 303 196 303 196 140 240 c 1,22,-1
 140 400 l 1,23,24
 325 340 325 340 514 340 c 0,25,26
 765 340 765 340 765 490 c 0,27,28
 765 630 765 630 590 630 c 2,29,-1
 440 630 l 2,30,31
 100 630 100 630 100 940 c 0,32,33
 100 1216 100 1216 469 1238 c 1,0,-1
EndSplineSet
EndChar

StartChar: percent
Encoding: 37 37 8
Width: 1422
GlyphClass: 2
Flags: W
LayerCount: 2
Fore
SplineSet
305 0 m 1,0,-1
 100 0 l 1,1,-1
 1117 1430 l 1,2,-1
 1322 1430 l 1,3,-1
 305 0 l 1,0,-1
378 1035 m 0,5,6
 522 1035 522 1035 522 1182 c 0,7,8
 522 1326 522 1326 378 1326 c 0,9,10
 230 1326 230 1326 230 1182 c 0,11,4
 230 1035 230 1035 378 1035 c 0,5,6
100 1180 m 0,12,13
 100 1440 100 1440 378 1440 c 0,14,15
 652 1440 652 1440 652 1180 c 0,16,17
 652 921 652 921 378 921 c 0,18,19
 100 921 100 921 100 1180 c 0,12,13
1048 104 m 0,21,22
 1192 104 1192 104 1192 251 c 0,23,24
 1192 395 1192 395 1048 395 c 0,25,26
 900 395 900 395 900 251 c 0,27,20
 900 104 900 104 1048 104 c 0,21,22
770 249 m 0,28,29
 770 509 770 509 1048 509 c 0,30,31
 1322 509 1322 509 1322 249 c 0,32,33
 1322 -10 1322 -10 1048 -10 c 0,34,35
 770 -10 770 -10 770 249 c 0,28,29
EndSplineSet
EndChar

StartChar: ampersand
Encoding: 38 38 9
Width: 1275
GlyphClass: 2
Flags: W
LayerCount: 2
Fore
SplineSet
100 1045 m 0,0,1
 100 1430 100 1430 610 1430 c 0,2,3
 795 1430 795 1430 970 1380 c 1,4,-1
 970 1230 l 1,5,6
 795 1280 795 1280 623 1280 c 0,7,8
 285 1280 285 1280 285 1050 c 0,9,10
 285 800 285 800 540 800 c 2,11,-1
 928 800 l 1,12,-1
 928 942 l 1,13,-1
 991 942 l 1,14,-1
 1093 800 l 1,15,-1
 1275 800 l 1,16,-1
 1275 650 l 1,17,-1
 1113 650 l 1,18,-1
 1113 490 l 2,19,20
 1113 -3 1113 -3 595 -3 c 0,21,22
 100 -3 100 -3 100 394 c 0,23,24
 100 641 100 641 293 727 c 1,25,26
 100 812 100 812 100 1045 c 0,0,1
542 650 m 2,27,28
 285 650 285 650 285 399 c 0,29,30
 285 150 285 150 586 150 c 0,31,32
 928 150 928 150 928 492 c 2,33,-1
 928 650 l 1,34,-1
 542 650 l 2,27,28
EndSplineSet
EndChar

StartChar: quotesingle
Encoding: 39 39 10
Width: 385
GlyphClass: 2
Flags: W
LayerCount: 2
Fore
SplineSet
285 1430 m 1,0,-1
 255 995 l 1,1,-1
 130 995 l 1,2,-1
 100 1430 l 1,3,-1
 285 1430 l 1,0,-1
EndSplineSet
EndChar

StartChar: parenleft
Encoding: 40 40 11
Width: 585
GlyphClass: 2
Flags: W
LayerCount: 2
Fore
SplineSet
485 1430 m 1,0,1
 285 978 285 978 285 525 c 256,2,3
 285 72 285 72 485 -380 c 1,4,-1
 300 -380 l 1,5,6
 100 72 100 72 100 525 c 256,7,8
 100 978 100 978 300 1430 c 1,9,-1
 485 1430 l 1,0,1
EndSplineSet
EndChar

StartChar: parenright
Encoding: 41 41 12
Width: 585
GlyphClass: 2
Flags: W
LayerCount: 2
Fore
SplineSet
285 1430 m 1,0,1
 485 978 485 978 485 525 c 256,2,3
 485 72 485 72 285 -380 c 1,4,-1
 100 -380 l 1,5,6
 300 72 300 72 300 525 c 256,7,8
 300 978 300 978 100 1430 c 1,9,-1
 285 1430 l 1,0,1
EndSplineSet
EndChar

StartChar: asterisk
Encoding: 42 42 13
Width: 810
GlyphClass: 2
Flags: W
LayerCount: 2
Fore
SplineSet
328 1430 m 1,0,-1
 484 1430 l 1,1,-1
 454 1198 l 1,2,-1
 663 1299 l 1,3,-1
 711 1152 l 1,4,-1
 483 1109 l 1,5,-1
 642 939 l 1,6,-1
 519 847 l 1,7,-1
 406 1052 l 1,8,-1
 293 848 l 1,9,-1
 169 937 l 1,10,-1
 330 1108 l 1,11,-1
 100 1150 l 1,12,-1
 148 1300 l 1,13,-1
 359 1197 l 1,14,-1
 328 1430 l 1,0,-1
EndSplineSet
EndChar

StartChar: plus
Encoding: 43 43 14
Width: 950
GlyphClass: 2
Flags: W
LayerCount: 2
Fore
SplineSet
400 600 m 1,0,-1
 400 900 l 1,1,-1
 550 900 l 1,2,-1
 550 600 l 1,3,-1
 850 600 l 1,4,-1
 850 450 l 1,5,-1
 550 450 l 1,6,-1
 550 150 l 1,7,-1
 400 150 l 1,8,-1
 400 450 l 1,9,-1
 100 450 l 1,10,-1
 100 600 l 1,11,-1
 400 600 l 1,0,-1
EndSplineSet
EndChar

StartChar: comma
Encoding: 44 44 15
Width: 385
GlyphClass: 2
Flags: W
LayerCount: 2
Fore
SplineSet
360 185 m 1,0,-1
 210 -250 l 1,1,-1
 25 -250 l 1,2,-1
 175 185 l 1,3,-1
 360 185 l 1,0,-1
EndSplineSet
EndChar

StartChar: hyphen
Encoding: 45 45 16
AltUni2: 002010.ffffffff.0 002010.ffffffff.0
Width: 700
GlyphClass: 2
Flags: W
LayerCount: 2
Fore
SplineSet
600 600 m 1,0,-1
 600 450 l 1,1,-1
 100 450 l 1,2,-1
 100 600 l 1,3,-1
 600 600 l 1,0,-1
EndSplineSet
EndChar

StartChar: period
Encoding: 46 46 17
Width: 385
GlyphClass: 2
Flags: W
LayerCount: 2
Fore
SplineSet
285 185 m 1,0,-1
 285 0 l 1,1,-1
 100 0 l 1,2,-1
 100 185 l 1,3,-1
 285 185 l 1,0,-1
EndSplineSet
EndChar

StartChar: slash
Encoding: 47 47 18
Width: 980
GlyphClass: 2
Flags: W
LayerCount: 2
Fore
SplineSet
230 0 m 1,0,-1
 25 0 l 1,1,-1
 750 1430 l 1,2,-1
 955 1430 l 1,3,-1
 230 0 l 1,0,-1
EndSplineSet
EndChar

StartChar: zero
Encoding: 48 48 19
Width: 1445
GlyphClass: 2
Flags: W
LayerCount: 2
Fore
SplineSet
728 140 m 0,1,2
 1140 140 1140 140 1140 719 c 0,3,4
 1140 1290 1140 1290 728 1290 c 0,5,6
 305 1290 305 1290 305 719 c 0,7,0
 305 140 305 140 728 140 c 0,1,2
110 713 m 0,8,9
 110 1440 110 1440 728 1440 c 0,10,11
 1335 1440 1335 1440 1335 713 c 0,12,13
 1335 -10 1335 -10 728 -10 c 0,14,15
 110 -10 110 -10 110 713 c 0,8,9
EndSplineSet
Substitution2: "'onum' Oldstyle Figures in Latin lookup 1 subtable" zero.osf
EndChar

StartChar: one
Encoding: 49 49 20
Width: 645
GlyphClass: 2
Flags: W
LayerCount: 2
Fore
SplineSet
250 0 m 1,0,-1
 250 1251 l 1,1,-1
 100 1251 l 1,2,-1
 100 1340 l 1,3,-1
 435 1440 l 1,4,-1
 435 0 l 1,5,-1
 250 0 l 1,0,-1
EndSplineSet
Substitution2: "'onum' Oldstyle Figures in Latin lookup 1 subtable" one.osf
EndChar

StartChar: two
Encoding: 50 50 21
Width: 1145
GlyphClass: 2
Flags: W
LayerCount: 2
Fore
SplineSet
60 0 m 1,0,-1
 60 150 l 1,1,2
 855 697 855 697 855 1020 c 0,3,4
 855 1290 855 1290 515 1290 c 0,5,6
 295 1290 295 1290 100 1180 c 1,7,-1
 100 1340 l 1,8,9
 295 1440 295 1440 515 1440 c 0,10,11
 1040 1440 1040 1440 1040 1020 c 0,12,13
 1040 650 1040 650 325 150 c 1,14,-1
 1040 150 l 1,15,-1
 1040 0 l 1,16,-1
 60 0 l 1,0,-1
EndSplineSet
Substitution2: "'onum' Oldstyle Figures in Latin lookup 1 subtable" two.osf
EndChar

StartChar: three
Encoding: 51 51 22
Width: 1150
GlyphClass: 2
Flags: W
LayerCount: 2
Fore
SplineSet
100 1380 m 1,0,1
 300 1440 300 1440 500 1440 c 0,2,3
 1015 1440 1015 1440 1015 1050 c 0,4,5
 1015 814 1015 814 827 725 c 1,6,7
 1015 640 1015 640 1015 400 c 0,8,9
 1015 -10 1015 -10 500 -10 c 0,10,11
 300 -10 300 -10 100 50 c 1,12,-1
 100 210 l 1,13,14
 300 140 300 140 500 140 c 0,15,16
 830 140 830 140 830 400 c 0,17,18
 830 650 830 650 578 650 c 2,19,-1
 250 650 l 1,20,-1
 250 800 l 1,21,-1
 575 800 l 2,22,23
 830 800 830 800 830 1050 c 0,24,25
 830 1290 830 1290 500 1290 c 0,26,27
 300 1290 300 1290 100 1220 c 1,28,-1
 100 1380 l 1,0,1
EndSplineSet
Substitution2: "'onum' Oldstyle Figures in Latin lookup 1 subtable" three.osf
EndChar

StartChar: four
Encoding: 52 52 23
Width: 1220
GlyphClass: 2
Flags: W
LayerCount: 2
Fore
SplineSet
997 0 m 1,0,-1
 812 0 l 1,1,-1
 812 340 l 1,2,-1
 60 340 l 1,3,-1
 60 490 l 1,4,-1
 635 1430 l 1,5,-1
 829 1430 l 1,6,-1
 253 490 l 1,7,-1
 812 490 l 1,8,-1
 812 998 l 1,9,-1
 997 998 l 1,10,-1
 997 490 l 1,11,-1
 1145 414 l 1,12,-1
 1145 340 l 1,13,-1
 997 340 l 1,14,-1
 997 0 l 1,0,-1
EndSplineSet
Substitution2: "'onum' Oldstyle Figures in Latin lookup 1 subtable" four.osf
EndChar

StartChar: five
Encoding: 53 53 24
Width: 1175
GlyphClass: 2
Flags: W
LayerCount: 2
Fore
SplineSet
155 1430 m 1,0,-1
 1019 1430 l 1,1,-1
 1019 1280 l 1,2,-1
 313 1280 l 1,3,-1
 289 838 l 1,4,5
 406 860 406 860 535 860 c 0,6,7
 1075 860 1075 860 1075 450 c 0,8,9
 1075 -10 1075 -10 515 -10 c 0,10,11
 325 -10 325 -10 125 50 c 1,12,-1
 125 210 l 1,13,14
 325 140 325 140 525 140 c 0,15,16
 890 140 890 140 890 450 c 0,17,18
 890 710 890 710 535 710 c 0,19,20
 310 710 310 710 125 670 c 1,21,-1
 155 1430 l 1,0,-1
EndSplineSet
Substitution2: "'onum' Oldstyle Figures in Latin lookup 1 subtable" five.osf
EndChar

StartChar: six
Encoding: 54 54 25
Width: 1260
GlyphClass: 2
Flags: W
LayerCount: 2
Fore
SplineSet
100 550 m 0,0,1
 100 1106 100 1106 758 1473 c 1,2,-1
 854 1346 l 1,3,4
 492 1170 492 1170 340 867 c 1,5,6
 471 920 471 920 656 920 c 0,7,8
 1170 920 1170 920 1170 470 c 0,9,10
 1170 -10 1170 -10 627 -10 c 0,11,12
 100 -10 100 -10 100 550 c 0,0,1
636 140 m 0,14,15
 989 140 989 140 989 470 c 0,16,17
 989 770 989 770 647 770 c 0,18,19
 433 770 433 770 303 722 c 1,20,21
 275 662 275 662 275 556 c 0,22,13
 275 140 275 140 636 140 c 0,14,15
EndSplineSet
Substitution2: "'onum' Oldstyle Figures in Latin lookup 1 subtable" six.osf
EndChar

StartChar: seven
Encoding: 55 55 26
Width: 1090
GlyphClass: 2
Flags: W
LayerCount: 2
Fore
SplineSet
65 1430 m 1,0,-1
 1015 1430 l 1,1,-1
 1015 1280 l 1,2,-1
 413 0 l 1,3,-1
 212 0 l 1,4,-1
 834 1280 l 1,5,-1
 65 1280 l 1,6,-1
 65 1430 l 1,0,-1
EndSplineSet
Substitution2: "'onum' Oldstyle Figures in Latin lookup 1 subtable" seven.osf
EndChar

StartChar: eight
Encoding: 56 56 27
Width: 1240
GlyphClass: 2
Flags: W
LayerCount: 2
Fore
SplineSet
100 424 m 0,0,1
 100 647 100 647 312 745 c 1,2,3
 140 850 140 850 140 1078 c 0,4,5
 140 1444 140 1444 620 1444 c 256,6,7
 1100 1444 1100 1444 1100 1078 c 0,8,9
 1100 850 1100 850 923 745 c 1,10,11
 1140 647 1140 647 1140 424 c 0,12,13
 1140 -10 1140 -10 620 -10 c 256,14,15
 100 -10 100 -10 100 424 c 0,0,1
915 1058 m 0,17,18
 915 1290 915 1290 612 1290 c 0,19,20
 325 1290 325 1290 325 1058 c 0,21,22
 325 820 325 820 625 820 c 0,23,16
 915 820 915 820 915 1058 c 0,17,18
955 418 m 0,25,26
 955 670 955 670 612 670 c 0,27,28
 285 670 285 670 285 418 c 0,29,30
 285 140 285 140 625 140 c 0,31,24
 955 140 955 140 955 418 c 0,25,26
EndSplineSet
Substitution2: "'onum' Oldstyle Figures in Latin lookup 1 subtable" eight.osf
EndChar

StartChar: nine
Encoding: 57 57 28
Width: 1260
GlyphClass: 2
Flags: W
LayerCount: 2
Fore
SplineSet
1170 873 m 0,0,1
 1170 317 1170 317 512 -50 c 1,2,-1
 416 77 l 1,3,4
 778 253 778 253 930 556 c 1,5,6
 799 493 799 493 614 493 c 0,7,8
 100 493 100 493 100 953 c 0,9,10
 100 1433 100 1433 643 1433 c 0,11,12
 1170 1433 1170 1433 1170 873 c 0,0,1
634 1283 m 0,14,15
 281 1283 281 1283 281 953 c 0,16,17
 281 653 281 653 623 653 c 0,18,19
 837 653 837 653 967 701 c 1,20,21
 995 761 995 761 995 867 c 0,22,13
 995 1283 995 1283 634 1283 c 0,14,15
EndSplineSet
Substitution2: "'onum' Oldstyle Figures in Latin lookup 1 subtable" nine.osf
EndChar

StartChar: colon
Encoding: 58 58 29
Width: 435
GlyphClass: 2
Flags: W
LayerCount: 2
Fore
SplineSet
335 1050 m 1,0,-1
 335 865 l 1,1,-1
 150 865 l 1,2,-1
 150 1050 l 1,3,-1
 335 1050 l 1,0,-1
335 185 m 1,4,-1
 335 0 l 1,5,-1
 150 0 l 1,6,-1
 150 185 l 1,7,-1
 335 185 l 1,4,-1
EndSplineSet
EndChar

StartChar: semicolon
Encoding: 59 59 30
Width: 535
GlyphClass: 2
Flags: W
LayerCount: 2
Fore
SplineSet
435 1050 m 1,0,-1
 435 865 l 1,1,-1
 250 865 l 1,2,-1
 250 1050 l 1,3,-1
 435 1050 l 1,0,-1
435 185 m 1,4,-1
 285 -250 l 1,5,-1
 100 -250 l 1,6,-1
 250 185 l 1,7,-1
 435 185 l 1,4,-1
EndSplineSet
EndChar

StartChar: less
Encoding: 60 60 31
Width: 1100
GlyphClass: 2
Flags: W
LayerCount: 2
Fore
SplineSet
100 450 m 1,0,-1
 100 600 l 1,1,-1
 1000 1000 l 1,2,-1
 1000 850 l 1,3,-1
 257 521 l 1,4,-1
 1000 200 l 1,5,-1
 1000 50 l 1,6,-1
 100 450 l 1,0,-1
EndSplineSet
EndChar

StartChar: equal
Encoding: 61 61 32
Width: 950
GlyphClass: 2
Flags: W
LayerCount: 2
Fore
SplineSet
850 450 m 1,0,-1
 850 300 l 1,1,-1
 100 300 l 1,2,-1
 100 450 l 1,3,-1
 850 450 l 1,0,-1
850 750 m 1,4,-1
 850 600 l 1,5,-1
 100 600 l 1,6,-1
 100 750 l 1,7,-1
 850 750 l 1,4,-1
EndSplineSet
EndChar

StartChar: greater
Encoding: 62 62 33
Width: 1100
GlyphClass: 2
Flags: W
LayerCount: 2
Fore
SplineSet
100 50 m 1,0,-1
 100 200 l 1,1,-1
 843 521 l 1,2,-1
 100 850 l 1,3,-1
 100 1000 l 1,4,-1
 1000 600 l 1,5,-1
 1000 450 l 1,6,-1
 100 50 l 1,0,-1
EndSplineSet
EndChar

StartChar: question
Encoding: 63 63 34
Width: 1115
GlyphClass: 2
Flags: W
LayerCount: 2
Fore
SplineSet
435 185 m 1,0,-1
 435 0 l 1,1,-1
 250 0 l 1,2,-1
 250 185 l 1,3,-1
 435 185 l 1,0,-1
100 1380 m 1,4,5
 310 1430 310 1430 500 1430 c 0,6,7
 1015 1430 1015 1430 1015 1040 c 256,8,9
 1015 650 1015 650 518 650 c 2,10,-1
 435 650 l 1,11,-1
 435 370 l 1,12,-1
 250 370 l 1,13,-1
 250 800 l 1,14,-1
 515 800 l 2,15,16
 830 800 830 800 830 1040 c 256,17,18
 830 1280 830 1280 500 1280 c 0,19,20
 310 1280 310 1280 100 1230 c 1,21,-1
 100 1380 l 1,4,5
EndSplineSet
EndChar

StartChar: at
Encoding: 64 64 35
Width: 2150
GlyphClass: 2
Flags: W
LayerCount: 2
Fore
SplineSet
625 317 m 0,0,1
 625 640 625 640 1051 640 c 0,2,3
 1208 640 1208 640 1325 620 c 1,4,-1
 1325 729 l 2,5,6
 1325 900 1325 900 1042 900 c 0,7,8
 880 900 880 900 710 850 c 1,9,-1
 710 1000 l 1,10,11
 880 1050 880 1050 1042 1050 c 0,12,13
 1510 1050 1510 1050 1510 714 c 2,14,-1
 1510 88 l 2,15,16
 1510 0 1510 0 1610 0 c 0,17,18
 1815 0 1815 0 1815 540 c 0,19,20
 1815 1290 1815 1290 1089 1290 c 0,21,22
 335 1290 335 1290 335 540 c 0,23,24
 335 -230 335 -230 1020 -230 c 1,25,-1
 1020 -380 l 1,26,27
 150 -380 150 -380 150 540 c 0,28,29
 150 1440 150 1440 1074 1440 c 0,30,31
 2000 1440 2000 1440 2000 540 c 0,32,33
 2000 -150 2000 -150 1573 -150 c 0,34,35
 1332 -150 1332 -150 1332 94 c 1,36,37
 1185 0 1185 0 1000 0 c 0,38,39
 625 0 625 0 625 317 c 0,0,1
1051 490 m 0,41,42
 810 490 810 490 810 320 c 256,43,44
 810 150 810 150 1000 150 c 0,45,46
 1192 150 1192 150 1325 252 c 1,47,-1
 1325 470 l 1,48,40
 1215 490 1215 490 1051 490 c 0,41,42
EndSplineSet
EndChar

StartChar: A
Encoding: 65 65 36
Width: 1472
GlyphClass: 2
Flags: W
LayerCount: 2
Fore
SplineSet
217 0 m 1,0,-1
 25 0 l 1,1,-1
 632 1430 l 1,2,-1
 837 1430 l 1,3,-1
 1447 0 l 1,4,-1
 1242 0 l 1,5,-1
 1057 450 l 1,6,-1
 584 450 l 1,7,-1
 635 600 l 1,8,-1
 995 600 l 1,9,-1
 728 1248 l 1,10,-1
 217 0 l 1,0,-1
EndSplineSet
EndChar

StartChar: B
Encoding: 66 66 37
Width: 1330
GlyphClass: 2
Flags: W
LayerCount: 2
Fore
SplineSet
170 0 m 1,0,-1
 170 1430 l 1,1,-1
 780 1430 l 2,2,3
 1188 1430 1188 1430 1188 1097 c 0,4,5
 1188 853 1188 853 922 748 c 1,6,7
 1206 695 1206 695 1206 423 c 0,8,9
 1206 0 1206 0 759 0 c 2,10,-1
 170 0 l 1,0,-1
748 150 m 2,11,12
 1004 150 1004 150 1004 410 c 0,13,14
 1004 663 1004 663 661 663 c 2,15,-1
 581 663 l 1,16,-1
 581 784 l 1,17,18
 991 839 991 839 991 1080 c 0,19,20
 991 1280 991 1280 763 1280 c 2,21,-1
 355 1280 l 1,22,-1
 355 150 l 1,23,-1
 748 150 l 2,11,12
EndSplineSet
EndChar

StartChar: C
Encoding: 67 67 38
Width: 1385
GlyphClass: 2
Flags: W
LayerCount: 2
Fore
SplineSet
1250 50 m 1,0,1
 1065 -10 1065 -10 850 -10 c 0,2,3
 100 -10 100 -10 100 735 c 0,4,5
 100 1440 100 1440 850 1440 c 0,6,7
 1065 1440 1065 1440 1250 1380 c 1,8,-1
 1250 1220 l 1,9,10
 1065 1290 1065 1290 870 1290 c 0,11,12
 285 1290 285 1290 285 735 c 0,13,14
 285 140 285 140 870 140 c 0,15,16
 1065 140 1065 140 1250 210 c 1,17,-1
 1250 50 l 1,0,1
EndSplineSet
EndChar

StartChar: D
Encoding: 68 68 39
Width: 1500
GlyphClass: 2
Flags: W
LayerCount: 2
Fore
SplineSet
690 150 m 2,0,1
 1215 150 1215 150 1215 754 c 0,2,3
 1215 1280 1215 1280 690 1280 c 2,4,-1
 355 1280 l 1,5,-1
 355 150 l 1,6,-1
 690 150 l 2,0,1
170 0 m 1,7,-1
 170 1430 l 1,8,-1
 690 1430 l 2,9,10
 1400 1430 1400 1430 1400 754 c 0,11,12
 1400 0 1400 0 690 0 c 2,13,-1
 170 0 l 1,7,-1
EndSplineSet
EndChar

StartChar: E
Encoding: 69 69 40
Width: 1230
GlyphClass: 2
Flags: W
LayerCount: 2
Fore
SplineSet
1105 1430 m 1,0,-1
 1105 1280 l 1,1,-1
 355 1280 l 1,2,-1
 355 800 l 1,3,-1
 1070 800 l 1,4,-1
 1070 650 l 1,5,-1
 355 650 l 1,6,-1
 355 150 l 1,7,-1
 1120 150 l 1,8,-1
 1120 0 l 1,9,-1
 170 0 l 1,10,-1
 170 1430 l 1,11,-1
 1105 1430 l 1,0,-1
EndSplineSet
EndChar

StartChar: F
Encoding: 70 70 41
Width: 1155
GlyphClass: 2
Flags: W
LayerCount: 2
Fore
SplineSet
1105 1430 m 1,0,-1
 1105 1280 l 1,1,-1
 355 1280 l 1,2,-1
 355 800 l 1,3,-1
 1070 800 l 1,4,-1
 1070 650 l 1,5,-1
 355 650 l 1,6,-1
 355 0 l 1,7,-1
 170 0 l 1,8,-1
 170 1430 l 1,9,-1
 1105 1430 l 1,0,-1
EndSplineSet
EndChar

StartChar: G
Encoding: 71 71 42
Width: 1385
GlyphClass: 2
Flags: W
LayerCount: 2
Fore
SplineSet
1250 56 m 1,0,1
 1077 -10 1077 -10 877 -10 c 0,2,3
 100 -10 100 -10 100 735 c 0,4,5
 100 1440 100 1440 850 1440 c 0,6,7
 1065 1440 1065 1440 1250 1380 c 1,8,-1
 1250 1220 l 1,9,10
 1065 1290 1065 1290 870 1290 c 0,11,12
 285 1290 285 1290 285 735 c 0,13,14
 285 140 285 140 861 140 c 0,15,16
 953 140 953 140 1065 164 c 1,17,-1
 1065 650 l 1,18,-1
 1250 650 l 1,19,-1
 1250 56 l 1,0,1
EndSplineSet
EndChar

StartChar: H
Encoding: 72 72 43
Width: 1555
GlyphClass: 2
Flags: W
LayerCount: 2
Fore
SplineSet
170 0 m 1,0,-1
 170 1430 l 1,1,-1
 355 1430 l 1,2,-1
 355 800 l 1,3,-1
 1200 800 l 1,4,-1
 1200 1430 l 1,5,-1
 1385 1430 l 1,6,-1
 1385 0 l 1,7,-1
 1200 0 l 1,8,-1
 1200 650 l 1,9,-1
 355 650 l 1,10,-1
 355 0 l 1,11,-1
 170 0 l 1,0,-1
EndSplineSet
EndChar

StartChar: I
Encoding: 73 73 44
Width: 585
GlyphClass: 2
Flags: W
LayerCount: 2
Fore
SplineSet
385 1430 m 1,0,-1
 385 0 l 1,1,-1
 200 0 l 1,2,-1
 200 1430 l 1,3,-1
 385 1430 l 1,0,-1
EndSplineSet
EndChar

StartChar: J
Encoding: 74 74 45
Width: 690
GlyphClass: 2
Flags: W
LayerCount: 2
Fore
SplineSet
510 1430 m 1,0,-1
 510 412 l 2,1,2
 510 0 510 0 25 0 c 1,3,-1
 25 150 l 1,4,5
 325 150 325 150 325 412 c 2,6,-1
 325 1430 l 1,7,-1
 510 1430 l 1,0,-1
EndSplineSet
EndChar

StartChar: K
Encoding: 75 75 46
Width: 1400
GlyphClass: 2
Flags: W
LayerCount: 2
Fore
SplineSet
355 1430 m 1,0,-1
 355 0 l 1,1,-1
 170 0 l 1,2,-1
 170 1430 l 1,3,-1
 355 1430 l 1,0,-1
1361 1430 m 1,4,-1
 717 755 l 1,5,-1
 1375 0 l 1,6,-1
 1118 0 l 1,7,-1
 535 688 l 1,8,-1
 535 800 l 1,9,-1
 1127 1430 l 1,10,-1
 1361 1430 l 1,4,-1
EndSplineSet
EndChar

StartChar: L
Encoding: 76 76 47
Width: 1153
GlyphClass: 2
Flags: W
LayerCount: 2
Fore
SplineSet
355 1430 m 1,0,-1
 355 150 l 1,1,-1
 1103 150 l 1,2,-1
 1103 0 l 1,3,-1
 170 0 l 1,4,-1
 170 1430 l 1,5,-1
 355 1430 l 1,0,-1
EndSplineSet
EndChar

StartChar: M
Encoding: 77 77 48
Width: 1840
GlyphClass: 2
Flags: W
LayerCount: 2
Fore
SplineSet
170 0 m 1,0,-1
 170 1430 l 1,1,-1
 405 1430 l 1,2,-1
 930 237 l 1,3,-1
 1445 1430 l 1,4,-1
 1670 1430 l 1,5,-1
 1670 0 l 1,6,-1
 1505 0 l 1,7,-1
 1505 1173 l 1,8,-1
 997 0 l 1,9,-1
 851 0 l 1,10,-1
 335 1173 l 1,11,-1
 335 0 l 1,12,-1
 170 0 l 1,0,-1
EndSplineSet
EndChar

StartChar: N
Encoding: 78 78 49
Width: 1575
GlyphClass: 2
Flags: W
LayerCount: 2
Fore
SplineSet
170 0 m 1,0,-1
 170 1430 l 1,1,-1
 355 1430 l 1,2,-1
 1230 278 l 1,3,-1
 1230 1430 l 1,4,-1
 1405 1430 l 1,5,-1
 1405 0 l 1,6,-1
 1220 0 l 1,7,-1
 345 1162 l 1,8,-1
 345 0 l 1,9,-1
 170 0 l 1,0,-1
EndSplineSet
EndChar

StartChar: O
Encoding: 79 79 50
Width: 1665
GlyphClass: 2
Flags: W
LayerCount: 2
Fore
SplineSet
838 140 m 0,1,2
 1350 140 1350 140 1350 719 c 0,3,4
 1350 1290 1350 1290 838 1290 c 0,5,6
 315 1290 315 1290 315 719 c 0,7,0
 315 140 315 140 838 140 c 0,1,2
120 713 m 0,8,9
 120 1440 120 1440 838 1440 c 0,10,11
 1545 1440 1545 1440 1545 713 c 0,12,13
 1545 -10 1545 -10 838 -10 c 0,14,15
 120 -10 120 -10 120 713 c 0,8,9
EndSplineSet
EndChar

StartChar: P
Encoding: 80 80 51
Width: 1263
GlyphClass: 2
Flags: W
LayerCount: 2
Fore
SplineSet
170 0 m 1,0,-1
 170 1430 l 1,1,-1
 750 1430 l 2,2,3
 1188 1430 1188 1430 1188 1047 c 0,4,5
 1188 630 1188 630 589 538 c 1,6,-1
 551 694 l 1,7,8
 991 759 991 759 991 1039 c 0,9,10
 991 1277 991 1277 733 1277 c 2,11,-1
 355 1277 l 1,12,-1
 355 0 l 1,13,-1
 170 0 l 1,0,-1
EndSplineSet
EndChar

StartChar: Q
Encoding: 81 81 52
Width: 1665
GlyphClass: 2
Flags: W
LayerCount: 2
Fore
SplineSet
838 140 m 0,1,2
 1350 140 1350 140 1350 719 c 0,3,4
 1350 1290 1350 1290 838 1290 c 0,5,6
 315 1290 315 1290 315 719 c 0,7,0
 315 140 315 140 838 140 c 0,1,2
120 713 m 0,8,9
 120 1440 120 1440 838 1440 c 0,10,11
 1545 1440 1545 1440 1545 713 c 0,12,13
 1545 115 1545 115 1060 7 c 1,14,-1
 1292 -263 l 1,15,-1
 1148 -371 l 1,16,-1
 838 -10 l 1,17,18
 120 -10 120 -10 120 713 c 0,8,9
EndSplineSet
EndChar

StartChar: R
Encoding: 82 82 53
Width: 1305
GlyphClass: 2
Flags: W
LayerCount: 2
Fore
SplineSet
170 0 m 1,0,-1
 170 1430 l 1,1,-1
 780 1430 l 2,2,3
 1188 1430 1188 1430 1188 1087 c 0,4,5
 1188 808 1188 808 789 674 c 1,6,-1
 1280 0 l 1,7,-1
 1036 0 l 1,8,-1
 581 643 l 1,9,-1
 581 764 l 1,10,11
 991 829 991 829 991 1079 c 0,12,13
 991 1277 991 1277 763 1277 c 2,14,-1
 355 1277 l 1,15,-1
 355 0 l 1,16,-1
 170 0 l 1,0,-1
EndSplineSet
EndChar

StartChar: S
Encoding: 83 83 54
Width: 1290
GlyphClass: 2
Flags: W
LayerCount: 2
Fore
SplineSet
150 50 m 1,0,-1
 150 220 l 1,1,2
 375 140 375 140 636 140 c 0,3,4
 1005 140 1005 140 1005 410 c 0,5,6
 1005 640 1005 640 733 640 c 2,7,-1
 549 640 l 2,8,9
 100 640 100 640 100 1030 c 0,10,11
 100 1440 100 1440 675 1440 c 0,12,13
 925 1440 925 1440 1140 1380 c 1,14,-1
 1140 1210 l 1,15,16
 925 1290 925 1290 675 1290 c 0,17,18
 285 1290 285 1290 285 1030 c 0,19,20
 285 800 285 800 549 800 c 2,21,-1
 733 800 l 2,22,23
 1190 800 1190 800 1190 410 c 0,24,25
 1190 -10 1190 -10 636 -10 c 0,26,27
 375 -10 375 -10 150 50 c 1,0,-1
EndSplineSet
EndChar

StartChar: T
Encoding: 84 84 55
Width: 1185
GlyphClass: 2
Flags: W
LayerCount: 2
Fore
SplineSet
1135 1430 m 1,0,-1
 1135 1280 l 1,1,-1
 685 1280 l 1,2,-1
 685 0 l 1,3,-1
 500 0 l 1,4,-1
 500 1280 l 1,5,-1
 50 1280 l 1,6,-1
 50 1430 l 1,7,-1
 1135 1430 l 1,0,-1
EndSplineSet
EndChar

StartChar: U
Encoding: 85 85 56
Width: 1510
GlyphClass: 2
Flags: W
LayerCount: 2
Fore
SplineSet
160 552 m 2,0,-1
 160 1430 l 1,1,-1
 345 1430 l 1,2,-1
 345 552 l 2,3,4
 345 140 345 140 755 140 c 256,5,6
 1165 140 1165 140 1165 552 c 2,7,-1
 1165 1430 l 1,8,-1
 1350 1430 l 1,9,-1
 1350 552 l 2,10,11
 1350 -10 1350 -10 755 -10 c 256,12,13
 160 -10 160 -10 160 552 c 2,0,-1
EndSplineSet
EndChar

StartChar: V
Encoding: 86 86 57
Width: 1472
GlyphClass: 2
Flags: W
LayerCount: 2
Fore
SplineSet
1447 1430 m 1,0,-1
 840 0 l 1,1,-1
 635 0 l 1,2,-1
 25 1430 l 1,3,-1
 220 1430 l 1,4,-1
 744 192 l 1,5,-1
 1255 1430 l 1,6,-1
 1447 1430 l 1,0,-1
EndSplineSet
EndChar

StartChar: W
Encoding: 87 87 58
Width: 1900
GlyphClass: 2
Flags: W
LayerCount: 2
Fore
SplineSet
50 1430 m 1,0,-1
 229 1430 l 1,1,-1
 430 186 l 1,2,-1
 834 1430 l 1,3,-1
 1019 1430 l 1,4,-1
 1452 186 l 1,5,-1
 1679 1430 l 1,6,-1
 1850 1430 l 1,7,-1
 1581 0 l 1,8,-1
 1329 0 l 1,9,-1
 925 1198 l 1,10,-1
 534 0 l 1,11,-1
 285 0 l 1,12,-1
 50 1430 l 1,0,-1
EndSplineSet
EndChar

StartChar: X
Encoding: 88 88 59
Width: 1410
GlyphClass: 2
Flags: W
LayerCount: 2
Fore
SplineSet
588 715 m 1,0,-1
 25 1430 l 1,1,-1
 250 1430 l 1,2,-1
 700 858 l 1,3,-1
 1150 1430 l 1,4,-1
 1375 1430 l 1,5,-1
 813 715 l 1,6,-1
 1375 0 l 1,7,-1
 1150 0 l 1,8,-1
 700 572 l 1,9,-1
 250 0 l 1,10,-1
 25 0 l 1,11,-1
 588 715 l 1,0,-1
EndSplineSet
EndChar

StartChar: Y
Encoding: 89 89 60
Width: 1300
GlyphClass: 2
Flags: W
LayerCount: 2
Fore
SplineSet
25 1430 m 1,0,-1
 230 1430 l 1,1,-1
 642 683 l 1,2,-1
 1060 1430 l 1,3,-1
 1275 1430 l 1,4,-1
 729 500 l 1,5,-1
 729 0 l 1,6,-1
 544 0 l 1,7,-1
 544 500 l 1,8,-1
 25 1430 l 1,0,-1
EndSplineSet
EndChar

StartChar: Z
Encoding: 90 90 61
Width: 1330
GlyphClass: 2
Flags: W
LayerCount: 2
Fore
SplineSet
1205 1430 m 1,0,-1
 1205 1280 l 1,1,-1
 348 150 l 1,2,-1
 1185 150 l 1,3,-1
 1185 0 l 1,4,-1
 125 0 l 1,5,-1
 125 150 l 1,6,-1
 1009 1280 l 1,7,-1
 145 1280 l 1,8,-1
 145 1430 l 1,9,-1
 1205 1430 l 1,0,-1
EndSplineSet
EndChar

StartChar: bracketleft
Encoding: 91 91 62
Width: 650
GlyphClass: 2
Flags: W
LayerCount: 2
Fore
SplineSet
600 1430 m 1,0,-1
 600 1280 l 1,1,-1
 335 1280 l 1,2,-1
 335 -230 l 1,3,-1
 600 -230 l 1,4,-1
 600 -380 l 1,5,-1
 150 -380 l 1,6,-1
 150 1430 l 1,7,-1
 600 1430 l 1,0,-1
EndSplineSet
EndChar

StartChar: backslash
Encoding: 92 92 63
Width: 980
GlyphClass: 2
Flags: W
LayerCount: 2
Fore
SplineSet
25 1430 m 1,0,-1
 230 1430 l 1,1,-1
 955 0 l 1,2,-1
 750 0 l 1,3,-1
 25 1430 l 1,0,-1
EndSplineSet
EndChar

StartChar: bracketright
Encoding: 93 93 64
Width: 650
GlyphClass: 2
Flags: W
LayerCount: 2
Fore
SplineSet
500 1430 m 1,0,-1
 500 -380 l 1,1,-1
 50 -380 l 1,2,-1
 50 -230 l 1,3,-1
 315 -230 l 1,4,-1
 315 1280 l 1,5,-1
 50 1280 l 1,6,-1
 50 1430 l 1,7,-1
 500 1430 l 1,0,-1
EndSplineSet
EndChar

StartChar: asciicircum
Encoding: 94 94 65
Width: 1050
GlyphClass: 2
Flags: W
LayerCount: 2
Fore
SplineSet
450 1430 m 1,0,-1
 600 1430 l 1,1,-1
 1000 700 l 1,2,-1
 850 700 l 1,3,-1
 521 1303 l 1,4,-1
 200 700 l 1,5,-1
 50 700 l 1,6,-1
 450 1430 l 1,0,-1
EndSplineSet
EndChar

StartChar: underscore
Encoding: 95 95 66
Width: 1050
GlyphClass: 2
Flags: W
LayerCount: 2
Fore
SplineSet
1025 0 m 1,0,-1
 1025 -150 l 1,1,-1
 25 -150 l 1,2,-1
 25 0 l 1,3,-1
 1025 0 l 1,0,-1
EndSplineSet
EndChar

StartChar: grave
Encoding: 96 96 67
Width: 603
GlyphClass: 2
Flags: W
LayerCount: 2
Fore
SplineSet
503 1191 m 1,0,-1
 339 1191 l 1,1,-1
 100 1430 l 1,2,-1
 339 1430 l 1,3,-1
 503 1191 l 1,0,-1
EndSplineSet
EndChar

StartChar: a
Encoding: 97 97 68
Width: 1135
GlyphClass: 2
Flags: W
LayerCount: 2
Fore
SplineSet
100 317 m 0,0,1
 100 640 100 640 526 640 c 0,2,3
 663 640 663 640 800 620 c 1,4,-1
 800 719 l 2,5,6
 800 900 800 900 517 900 c 0,7,8
 355 900 355 900 185 850 c 1,9,-1
 185 1000 l 1,10,11
 355 1050 355 1050 517 1050 c 0,12,13
 985 1050 985 1050 985 724 c 2,14,-1
 985 0 l 1,15,-1
 881 0 l 1,16,-1
 817 104 l 1,17,18
 660 0 660 0 475 0 c 0,19,20
 100 0 100 0 100 317 c 0,0,1
526 490 m 0,21,22
 285 490 285 490 285 320 c 256,23,24
 285 150 285 150 475 150 c 0,25,26
 667 150 667 150 800 252 c 1,27,-1
 800 470 l 1,28,29
 663 490 663 490 526 490 c 0,21,22
EndSplineSet
EndChar

StartChar: b
Encoding: 98 98 69
Width: 1188
GlyphClass: 2
Flags: W
LayerCount: 2
Fore
SplineSet
335 183 m 1,0,1
 426 154 426 154 556 154 c 0,2,3
 906 154 906 154 906 553 c 0,4,5
 906 890 906 890 589 890 c 0,6,7
 445 890 445 890 335 836 c 1,8,-1
 335 183 l 1,0,1
150 1430 m 1,9,-1
 335 1430 l 1,10,-1
 335 1000 l 1,11,12
 454 1050 454 1050 590 1050 c 0,13,14
 1088 1050 1088 1050 1088 546 c 0,15,16
 1088 0 1088 0 565 0 c 0,17,18
 339 0 339 0 150 43 c 1,19,-1
 150 1430 l 1,9,-1
EndSplineSet
EndChar

StartChar: c
Encoding: 99 99 70
Width: 1025
GlyphClass: 2
Flags: W
LayerCount: 2
Fore
SplineSet
940 30 m 1,0,1
 810 0 810 0 660 0 c 0,2,3
 100 0 100 0 100 545 c 0,4,5
 100 1050 100 1050 660 1050 c 0,6,7
 810 1050 810 1050 940 1020 c 1,8,-1
 940 870 l 1,9,10
 810 900 810 900 650 900 c 0,11,12
 285 900 285 900 285 545 c 0,13,14
 285 150 285 150 650 150 c 0,15,16
 810 150 810 150 940 180 c 1,17,-1
 940 30 l 1,0,1
EndSplineSet
EndChar

StartChar: d
Encoding: 100 100 71
Width: 1190
GlyphClass: 2
Flags: W
LayerCount: 2
Fore
SplineSet
855 836 m 1,0,1
 743 890 743 890 599 890 c 0,2,3
 282 890 282 890 282 553 c 0,4,5
 282 154 282 154 599 154 c 0,6,7
 743 154 743 154 855 193 c 1,8,-1
 855 836 l 1,0,1
1040 63 m 1,9,10
 849 0 849 0 569 0 c 0,11,12
 100 0 100 0 100 546 c 0,13,14
 100 1050 100 1050 598 1050 c 0,15,16
 734 1050 734 1050 855 1000 c 1,17,-1
 855 1430 l 1,18,-1
 1040 1430 l 1,19,-1
 1040 63 l 1,9,10
EndSplineSet
EndChar

StartChar: e
Encoding: 101 101 72
Width: 1130
GlyphClass: 2
Flags: W
LayerCount: 2
Fore
SplineSet
583 1050 m 0,0,1
 1031 1050 1031 1050 1031 607 c 0,2,3
 1031 544 1031 544 1022 472 c 1,4,-1
 285 472 l 1,5,6
 285 150 285 150 661 150 c 0,7,8
 840 150 840 150 979 190 c 1,9,-1
 979 40 l 1,10,11
 840 0 840 0 641 0 c 0,12,13
 100 0 100 0 100 537 c 0,14,15
 100 1050 100 1050 583 1050 c 0,0,1
285 626 m 1,16,-1
 853 626 l 1,17,18
 847 902 847 902 583 902 c 0,19,20
 303 902 303 902 285 626 c 1,16,-1
EndSplineSet
EndChar

StartChar: f
Encoding: 102 102 73
Width: 661
GlyphClass: 2
Flags: W
LayerCount: 2
Fore
SplineSet
150 0 m 1,0,-1
 150 1101 l 2,1,2
 150 1482 150 1482 582 1482 c 0,3,4
 701 1482 701 1482 806 1442 c 1,5,-1
 806 1292 l 1,6,7
 707 1332 707 1332 581 1332 c 0,8,9
 335 1332 335 1332 335 1109 c 2,10,-1
 335 1050 l 1,11,-1
 660 1050 l 1,12,-1
 660 900 l 1,13,-1
 335 900 l 1,14,-1
 335 0 l 1,15,-1
 150 0 l 1,0,-1
EndSplineSet
EndChar

StartChar: g
Encoding: 103 103 74
Width: 1187
GlyphClass: 2
Flags: W
LayerCount: 2
Fore
SplineSet
852 872 m 1,0,1
 757 896 757 896 617 896 c 0,2,3
 282 896 282 896 282 533 c 0,4,5
 282 160 282 160 599 160 c 0,6,7
 743 160 743 160 852 214 c 1,8,-1
 852 872 l 1,0,1
1037 0 m 2,9,10
 1037 -380 1037 -380 554 -380 c 0,11,12
 360 -380 360 -380 210 -330 c 1,13,-1
 210 -180 l 1,14,15
 363 -230 363 -230 556 -230 c 0,16,17
 852 -230 852 -230 852 0 c 2,18,-1
 852 50 l 1,19,20
 734 0 734 0 598 0 c 0,21,22
 100 0 100 0 100 531 c 0,23,24
 100 1050 100 1050 625 1050 c 0,25,26
 838 1050 838 1050 1037 1007 c 1,27,-1
 1037 0 l 2,9,10
EndSplineSet
Substitution2: "'ss01' Style Set 1 in Latin lookup 2 subtable" g.alt
EndChar

StartChar: h
Encoding: 104 104 75
Width: 1205
GlyphClass: 2
Flags: W
LayerCount: 2
Fore
SplineSet
150 0 m 1,0,-1
 150 1430 l 1,1,-1
 335 1430 l 1,2,-1
 335 936 l 1,3,4
 469 1050 469 1050 662 1050 c 0,5,6
 1055 1050 1055 1050 1055 659 c 2,7,-1
 1055 0 l 1,8,-1
 870 0 l 1,9,-1
 870 662 l 2,10,11
 870 896 870 896 637 896 c 0,12,13
 478 896 478 896 335 763 c 1,14,-1
 335 0 l 1,15,-1
 150 0 l 1,0,-1
EndSplineSet
EndChar

StartChar: i
Encoding: 105 105 76
Width: 525
GlyphClass: 2
Flags: W
LayerCount: 2
Fore
SplineSet
355 1050 m 1,0,-1
 355 0 l 1,1,-1
 170 0 l 1,2,-1
 170 1050 l 1,3,-1
 355 1050 l 1,0,-1
355 1430 m 1,4,-1
 355 1255 l 1,5,-1
 170 1255 l 1,6,-1
 170 1430 l 1,7,-1
 355 1430 l 1,4,-1
EndSplineSet
EndChar

StartChar: j
Encoding: 106 106 77
Width: 525
GlyphClass: 2
Flags: W
LayerCount: 2
Fore
SplineSet
355 1050 m 1,0,-1
 355 80 l 2,1,2
 355 -238 355 -238 200 -398 c 1,3,-1
 45 -293 l 1,4,5
 170 -158 170 -158 170 80 c 2,6,-1
 170 1050 l 1,7,-1
 355 1050 l 1,0,-1
355 1430 m 1,8,-1
 355 1255 l 1,9,-1
 170 1255 l 1,10,-1
 170 1430 l 1,11,-1
 355 1430 l 1,8,-1
EndSplineSet
EndChar

StartChar: k
Encoding: 107 107 78
Width: 1181
GlyphClass: 2
Flags: W
LayerCount: 2
Fore
SplineSet
150 0 m 1,0,-1
 150 1430 l 1,1,-1
 335 1430 l 1,2,-1
 335 968 l 1,3,4
 488 1050 488 1050 688 1050 c 0,5,6
 1080 1050 1080 1050 1080 747 c 0,7,8
 1080 527 1080 527 780 443 c 1,9,-1
 1116 0 l 1,10,-1
 882 0 l 1,11,-1
 548 445 l 1,12,-1
 548 528 l 1,13,14
 895 559 895 559 895 748 c 0,15,16
 895 900 895 900 675 900 c 0,17,18
 502 900 502 900 335 806 c 1,19,-1
 335 0 l 1,20,-1
 150 0 l 1,0,-1
EndSplineSet
Substitution2: "'ss02' Style Set 2 in Latin lookup 3 subtable" k.alt
EndChar

StartChar: l
Encoding: 108 108 79
Width: 505
GlyphClass: 2
Flags: W
LayerCount: 2
Fore
SplineSet
345 1430 m 1,0,-1
 345 0 l 1,1,-1
 160 0 l 1,2,-1
 160 1430 l 1,3,-1
 345 1430 l 1,0,-1
EndSplineSet
EndChar

StartChar: m
Encoding: 109 109 80
Width: 1805
GlyphClass: 2
Flags: W
LayerCount: 2
Fore
SplineSet
150 0 m 1,0,-1
 150 1050 l 1,1,-1
 275 1050 l 1,2,-1
 306 918 l 1,3,4
 457 1050 457 1050 635 1050 c 0,5,6
 863 1050 863 1050 946 906 c 1,7,8
 1117 1050 1117 1050 1293 1050 c 0,9,10
 1655 1050 1655 1050 1655 651 c 2,11,-1
 1655 0 l 1,12,-1
 1470 0 l 1,13,-1
 1470 661 l 2,14,15
 1470 896 1470 896 1272 896 c 0,16,17
 1124 896 1124 896 995 760 c 1,18,-1
 995 0 l 1,19,-1
 810 0 l 1,20,-1
 810 658 l 2,21,22
 810 896 810 896 614 896 c 0,23,24
 458 896 458 896 335 760 c 1,25,-1
 335 0 l 1,26,-1
 150 0 l 1,0,-1
EndSplineSet
EndChar

StartChar: n
Encoding: 110 110 81
Width: 1205
GlyphClass: 2
Flags: W
LayerCount: 2
Fore
SplineSet
150 0 m 1,0,-1
 150 1050 l 1,1,-1
 275 1050 l 1,2,-1
 308 916 l 1,3,4
 469 1050 469 1050 662 1050 c 0,5,6
 1055 1050 1055 1050 1055 659 c 2,7,-1
 1055 0 l 1,8,-1
 870 0 l 1,9,-1
 870 662 l 2,10,11
 870 896 870 896 637 896 c 0,12,13
 478 896 478 896 335 763 c 1,14,-1
 335 0 l 1,15,-1
 150 0 l 1,0,-1
EndSplineSet
EndChar

StartChar: o
Encoding: 111 111 82
Width: 1200
GlyphClass: 2
Flags: W
LayerCount: 2
Fore
SplineSet
600 150 m 256,1,2
 915 150 915 150 915 529 c 0,3,4
 915 900 915 900 600 900 c 256,5,6
 285 900 285 900 285 529 c 0,7,0
 285 150 285 150 600 150 c 256,1,2
100 525 m 0,8,9
 100 1050 100 1050 600 1050 c 256,10,11
 1100 1050 1100 1050 1100 525 c 0,12,13
 1100 1 1100 1 600 1 c 0,14,15
 102 1 102 1 100 525 c 0,8,9
EndSplineSet
EndChar

StartChar: p
Encoding: 112 112 83
Width: 1187
GlyphClass: 2
Flags: W
LayerCount: 2
Fore
SplineSet
335 214 m 1,0,1
 444 160 444 160 578 160 c 0,2,3
 905 160 905 160 905 553 c 0,4,5
 905 896 905 896 580 896 c 0,6,7
 440 896 440 896 335 872 c 1,8,-1
 335 214 l 1,0,1
150 1007 m 1,9,10
 359 1050 359 1050 582 1050 c 0,11,12
 1087 1050 1087 1050 1087 551 c 0,13,14
 1087 0 1087 0 579 0 c 0,15,16
 453 0 453 0 335 50 c 1,17,-1
 335 -380 l 1,18,-1
 150 -380 l 1,19,-1
 150 1007 l 1,9,10
EndSplineSet
EndChar

StartChar: q
Encoding: 113 113 84
Width: 1187
GlyphClass: 2
Flags: W
LayerCount: 2
Fore
SplineSet
852 872 m 1,0,1
 757 896 757 896 617 896 c 0,2,3
 282 896 282 896 282 533 c 0,4,5
 282 160 282 160 599 160 c 0,6,7
 743 160 743 160 852 214 c 1,8,-1
 852 872 l 1,0,1
1037 -380 m 1,9,-1
 852 -380 l 1,10,-1
 852 50 l 1,11,12
 734 0 734 0 598 0 c 0,13,14
 100 0 100 0 100 531 c 0,15,16
 100 1050 100 1050 625 1050 c 0,17,18
 838 1050 838 1050 1037 1007 c 1,19,-1
 1037 -380 l 1,9,-1
EndSplineSet
EndChar

StartChar: r
Encoding: 114 114 85
Width: 675
GlyphClass: 2
Flags: W
LayerCount: 2
Fore
SplineSet
150 0 m 1,0,-1
 150 1050 l 1,1,-1
 275 1050 l 1,2,-1
 308 916 l 1,3,4
 446 1050 446 1050 640 1050 c 1,5,-1
 640 896 l 1,6,7
 452 896 452 896 335 763 c 1,8,-1
 335 0 l 1,9,-1
 150 0 l 1,0,-1
EndSplineSet
EndChar

StartChar: s
Encoding: 115 115 86
Width: 1050
GlyphClass: 2
Flags: W
LayerCount: 2
Fore
SplineSet
140 50 m 1,0,-1
 140 210 l 1,1,2
 325 150 325 150 514 150 c 0,3,4
 765 150 765 150 765 300 c 0,5,6
 765 440 765 440 590 440 c 2,7,-1
 440 440 l 2,8,9
 100 440 100 440 100 750 c 0,10,11
 100 1050 100 1050 537 1050 c 0,12,13
 725 1050 725 1050 910 1000 c 1,14,-1
 910 840 l 1,15,16
 725 900 725 900 537 900 c 0,17,18
 275 900 275 900 275 750 c 0,19,20
 275 610 275 610 440 610 c 2,21,-1
 590 610 l 2,22,23
 950 610 950 610 950 300 c 0,24,25
 950 0 950 0 514 0 c 0,26,27
 325 0 325 0 140 50 c 1,0,-1
EndSplineSet
EndChar

StartChar: t
Encoding: 116 116 87
Width: 675
GlyphClass: 2
Flags: W
LayerCount: 2
Fore
SplineSet
150 1220 m 1,0,-1
 266 1220 l 1,1,-1
 306 1050 l 1,2,-1
 590 1050 l 1,3,-1
 590 900 l 1,4,-1
 335 900 l 1,5,-1
 335 297 l 2,6,7
 335 150 335 150 462 150 c 2,8,-1
 590 150 l 1,9,-1
 590 0 l 1,10,-1
 414 0 l 2,11,12
 150 0 150 0 150 283 c 2,13,-1
 150 1220 l 1,0,-1
EndSplineSet
EndChar

StartChar: u
Encoding: 117 117 88
Width: 1205
GlyphClass: 2
Flags: W
LayerCount: 2
Fore
SplineSet
1055 1050 m 1,0,-1
 1055 0 l 1,1,-1
 928 0 l 1,2,-1
 896 134 l 1,3,4
 705 0 705 0 512 0 c 0,5,6
 150 0 150 0 150 391 c 2,7,-1
 150 1050 l 1,8,-1
 335 1050 l 1,9,-1
 335 388 l 2,10,11
 335 154 335 154 567 154 c 0,12,13
 726 154 726 154 870 287 c 1,14,-1
 870 1050 l 1,15,-1
 1055 1050 l 1,0,-1
EndSplineSet
EndChar

StartChar: v
Encoding: 118 118 89
Width: 1000
GlyphClass: 2
Flags: W
LayerCount: 2
Fore
SplineSet
0 1050 m 1,0,-1
 200 1050 l 1,1,-1
 501 227 l 1,2,-1
 800 1050 l 1,3,-1
 1000 1050 l 1,4,-1
 573 0 l 1,5,-1
 401 0 l 1,6,-1
 0 1050 l 1,0,-1
EndSplineSet
EndChar

StartChar: w
Encoding: 119 119 90
Width: 1539
GlyphClass: 2
Flags: W
LayerCount: 2
Fore
SplineSet
35 1050 m 1,0,-1
 222 1050 l 1,1,-1
 408 227 l 1,2,-1
 681 1050 l 1,3,-1
 848 1050 l 1,4,-1
 1140 227 l 1,5,-1
 1308 1050 l 1,6,-1
 1504 1050 l 1,7,-1
 1230 0 l 1,8,-1
 1061 0 l 1,9,-1
 760 785 l 1,10,-1
 474 0 l 1,11,-1
 301 0 l 1,12,-1
 35 1050 l 1,0,-1
EndSplineSet
EndChar

StartChar: x
Encoding: 120 120 91
Width: 1050
GlyphClass: 2
Flags: W
LayerCount: 2
Fore
SplineSet
418 525 m 1,0,-1
 25 1050 l 1,1,-1
 240 1050 l 1,2,-1
 525 669 l 1,3,-1
 810 1050 l 1,4,-1
 1025 1050 l 1,5,-1
 633 525 l 1,6,-1
 1025 0 l 1,7,-1
 810 0 l 1,8,-1
 525 381 l 1,9,-1
 240 0 l 1,10,-1
 25 0 l 1,11,-1
 418 525 l 1,0,-1
EndSplineSet
EndChar

StartChar: y
Encoding: 121 121 92
Width: 1050
GlyphClass: 2
Flags: W
LayerCount: 2
Fore
SplineSet
25 1050 m 1,0,-1
 226 1050 l 1,1,-1
 523 230 l 1,2,-1
 830 1050 l 1,3,-1
 1026 1050 l 1,4,-1
 590 -31 l 2,5,6
 474 -317 474 -317 242 -388 c 1,7,-1
 171 -257 l 1,8,9
 347 -180 347 -180 427 -6 c 1,10,-1
 25 1050 l 1,0,-1
EndSplineSet
EndChar

StartChar: z
Encoding: 122 122 93
Width: 1040
GlyphClass: 2
Flags: W
LayerCount: 2
Fore
SplineSet
120 1050 m 1,0,-1
 940 1050 l 1,1,-1
 940 900 l 1,2,-1
 313 140 l 1,3,-1
 920 140 l 1,4,-1
 920 0 l 1,5,-1
 100 0 l 1,6,-1
 100 140 l 1,7,-1
 735 900 l 1,8,-1
 120 900 l 1,9,-1
 120 1050 l 1,0,-1
EndSplineSet
EndChar

StartChar: braceleft
Encoding: 123 123 94
Width: 675
GlyphClass: 2
Flags: W
LayerCount: 2
Fore
SplineSet
625 1430 m 1,0,1
 495 1254 495 1254 495 952 c 0,2,3
 495 600 495 600 285 525 c 1,4,5
 495 450 495 450 495 98 c 0,6,7
 495 -204 495 -204 625 -380 c 1,8,-1
 440 -380 l 1,9,10
 310 -204 310 -204 310 98 c 0,11,12
 310 450 310 450 100 450 c 1,13,-1
 100 600 l 1,14,15
 310 600 310 600 310 952 c 0,16,17
 310 1254 310 1254 440 1430 c 1,18,-1
 625 1430 l 1,0,1
EndSplineSet
EndChar

StartChar: bar
Encoding: 124 124 95
Width: 485
GlyphClass: 2
Flags: W
LayerCount: 2
Fore
SplineSet
335 1430 m 1,0,-1
 335 -380 l 1,1,-1
 150 -380 l 1,2,-1
 150 1430 l 1,3,-1
 335 1430 l 1,0,-1
EndSplineSet
EndChar

StartChar: braceright
Encoding: 125 125 96
Width: 675
GlyphClass: 2
Flags: W
LayerCount: 2
Fore
SplineSet
235 1430 m 1,0,1
 365 1254 365 1254 365 952 c 0,2,3
 365 600 365 600 575 600 c 1,4,-1
 575 450 l 1,5,6
 365 450 365 450 365 98 c 0,7,8
 365 -204 365 -204 235 -380 c 1,9,-1
 50 -380 l 1,10,11
 180 -204 180 -204 180 98 c 0,12,13
 180 450 180 450 390 525 c 1,14,15
 180 600 180 600 180 952 c 0,16,17
 180 1254 180 1254 50 1430 c 1,18,-1
 235 1430 l 1,0,1
EndSplineSet
EndChar

StartChar: asciitilde
Encoding: 126 126 97
Width: 950
GlyphClass: 2
Flags: W
LayerCount: 2
Fore
SplineSet
100 580 m 1,0,1
 158 641 158 641 262 641 c 0,2,3
 348 641 348 641 465 600 c 0,4,5
 582 560 582 560 672 560 c 0,6,7
 781 560 781 560 850 620 c 1,8,-1
 850 470 l 1,9,10
 792 410 792 410 688 410 c 0,11,12
 602 410 602 410 485 450 c 0,13,14
 368 491 368 491 278 491 c 0,15,16
 169 491 169 491 100 430 c 1,17,-1
 100 580 l 1,0,1
EndSplineSet
EndChar

StartChar: Aring
Encoding: 197 197 99
Width: 1472
GlyphClass: 2
Flags: W
LayerCount: 2
Fore
SplineSet
738 1490 m 0,0,1
 872 1490 872 1490 872 1627 c 0,2,3
 872 1761 872 1761 738 1761 c 0,4,5
 600 1761 600 1761 600 1627 c 0,6,7
 600 1490 600 1490 738 1490 c 0,0,1
217 0 m 1,8,-1
 25 0 l 1,9,-1
 632 1430 l 1,10,-1
 635 1430 l 1,11,12
 510 1470 510 1470 510 1625 c 0,13,14
 510 1835 510 1835 738 1835 c 0,15,16
 962 1835 962 1835 962 1625 c 0,17,18
 962 1469 962 1469 837 1429 c 1,19,-1
 1447 0 l 1,20,-1
 1242 0 l 1,21,-1
 1057 450 l 1,22,-1
 584 450 l 1,23,-1
 635 600 l 1,24,-1
 995 600 l 1,25,-1
 728 1248 l 1,26,-1
 217 0 l 1,8,-1
EndSplineSet
EndChar

StartChar: Ccedilla
Encoding: 199 199 100
Width: 1385
GlyphClass: 2
Flags: W
LayerCount: 2
Fore
SplineSet
705 -2 m 1,0,1
 100 66 100 66 100 735 c 0,2,3
 100 1440 100 1440 850 1440 c 0,4,5
 1065 1440 1065 1440 1250 1380 c 1,6,-1
 1250 1220 l 1,7,8
 1065 1290 1065 1290 870 1290 c 0,9,10
 285 1290 285 1290 285 735 c 0,11,12
 285 140 285 140 870 140 c 0,13,14
 1065 140 1065 140 1250 210 c 1,15,-1
 1250 50 l 1,16,17
 1065 -10 1065 -10 850 -10 c 2,18,-1
 834 -10 l 1,19,-1
 798 -77 l 1,20,21
 1012 -77 1012 -77 1012 -249 c 0,22,23
 1012 -422 1012 -422 771 -422 c 0,24,25
 663 -422 663 -422 555 -372 c 1,26,-1
 555 -264 l 1,27,28
 663 -314 663 -314 771 -314 c 256,29,30
 879 -314 879 -314 879 -249 c 0,31,32
 879 -185 879 -185 796 -185 c 2,33,-1
 613 -185 l 1,34,-1
 705 -2 l 1,0,1
EndSplineSet
EndChar

StartChar: ccedilla
Encoding: 231 231 111
Width: 1025
GlyphClass: 2
Flags: W
LayerCount: 2
Fore
SplineSet
530 9 m 1,0,1
 100 72 100 72 100 545 c 0,2,3
 100 1050 100 1050 670 1050 c 0,4,5
 820 1050 820 1050 950 1020 c 1,6,-1
 950 870 l 1,7,8
 820 900 820 900 690 900 c 0,9,10
 285 900 285 900 285 545 c 0,11,12
 285 150 285 150 690 150 c 0,13,14
 820 150 820 150 950 180 c 1,15,-1
 950 30 l 1,16,17
 820 0 820 0 670 0 c 2,18,-1
 658 0 l 1,19,-1
 617 -77 l 1,20,21
 831 -77 831 -77 831 -249 c 0,22,23
 831 -422 831 -422 590 -422 c 0,24,25
 482 -422 482 -422 374 -372 c 1,26,-1
 374 -264 l 1,27,28
 482 -314 482 -314 590 -314 c 256,29,30
 698 -314 698 -314 698 -249 c 0,31,32
 698 -185 698 -185 615 -185 c 2,33,-1
 432 -185 l 1,34,-1
 530 9 l 1,0,1
EndSplineSet
EndChar

StartChar: dagger
Encoding: 8224 8224 130
Width: 1045
GlyphClass: 2
Flags: W
LayerCount: 2
Fore
SplineSet
615 1430 m 1,0,-1
 615 1050 l 1,1,-1
 995 1050 l 1,2,-1
 995 900 l 1,3,-1
 615 900 l 1,4,-1
 615 -380 l 1,5,-1
 430 -380 l 1,6,-1
 430 900 l 1,7,-1
 50 900 l 1,8,-1
 50 1050 l 1,9,-1
 430 1050 l 1,10,-1
 430 1430 l 1,11,-1
 615 1430 l 1,0,-1
EndSplineSet
EndChar

StartChar: degree
Encoding: 176 176 131
Width: 752
GlyphClass: 2
Flags: W
LayerCount: 2
Fore
SplineSet
378 1025 m 0,1,2
 522 1025 522 1025 522 1172 c 0,3,4
 522 1316 522 1316 378 1316 c 0,5,6
 230 1316 230 1316 230 1172 c 0,7,0
 230 1025 230 1025 378 1025 c 0,1,2
100 1170 m 0,8,9
 100 1430 100 1430 378 1430 c 0,10,11
 652 1430 652 1430 652 1170 c 0,12,13
 652 911 652 911 378 911 c 0,14,15
 100 911 100 911 100 1170 c 0,8,9
EndSplineSet
EndChar

StartChar: cent
Encoding: 162 162 132
Width: 1747
VWidth: 1705
GlyphClass: 2
Flags: W
LayerCount: 2
Fore
SplineSet
143 1204 m 2,0,-1
 143 200 l 2,1,2
 143 117 143 117 202 58.5 c 128,-1,3
 261 0 261 0 344 -0 c 2,4,-1
 1548 -0 l 2,5,6
 1631 0 1631 0 1690 59 c 128,-1,7
 1749 118 1749 118 1749 200 c 2,8,-1
 1749 1003 l 2,9,10
 1749 1086 1749 1086 1690 1145 c 128,-1,11
 1631 1204 1631 1204 1548 1204 c 2,12,-1
 1052 1204 l 1,13,-1
 918 1338 l 2,14,15
 852 1404 852 1404 758 1404 c 2,16,-1
 344 1404 l 2,17,18
 262 1404 262 1404 202.5 1345 c 128,-1,19
 143 1286 143 1286 143 1204 c 2,0,-1
344 1254 m 2,20,-1
 758 1254 l 2,21,22
 789 1254 789 1254 811 1232 c 2,23,-1
 954 1090 l 2,24,25
 991 1054 991 1054 1042 1054 c 2,26,-1
 1548 1054 l 2,27,28
 1569 1054 1569 1054 1583.5 1039 c 128,-1,29
 1598 1024 1598 1024 1598 1003 c 2,30,-1
 1598 200 l 2,31,32
 1598 179 1598 179 1583 164.5 c 128,-1,33
 1568 150 1568 150 1548 150 c 2,34,-1
 344 150 l 2,35,36
 323 150 323 150 308.5 165 c 128,-1,37
 294 180 294 180 294 200 c 2,38,-1
 294 1204 l 2,39,40
 294 1225 294 1225 308.5 1239.5 c 128,-1,41
 323 1254 323 1254 344 1254 c 2,20,-1
EndSplineSet
EndChar

StartChar: sterling
Encoding: 163 163 133
Width: 1366
VWidth: 1705
GlyphClass: 2
Flags: W
LayerCount: 2
Fore
SplineSet
54 0 m 2,0,1
 -29 0 -29 0 -88 59 c 128,-1,2
 -147 118 -147 118 -147 200 c 2,3,-1
 -147 1204 l 2,4,5
 -147 1287 -147 1287 -88 1345.5 c 128,-1,6
 -29 1404 -29 1404 54 1404 c 2,7,-1
 456 1404 l 2,8,9
 556 1404 556 1404 616 1324 c 2,10,-1
 676 1244 l 2,11,12
 705 1204 705 1204 757 1204 c 2,13,-1
 1258 1204 l 2,14,15
 1340 1204 1340 1204 1399.5 1144.5 c 128,-1,16
 1459 1085 1459 1085 1459 1003 c 2,17,-1
 1459 200 l 2,18,19
 1459 118 1459 118 1399 59 c 128,-1,20
 1339 0 1339 0 1258 0 c 2,21,-1
 54 0 l 2,0,1
EndSplineSet
EndChar

StartChar: section
Encoding: 167 167 134
Width: 1050
GlyphClass: 2
Flags: W
LayerCount: 2
Fore
SplineSet
150 40 m 1,0,-1
 150 200 l 1,1,2
 325 140 325 140 514 140 c 0,3,4
 765 140 765 140 765 290 c 0,5,6
 765 420 765 420 570 420 c 2,7,-1
 460 420 l 2,8,9
 100 420 100 420 100 720 c 0,10,11
 100 858 100 858 222 916 c 1,12,13
 100 996 100 996 100 1140 c 0,14,15
 100 1440 100 1440 557 1440 c 0,16,17
 725 1440 725 1440 900 1390 c 1,18,-1
 900 1230 l 1,19,20
 725 1290 725 1290 557 1290 c 0,21,22
 265 1290 265 1290 265 1140 c 0,23,24
 265 1010 265 1010 460 1010 c 2,25,-1
 570 1010 l 2,26,27
 950 1010 950 1010 950 713 c 0,28,29
 950 583 950 583 830 511 c 1,30,31
 950 447 950 447 950 290 c 0,32,33
 950 -10 950 -10 514 -10 c 0,34,35
 325 -10 325 -10 150 40 c 1,0,-1
470 568 m 2,37,-1
 580 568 l 2,38,39
 775 568 775 568 775 704 c 0,40,41
 775 861 775 861 580 861 c 2,42,-1
 470 861 l 2,43,44
 275 861 275 861 275 717 c 0,45,36
 275 568 275 568 470 568 c 2,37,-1
EndSplineSet
EndChar

StartChar: bullet
Encoding: 8226 8226 135
Width: 630
GlyphClass: 2
Flags: W
LayerCount: 2
Fore
SplineSet
100 725 m 256,0,1
 100 940 100 940 315 940 c 256,2,3
 530 940 530 940 530 725 c 256,4,5
 530 510 530 510 315 510 c 256,6,7
 100 510 100 510 100 725 c 256,0,1
EndSplineSet
EndChar

StartChar: paragraph
Encoding: 182 182 136
Width: 953
GlyphClass: 2
Flags: W
LayerCount: 2
Fore
SplineSet
443 -434 m 1,0,-1
 443 538 l 1,1,2
 0 538 0 538 0 986 c 0,3,4
 0 1430 0 1430 443 1430 c 2,5,-1
 953 1430 l 1,6,-1
 953 1340 l 1,7,-1
 803 1340 l 1,8,-1
 803 -434 l 1,9,-1
 703 -434 l 1,10,-1
 703 1340 l 1,11,-1
 543 1340 l 1,12,-1
 543 -434 l 1,13,-1
 443 -434 l 1,0,-1
EndSplineSet
EndChar

StartChar: germandbls
Encoding: 223 223 137
Width: 1191
GlyphClass: 2
Flags: W
LayerCount: 2
Fore
SplineSet
150 0 m 1,0,-1
 150 959 l 2,1,2
 150 1427 150 1427 614 1427 c 0,3,4
 1044 1427 1044 1427 1044 1050 c 2,5,-1
 1044 965 l 1,6,7
 740 872 740 872 740 727 c 0,8,9
 740 636 740 636 833 600 c 2,10,-1
 926 565 l 2,11,12
 1111 493 1111 493 1111 302 c 0,13,14
 1111 0 1111 0 717 0 c 2,15,-1
 535 0 l 1,16,-1
 535 150 l 1,17,-1
 719 150 l 2,18,19
 916 150 916 150 916 302 c 0,20,21
 916 393 916 393 828 431 c 2,22,-1
 730 474 l 2,23,24
 565 546 565 546 565 714 c 0,25,26
 565 932 565 932 853 1050 c 1,27,28
 853 1277 853 1277 607 1277 c 0,29,30
 335 1277 335 1277 335 956 c 2,31,-1
 335 0 l 1,32,-1
 150 0 l 1,0,-1
EndSplineSet
Substitution2: "'ss03' Style Set 3 in Latin lookup 4 subtable" germandbls.cap
EndChar

StartChar: registered
Encoding: 174 174 138
Width: 1163
GlyphClass: 2
Flags: W
LayerCount: 2
Fore
SplineSet
404 756 m 1,0,-1
 404 1292 l 1,1,-1
 633 1292 l 2,2,3
 786 1292 786 1292 786 1164 c 0,4,5
 786 1059 786 1059 636 1009 c 1,6,-1
 820 756 l 1,7,-1
 729 756 l 1,8,-1
 558 997 l 1,9,-1
 558 1042 l 1,10,11
 712 1067 712 1067 712 1161 c 0,12,13
 712 1235 712 1235 626 1235 c 2,14,-1
 473 1235 l 1,15,-1
 473 756 l 1,16,-1
 404 756 l 1,0,-1
580 664 m 0,18,19
 940 664 940 664 940 1025 c 0,20,21
 940 1394 940 1394 580 1394 c 0,22,23
 223 1394 223 1394 223 1025 c 0,24,17
 223 664 223 664 580 664 c 0,18,19
150 1023 m 1,25,26
 150 1450 150 1450 580 1450 c 0,27,28
 1013 1450 1013 1450 1013 1023 c 0,29,30
 1013 608 1013 608 580 608 c 0,31,32
 162 608 162 608 150 1023 c 1,25,26
EndSplineSet
EndChar

StartChar: copyright
Encoding: 169 169 139
Width: 1785
GlyphClass: 2
Flags: W
LayerCount: 2
Fore
SplineSet
878 80 m 0,1,2
 1530 80 1530 80 1530 719 c 0,3,4
 1530 1350 1530 1350 898 1350 c 0,5,6
 255 1350 255 1350 255 719 c 0,7,0
 255 80 255 80 878 80 c 0,1,2
150 723 m 0,8,9
 150 1440 150 1440 898 1440 c 0,10,11
 1635 1440 1635 1440 1635 723 c 0,12,13
 1635 -10 1635 -10 898 -10 c 0,14,15
 150 -10 150 -10 150 723 c 0,8,9
1183 336 m 1,16,17
 1058 285 1058 285 893 285 c 0,18,19
 477 285 477 285 477 728 c 0,20,21
 477 1144 477 1144 893 1144 c 0,22,23
 1058 1144 1058 1144 1183 1093 c 1,24,-1
 1183 995 l 1,25,26
 1058 1053 1058 1053 907 1053 c 0,27,28
 582 1053 582 1053 582 728 c 0,29,30
 582 376 582 376 907 376 c 0,31,32
 1058 376 1058 376 1183 434 c 1,33,-1
 1183 336 l 1,16,17
EndSplineSet
EndChar

StartChar: trademark
Encoding: 8482 8482 140
Width: 1606
GlyphClass: 2
Flags: W
LayerCount: 2
Fore
SplineSet
661 1430 m 1,0,-1
 661 1359 l 1,1,-1
 449 1359 l 1,2,-1
 449 757 l 1,3,-1
 362 757 l 1,4,-1
 362 1359 l 1,5,-1
 150 1359 l 1,6,-1
 150 1430 l 1,7,-1
 661 1430 l 1,0,-1
750 757 m 1,8,-1
 750 1430 l 1,9,-1
 860 1430 l 1,10,-1
 1108 869 l 1,11,-1
 1350 1430 l 1,12,-1
 1456 1430 l 1,13,-1
 1456 757 l 1,14,-1
 1378 757 l 1,15,-1
 1378 1300 l 1,16,-1
 1139 757 l 1,17,-1
 1070 757 l 1,18,-1
 827 1300 l 1,19,-1
 827 757 l 1,20,-1
 750 757 l 1,8,-1
EndSplineSet
EndChar

StartChar: acute
Encoding: 180 180 141
Width: 603
GlyphClass: 2
Flags: W
LayerCount: 2
Fore
SplineSet
264 1430 m 1,0,-1
 503 1430 l 1,1,-1
 264 1191 l 1,2,-1
 100 1191 l 1,3,-1
 264 1430 l 1,0,-1
EndSplineSet
EndChar

StartChar: dieresis
Encoding: 168 168 142
Width: 755
GlyphClass: 2
Flags: W
LayerCount: 2
Fore
SplineSet
655 1430 m 1,0,-1
 655 1260 l 1,1,-1
 470 1260 l 1,2,-1
 470 1430 l 1,3,-1
 655 1430 l 1,0,-1
285 1430 m 1,4,-1
 285 1260 l 1,5,-1
 100 1260 l 1,6,-1
 100 1430 l 1,7,-1
 285 1430 l 1,4,-1
EndSplineSet
EndChar

StartChar: AE
Encoding: 198 198 143
Width: 1925
GlyphClass: 2
Flags: W
LayerCount: 2
Fore
SplineSet
812 600 m 1,0,-1
 870 450 l 1,1,-1
 411 450 l 1,2,-1
 217 0 l 1,3,-1
 25 0 l 1,4,-1
 632 1430 l 1,5,-1
 1780 1430 l 1,6,-1
 1780 1280 l 1,7,-1
 892 1280 l 1,8,-1
 1102 800 l 1,9,-1
 1745 800 l 1,10,-1
 1745 650 l 1,11,-1
 1171 650 l 1,12,-1
 1397 150 l 1,13,-1
 1800 150 l 1,14,-1
 1800 0 l 1,15,-1
 1252 0 l 1,16,-1
 728 1238 l 1,17,-1
 462 600 l 1,18,-1
 812 600 l 1,0,-1
EndSplineSet
EndChar

StartChar: Oslash
Encoding: 216 216 144
Width: 1625
GlyphClass: 2
Flags: W
LayerCount: 2
Fore
SplineSet
1099 1229 m 1,0,1
 986 1290 986 1290 818 1290 c 0,2,3
 295 1290 295 1290 295 719 c 0,4,5
 295 455 295 455 404 311 c 1,6,-1
 1099 1229 l 1,0,1
522 207 m 1,7,8
 640 140 640 140 818 140 c 0,9,10
 1330 140 1330 140 1330 719 c 0,11,12
 1330 985 1330 985 1219 1127 c 1,13,-1
 522 207 l 1,7,8
1331 1275 m 1,14,15
 1525 1093 1525 1093 1525 713 c 0,16,17
 1525 -10 1525 -10 818 -10 c 0,18,19
 578 -10 578 -10 419 71 c 1,20,-1
 365 0 l 1,21,-1
 168 0 l 1,22,-1
 290 161 l 1,23,24
 100 341 100 341 100 713 c 0,25,26
 100 1440 100 1440 818 1440 c 0,27,28
 1046 1440 1046 1440 1201 1364 c 1,29,-1
 1251 1430 l 1,30,-1
 1449 1430 l 1,31,-1
 1331 1275 l 1,14,15
EndSplineSet
EndChar

StartChar: plusminus
Encoding: 177 177 145
Width: 950
GlyphClass: 2
Flags: W
LayerCount: 2
Fore
SplineSet
400 750 m 1,0,-1
 400 1050 l 1,1,-1
 550 1050 l 1,2,-1
 550 750 l 1,3,-1
 850 750 l 1,4,-1
 850 600 l 1,5,-1
 550 600 l 1,6,-1
 550 300 l 1,7,-1
 400 300 l 1,8,-1
 400 600 l 1,9,-1
 100 600 l 1,10,-1
 100 750 l 1,11,-1
 400 750 l 1,0,-1
850 150 m 1,12,-1
 850 0 l 1,13,-1
 100 0 l 1,14,-1
 100 150 l 1,15,-1
 850 150 l 1,12,-1
EndSplineSet
EndChar

StartChar: yen
Encoding: 165 165 146
Width: 1250
GlyphClass: 2
Flags: W
LayerCount: 2
Fore
SplineSet
50 1430 m 1,0,-1
 255 1430 l 1,1,-1
 617 803 l 1,2,-1
 985 1430 l 1,3,-1
 1200 1430 l 1,4,-1
 767 730 l 1,5,-1
 1080 730 l 1,6,-1
 1080 580 l 1,7,-1
 704 580 l 1,8,-1
 704 469 l 1,9,-1
 1080 469 l 1,10,-1
 1080 319 l 1,11,-1
 704 319 l 1,12,-1
 704 0 l 1,13,-1
 519 0 l 1,14,-1
 519 319 l 1,15,-1
 170 319 l 1,16,-1
 170 469 l 1,17,-1
 519 469 l 1,18,-1
 519 580 l 1,19,-1
 170 580 l 1,20,-1
 170 730 l 1,21,-1
 457 730 l 1,22,-1
 50 1430 l 1,0,-1
EndSplineSet
EndChar

StartChar: mu
Encoding: 181 181 147
AltUni2: 0003bc.ffffffff.0 0003bc.ffffffff.0
Width: 1205
GlyphClass: 2
Flags: W
LayerCount: 2
Fore
SplineSet
1055 1050 m 1,0,-1
 1055 0 l 1,1,-1
 928 0 l 1,2,-1
 896 134 l 1,3,4
 705 0 705 0 532 0 c 0,5,6
 402 0 402 0 335 80 c 1,7,-1
 335 -380 l 1,8,-1
 150 -380 l 1,9,-1
 150 1050 l 1,10,-1
 335 1050 l 1,11,-1
 335 438 l 2,12,13
 335 154 335 154 567 154 c 0,14,15
 726 154 726 154 870 287 c 1,16,-1
 870 1050 l 1,17,-1
 1055 1050 l 1,0,-1
EndSplineSet
EndChar

StartChar: ordfeminine
Encoding: 170 170 148
Width: 642
GlyphClass: 2
Flags: W
LayerCount: 2
Fore
SplineSet
100 1069 m 0,0,1
 100 1230 100 1230 313 1230 c 0,2,3
 392 1230 392 1230 450 1220 c 1,4,-1
 450 1270 l 2,5,6
 450 1356 450 1356 308 1356 c 0,7,8
 228 1356 228 1356 142 1330 c 1,9,-1
 142 1406 l 1,10,11
 228 1430 228 1430 308 1430 c 0,12,13
 542 1430 542 1430 542 1262 c 2,14,-1
 542 906 l 1,15,-1
 496 906 l 1,16,-1
 458 942 l 1,17,18
 390 906 390 906 298 906 c 0,19,20
 100 906 100 906 100 1069 c 0,0,1
313 1156 m 0,22,23
 192 1156 192 1156 192 1070 c 0,24,25
 192 980 192 980 298 980 c 0,26,27
 394 980 394 980 450 1022 c 1,28,-1
 450 1146 l 1,29,21
 395 1156 395 1156 313 1156 c 0,22,23
EndSplineSet
EndChar

StartChar: ordmasculine
Encoding: 186 186 149
Width: 700
GlyphClass: 2
Flags: W
LayerCount: 2
Fore
SplineSet
350 980 m 0,1,2
 508 980 508 980 508 1170 c 0,3,4
 508 1356 508 1356 350 1356 c 0,5,6
 193 1356 193 1356 193 1170 c 0,7,0
 193 980 193 980 350 980 c 0,1,2
100 1168 m 0,8,9
 100 1430 100 1430 350 1430 c 256,10,11
 600 1430 600 1430 600 1168 c 256,12,13
 600 906 600 906 350 906 c 0,14,15
 102 906 102 906 100 1168 c 0,8,9
EndSplineSet
EndChar

StartChar: ae
Encoding: 230 230 150
Width: 1833
GlyphClass: 2
Flags: W
LayerCount: 2
Fore
SplineSet
526 490 m 0,0,1
 285 490 285 490 285 320 c 256,2,3
 285 150 285 150 475 150 c 0,4,5
 667 150 667 150 800 252 c 1,6,-1
 800 470 l 1,7,8
 663 490 663 490 526 490 c 0,0,1
988 626 m 1,9,-1
 1556 626 l 1,10,11
 1550 902 1550 902 1286 902 c 0,12,13
 1006 902 1006 902 988 626 c 1,9,-1
923 148 m 1,14,15
 700 0 700 0 475 0 c 0,16,17
 100 0 100 0 100 317 c 0,18,19
 100 640 100 640 526 640 c 0,20,21
 663 640 663 640 800 620 c 1,22,-1
 800 719 l 2,23,24
 800 900 800 900 517 900 c 0,25,26
 355 900 355 900 185 850 c 1,27,-1
 185 1000 l 1,28,29
 355 1050 355 1050 517 1050 c 0,30,31
 813 1050 813 1050 922 920 c 1,32,33
 1043 1050 1043 1050 1286 1050 c 0,34,35
 1734 1050 1734 1050 1734 607 c 0,36,37
 1734 544 1734 544 1725 472 c 1,38,-1
 988 472 l 1,39,40
 988 150 988 150 1364 150 c 0,41,42
 1533 150 1533 150 1682 190 c 1,43,-1
 1682 40 l 1,44,45
 1543 0 1543 0 1344 0 c 0,46,47
 1064 0 1064 0 923 148 c 1,14,15
EndSplineSet
EndChar

StartChar: oslash
Encoding: 248 248 151
Width: 1200
GlyphClass: 2
Flags: W
LayerCount: 2
Fore
SplineSet
771 861 m 1,0,1
 702 900 702 900 600 900 c 0,2,3
 285 900 285 900 285 529 c 0,4,5
 285 379 285 379 334 288 c 1,6,-1
 771 861 l 1,0,1
449 179 m 1,7,8
 512 150 512 150 600 150 c 0,9,10
 915 150 915 150 915 529 c 0,11,12
 915 657 915 657 877 741 c 1,13,-1
 449 179 l 1,7,8
995 896 m 1,14,15
 1100 765 1100 765 1100 525 c 0,16,17
 1100 1 1100 1 600 1 c 0,18,19
 452 1 452 1 348 47 c 1,20,-1
 312 0 l 1,21,-1
 115 0 l 1,22,-1
 220 138 l 1,23,24
 101 269 101 269 100 525 c 0,25,26
 100 1050 100 1050 600 1050 c 0,27,28
 763 1050 763 1050 873 994 c 1,29,-1
 915 1050 l 1,30,-1
 1113 1050 l 1,31,-1
 995 896 l 1,14,15
EndSplineSet
EndChar

StartChar: questiondown
Encoding: 191 191 152
Width: 1115
GlyphClass: 2
Flags: W
LayerCount: 2
Fore
SplineSet
680 865 m 1,0,-1
 680 1050 l 1,1,-1
 865 1050 l 1,2,-1
 865 865 l 1,3,-1
 680 865 l 1,0,-1
1015 -330 m 1,4,5
 805 -380 805 -380 615 -380 c 0,6,7
 100 -380 100 -380 100 10 c 256,8,9
 100 400 100 400 597 400 c 2,10,-1
 680 400 l 1,11,-1
 680 680 l 1,12,-1
 865 680 l 1,13,-1
 865 250 l 1,14,-1
 600 250 l 2,15,16
 285 250 285 250 285 10 c 256,17,18
 285 -230 285 -230 615 -230 c 0,19,20
 805 -230 805 -230 1015 -180 c 1,21,-1
 1015 -330 l 1,4,5
EndSplineSet
EndChar

StartChar: exclamdown
Encoding: 161 161 153
Width: 485
GlyphClass: 2
Flags: W
LayerCount: 2
Fore
SplineSet
150 -380 m 1,0,-1
 150 680 l 1,1,-1
 335 680 l 1,2,-1
 335 -380 l 1,3,-1
 150 -380 l 1,0,-1
150 865 m 1,4,-1
 150 1050 l 1,5,-1
 335 1050 l 1,6,-1
 335 865 l 1,7,-1
 150 865 l 1,4,-1
EndSplineSet
EndChar

StartChar: logicalnot
Encoding: 172 172 154
Width: 1085
GlyphClass: 2
Flags: W
LayerCount: 2
Fore
SplineSet
100 1050 m 1,0,-1
 985 1050 l 1,1,-1
 985 650 l 1,2,-1
 835 650 l 1,3,-1
 835 900 l 1,4,-1
 100 900 l 1,5,-1
 100 1050 l 1,0,-1
EndSplineSet
EndChar

StartChar: florin
Encoding: 402 402 155
Width: 1047
GlyphClass: 2
Flags: W
LayerCount: 2
Fore
SplineSet
997 1280 m 1,0,1
 966 1286 966 1286 939 1286 c 0,2,3
 768 1286 768 1286 725 1070 c 2,4,-1
 701 950 l 1,5,-1
 911 950 l 1,6,-1
 881 800 l 1,7,-1
 671 800 l 1,8,-1
 507 -20 l 2,9,10
 434 -384 434 -384 116 -384 c 0,11,12
 84 -384 84 -384 50 -380 c 1,13,-1
 50 -230 l 1,14,15
 81 -236 81 -236 108 -236 c 0,16,17
 279 -236 279 -236 322 -20 c 2,18,-1
 486 800 l 1,19,-1
 296 800 l 1,20,-1
 326 950 l 1,21,-1
 516 950 l 1,22,-1
 540 1070 l 2,23,24
 613 1434 613 1434 931 1434 c 0,25,26
 963 1434 963 1434 997 1430 c 1,27,-1
 997 1280 l 1,0,1
EndSplineSet
EndChar

StartChar: guillemotleft
Encoding: 171 171 156
Width: 1009
GlyphClass: 2
Flags: W
LayerCount: 2
Fore
SplineSet
499 525 m 1,0,-1
 757 900 l 1,1,-1
 959 900 l 1,2,-1
 701 525 l 1,3,-1
 959 150 l 1,4,-1
 757 150 l 1,5,-1
 499 525 l 1,0,-1
100 525 m 1,6,-1
 358 900 l 1,7,-1
 560 900 l 1,8,-1
 302 525 l 1,9,-1
 560 150 l 1,10,-1
 358 150 l 1,11,-1
 100 525 l 1,6,-1
EndSplineSet
EndChar

StartChar: guillemotright
Encoding: 187 187 157
Width: 1009
GlyphClass: 2
Flags: W
LayerCount: 2
Fore
SplineSet
252 150 m 1,0,-1
 50 150 l 1,1,-1
 308 525 l 1,2,-1
 50 900 l 1,3,-1
 252 900 l 1,4,-1
 510 525 l 1,5,-1
 252 150 l 1,0,-1
651 150 m 1,6,-1
 449 150 l 1,7,-1
 707 525 l 1,8,-1
 449 900 l 1,9,-1
 651 900 l 1,10,-1
 909 525 l 1,11,-1
 651 150 l 1,6,-1
EndSplineSet
EndChar

StartChar: ellipsis
Encoding: 8230 8230 158
Width: 1185
GlyphClass: 2
Flags: W
LayerCount: 2
Fore
SplineSet
285 185 m 1,0,-1
 285 0 l 1,1,-1
 100 0 l 1,2,-1
 100 185 l 1,3,-1
 285 185 l 1,0,-1
685 185 m 1,4,-1
 685 0 l 1,5,-1
 500 0 l 1,6,-1
 500 185 l 1,7,-1
 685 185 l 1,4,-1
1085 185 m 1,8,-1
 1085 0 l 1,9,-1
 900 0 l 1,10,-1
 900 185 l 1,11,-1
 1085 185 l 1,8,-1
EndSplineSet
EndChar

StartChar: OE
Encoding: 338 338 163
Width: 2215
GlyphClass: 2
Flags: W
LayerCount: 2
Fore
SplineSet
818 150 m 0,1,2
 1330 150 1330 150 1330 719 c 0,3,4
 1330 1280 1330 1280 818 1280 c 0,5,6
 295 1280 295 1280 295 719 c 0,7,0
 295 150 295 150 818 150 c 0,1,2
100 713 m 0,8,9
 100 1430 100 1430 818 1430 c 2,10,-1
 2075 1430 l 1,11,-1
 2075 1280 l 1,12,-1
 1300 1280 l 1,13,14
 1495 1132 1495 1132 1525 800 c 1,15,-1
 2040 800 l 1,16,-1
 2040 650 l 1,17,-1
 1525 650 l 1,18,19
 1495 293 1495 293 1300 150 c 1,20,-1
 2090 150 l 1,21,-1
 2090 0 l 1,22,-1
 818 0 l 2,23,24
 100 0 100 0 100 713 c 0,8,9
EndSplineSet
EndChar

StartChar: oe
Encoding: 339 339 164
Width: 1949
GlyphClass: 2
Flags: W
LayerCount: 2
Fore
SplineSet
600 150 m 256,0,1
 915 150 915 150 915 529 c 0,2,3
 915 900 915 900 600 900 c 256,4,5
 285 900 285 900 285 529 c 0,6,7
 285 150 285 150 600 150 c 256,0,1
1104 626 m 1,8,-1
 1672 626 l 1,9,10
 1666 902 1666 902 1402 902 c 0,11,12
 1122 902 1122 902 1104 626 c 1,8,-1
1013 210 m 1,13,14
 892 1 892 1 600 1 c 0,15,16
 102 1 102 1 100 525 c 0,17,18
 100 1050 100 1050 600 1050 c 0,19,20
 884 1050 884 1050 1007 851 c 1,21,22
 1125 1050 1125 1050 1402 1050 c 0,23,24
 1850 1050 1850 1050 1850 607 c 0,25,26
 1850 544 1850 544 1841 472 c 1,27,-1
 1104 472 l 1,28,29
 1104 150 1104 150 1480 150 c 0,30,31
 1659 150 1659 150 1798 190 c 1,32,-1
 1798 40 l 1,33,34
 1659 0 1659 0 1460 0 c 0,35,36
 1143 0 1143 0 1013 210 c 1,13,14
EndSplineSet
EndChar

StartChar: endash
Encoding: 8211 8211 165
Width: 1200
GlyphClass: 2
Flags: W
LayerCount: 2
Fore
SplineSet
1100 600 m 1,0,-1
 1100 450 l 1,1,-1
 100 450 l 1,2,-1
 100 600 l 1,3,-1
 1100 600 l 1,0,-1
EndSplineSet
EndChar

StartChar: emdash
Encoding: 8212 8212 166
Width: 1700
GlyphClass: 2
Flags: W
LayerCount: 2
Fore
SplineSet
1600 600 m 1,0,-1
 1600 450 l 1,1,-1
 100 450 l 1,2,-1
 100 600 l 1,3,-1
 1600 600 l 1,0,-1
EndSplineSet
EndChar

StartChar: quotedblleft
Encoding: 8220 8220 167
Width: 780
GlyphClass: 2
Flags: W
LayerCount: 2
Fore
SplineSet
755 1430 m 1,0,-1
 605 995 l 1,1,-1
 420 995 l 1,2,-1
 570 1430 l 1,3,-1
 755 1430 l 1,0,-1
385 1430 m 1,4,-1
 235 995 l 1,5,-1
 50 995 l 1,6,-1
 200 1430 l 1,7,-1
 385 1430 l 1,4,-1
EndSplineSet
EndChar

StartChar: quotedblright
Encoding: 8221 8221 168
Width: 780
GlyphClass: 2
Flags: W
LayerCount: 2
Fore
SplineSet
755 1430 m 1,0,-1
 605 995 l 1,1,-1
 420 995 l 1,2,-1
 570 1430 l 1,3,-1
 755 1430 l 1,0,-1
385 1430 m 1,4,-1
 235 995 l 1,5,-1
 50 995 l 1,6,-1
 200 1430 l 1,7,-1
 385 1430 l 1,4,-1
EndSplineSet
EndChar

StartChar: quoteleft
Encoding: 8216 8216 169
Width: 410
GlyphClass: 2
Flags: W
LayerCount: 2
Fore
SplineSet
385 1430 m 1,0,-1
 235 995 l 1,1,-1
 50 995 l 1,2,-1
 200 1430 l 1,3,-1
 385 1430 l 1,0,-1
EndSplineSet
EndChar

StartChar: quoteright
Encoding: 8217 8217 170
Width: 435
GlyphClass: 2
Flags: W
LayerCount: 2
Fore
SplineSet
385 1430 m 1,0,-1
 235 995 l 1,1,-1
 50 995 l 1,2,-1
 200 1430 l 1,3,-1
 385 1430 l 1,0,-1
EndSplineSet
EndChar

StartChar: divide
Encoding: 247 247 171
Width: 985
GlyphClass: 2
Flags: W
LayerCount: 2
Fore
SplineSet
885 600 m 1,0,-1
 885 450 l 1,1,-1
 100 450 l 1,2,-1
 100 600 l 1,3,-1
 885 600 l 1,0,-1
585 300 m 1,4,-1
 585 150 l 1,5,-1
 400 150 l 1,6,-1
 400 300 l 1,7,-1
 585 300 l 1,4,-1
585 900 m 1,8,-1
 585 750 l 1,9,-1
 400 750 l 1,10,-1
 400 900 l 1,11,-1
 585 900 l 1,8,-1
EndSplineSet
EndChar

StartChar: currency
Encoding: 164 164 174
Width: 1366
VWidth: 1742
GlyphClass: 2
Flags: W
LayerCount: 2
Fore
SplineSet
1066 10 m 1,0,-1
 121 10 l 1,1,-1
 46 10 l 2,2,3
 -39 10 -39 10 -99 69.5 c 128,-1,4
 -159 129 -159 129 -159 214 c 2,5,-1
 -159 1234 l 2,6,7
 -159 1319 -159 1319 -99.5 1378.5 c 128,-1,8
 -40 1438 -40 1438 46 1438 c 2,9,-1
 420 1438 l 2,10,11
 505 1438 505 1438 565 1378 c 2,12,-1
 649 1294 l 2,13,14
 709 1234 709 1234 793 1234 c 2,15,-1
 1169 1234 l 2,16,17
 1254 1234 1254 1234 1313 1174.5 c 128,-1,18
 1372 1115 1372 1115 1372 1030 c 2,19,-1
 1372 928 l 1,20,-1
 1219 928 l 1,21,-1
 1219 1030 l 2,22,23
 1219 1051 1219 1051 1204 1066.5 c 128,-1,24
 1189 1082 1189 1082 1169 1082 c 2,25,-1
 793 1082 l 2,26,27
 645 1082 645 1082 541 1186 c 2,28,-1
 457 1271 l 2,29,30
 443 1286 443 1286 420 1286 c 2,31,-1
 46 1286 l 2,32,33
 25 1286 25 1286 10 1270.5 c 128,-1,34
 -5 1255 -5 1255 -5 1234 c 2,35,-1
 -5 403 l 1,36,-1
 212 775 l 2,37,38
 241 825 241 825 301 826 c 2,39,-1
 1577 826 l 2,40,41
 1636 826 1636 826 1665 774 c 0,42,43
 1694 723 1694 723 1665 673 c 2,44,-1
 1308 60 l 2,45,46
 1279 10 1279 10 1219 10 c 2,47,-1
 1066 10 l 1,0,-1
EndSplineSet
EndChar

StartChar: guilsinglleft
Encoding: 8249 8249 175
Width: 610
GlyphClass: 2
Flags: W
LayerCount: 2
Fore
SplineSet
100 525 m 1,0,-1
 358 900 l 1,1,-1
 560 900 l 1,2,-1
 302 525 l 1,3,-1
 560 150 l 1,4,-1
 358 150 l 1,5,-1
 100 525 l 1,0,-1
EndSplineSet
EndChar

StartChar: guilsinglright
Encoding: 8250 8250 176
Width: 610
GlyphClass: 2
Flags: W
LayerCount: 2
Fore
SplineSet
252 150 m 1,0,-1
 50 150 l 1,1,-1
 308 525 l 1,2,-1
 50 900 l 1,3,-1
 252 900 l 1,4,-1
 510 525 l 1,5,-1
 252 150 l 1,0,-1
EndSplineSet
EndChar

StartChar: daggerdbl
Encoding: 8225 8225 177
Width: 1045
GlyphClass: 2
Flags: W
LayerCount: 2
Fore
SplineSet
615 1430 m 1,0,-1
 615 1050 l 1,1,-1
 995 1050 l 1,2,-1
 995 900 l 1,3,-1
 615 900 l 1,4,-1
 615 150 l 1,5,-1
 995 150 l 1,6,-1
 995 0 l 1,7,-1
 615 0 l 1,8,-1
 615 -380 l 1,9,-1
 430 -380 l 1,10,-1
 430 0 l 1,11,-1
 50 0 l 1,12,-1
 50 150 l 1,13,-1
 430 150 l 1,14,-1
 430 900 l 1,15,-1
 50 900 l 1,16,-1
 50 1050 l 1,17,-1
 430 1050 l 1,18,-1
 430 1430 l 1,19,-1
 615 1430 l 1,0,-1
EndSplineSet
EndChar

StartChar: periodcentered
Encoding: 183 183 178
AltUni2: 002219.ffffffff.0 002219.ffffffff.0
Width: 450
GlyphClass: 2
Flags: W
LayerCount: 2
Fore
SplineSet
100 525 m 256,0,1
 100 650 100 650 225 650 c 256,2,3
 350 650 350 650 350 525 c 256,4,5
 350 400 350 400 225 400 c 256,6,7
 100 400 100 400 100 525 c 256,0,1
EndSplineSet
EndChar

StartChar: quotesinglbase
Encoding: 8218 8218 179
Width: 410
GlyphClass: 2
Flags: W
LayerCount: 2
Fore
SplineSet
360 185 m 1,0,-1
 210 -250 l 1,1,-1
 25 -250 l 1,2,-1
 175 185 l 1,3,-1
 360 185 l 1,0,-1
EndSplineSet
EndChar

StartChar: quotedblbase
Encoding: 8222 8222 180
Width: 780
GlyphClass: 2
Flags: W
LayerCount: 2
Fore
SplineSet
730 185 m 1,0,-1
 580 -250 l 1,1,-1
 395 -250 l 1,2,-1
 545 185 l 1,3,-1
 730 185 l 1,0,-1
360 185 m 1,4,-1
 210 -250 l 1,5,-1
 25 -250 l 1,6,-1
 175 185 l 1,7,-1
 360 185 l 1,4,-1
EndSplineSet
EndChar

StartChar: perthousand
Encoding: 8240 8240 181
Width: 2107
GlyphClass: 2
Flags: W
LayerCount: 2
Fore
SplineSet
305 0 m 1,0,-1
 100 0 l 1,1,-1
 1117 1430 l 1,2,-1
 1322 1430 l 1,3,-1
 305 0 l 1,0,-1
378 1035 m 0,5,6
 522 1035 522 1035 522 1182 c 0,7,8
 522 1326 522 1326 378 1326 c 0,9,10
 230 1326 230 1326 230 1182 c 0,11,4
 230 1035 230 1035 378 1035 c 0,5,6
100 1180 m 0,12,13
 100 1440 100 1440 378 1440 c 0,14,15
 652 1440 652 1440 652 1180 c 0,16,17
 652 921 652 921 378 921 c 0,18,19
 100 921 100 921 100 1180 c 0,12,13
1733 104 m 0,21,22
 1877 104 1877 104 1877 251 c 0,23,24
 1877 395 1877 395 1733 395 c 0,25,26
 1585 395 1585 395 1585 251 c 0,27,20
 1585 104 1585 104 1733 104 c 0,21,22
1455 249 m 0,28,29
 1455 509 1455 509 1733 509 c 0,30,31
 2007 509 2007 509 2007 249 c 0,32,33
 2007 -10 2007 -10 1733 -10 c 0,34,35
 1455 -10 1455 -10 1455 249 c 0,28,29
1048 104 m 0,37,38
 1192 104 1192 104 1192 251 c 0,39,40
 1192 395 1192 395 1048 395 c 0,41,42
 900 395 900 395 900 251 c 0,43,36
 900 104 900 104 1048 104 c 0,37,38
770 249 m 0,44,45
 770 509 770 509 1048 509 c 0,46,47
 1322 509 1322 509 1322 249 c 0,48,49
 1322 -10 1322 -10 1048 -10 c 0,50,51
 770 -10 770 -10 770 249 c 0,44,45
EndSplineSet
EndChar

StartChar: circumflex
Encoding: 710 710 197
Width: 700
GlyphClass: 2
Flags: W
LayerCount: 2
Fore
SplineSet
275 1430 m 1,0,-1
 425 1430 l 1,1,-1
 600 1170 l 1,2,-1
 450 1170 l 1,3,-1
 350 1330 l 1,4,-1
 250 1170 l 1,5,-1
 100 1170 l 1,6,-1
 275 1430 l 1,0,-1
EndSplineSet
EndChar

StartChar: tilde
Encoding: 732 732 198
Width: 700
GlyphClass: 2
Flags: W
LayerCount: 2
Fore
SplineSet
100 1384 m 1,0,1
 160 1430 160 1430 230 1430 c 0,2,3
 282 1430 282 1430 340 1404 c 256,4,5
 398 1378 398 1378 454 1378 c 0,6,7
 529 1378 529 1378 600 1424 c 1,8,-1
 600 1274 l 1,9,10
 540 1228 540 1228 470 1228 c 0,11,12
 418 1228 418 1228 360 1254 c 256,13,14
 302 1280 302 1280 246 1280 c 0,15,16
 171 1280 171 1280 100 1234 c 1,17,-1
 100 1384 l 1,0,1
EndSplineSet
EndChar

StartChar: macron
Encoding: 175 175 199
AltUni2: 0002c9.ffffffff.0 0002c9.ffffffff.0
Width: 700
GlyphClass: 2
Flags: W
LayerCount: 2
Fore
SplineSet
600 1430 m 1,0,-1
 600 1280 l 1,1,-1
 100 1280 l 1,2,-1
 100 1430 l 1,3,-1
 600 1430 l 1,0,-1
EndSplineSet
EndChar

StartChar: cedilla
Encoding: 184 184 200
Width: 457
GlyphClass: 2
Flags: W
LayerCount: 2
Fore
SplineSet
0 -264 m 1,0,1
 108 -314 108 -314 216 -314 c 256,2,3
 324 -314 324 -314 324 -249 c 0,4,5
 324 -185 324 -185 241 -185 c 2,6,-1
 58 -185 l 1,7,-1
 189 75 l 1,8,-1
 324 75 l 1,9,-1
 243 -77 l 1,10,11
 457 -77 457 -77 457 -249 c 0,12,13
 457 -422 457 -422 216 -422 c 0,14,15
 108 -422 108 -422 0 -372 c 1,16,-1
 0 -264 l 1,0,1
EndSplineSet
EndChar

StartChar: commaccent
Encoding: 806 806 201
Width: 385
GlyphClass: 2
Flags: W
LayerCount: 2
Fore
SplineSet
360 -100 m 1,0,-1
 210 -380 l 1,1,-1
 25 -380 l 1,2,-1
 175 -100 l 1,3,-1
 360 -100 l 1,0,-1
EndSplineSet
EndChar

StartChar: brokenbar
Encoding: 166 166 204
Width: 485
GlyphClass: 2
Flags: W
LayerCount: 2
Fore
SplineSet
335 350 m 1,0,-1
 335 -380 l 1,1,-1
 150 -380 l 1,2,-1
 150 350 l 1,3,-1
 335 350 l 1,0,-1
334 1430 m 1,4,-1
 334 700 l 1,5,-1
 150 700 l 1,6,-1
 150 1430 l 1,7,-1
 334 1430 l 1,4,-1
EndSplineSet
EndChar

StartChar: Eth
Encoding: 208 208 205
Width: 1500
GlyphClass: 2
Flags: W
LayerCount: 2
Fore
SplineSet
170 800 m 1,0,-1
 170 1430 l 1,1,-1
 690 1430 l 2,2,3
 1400 1430 1400 1430 1400 754 c 0,4,5
 1400 0 1400 0 690 0 c 2,6,-1
 170 0 l 1,7,-1
 170 650 l 1,8,-1
 -30 650 l 1,9,-1
 -30 800 l 1,10,-1
 170 800 l 1,0,-1
355 800 m 1,11,-1
 720 800 l 1,12,-1
 720 650 l 1,13,-1
 355 650 l 1,14,-1
 355 150 l 1,15,-1
 690 150 l 2,16,17
 1215 150 1215 150 1215 754 c 0,18,19
 1215 1280 1215 1280 690 1280 c 2,20,-1
 355 1280 l 1,21,-1
 355 800 l 1,11,-1
EndSplineSet
EndChar

StartChar: eth
Encoding: 240 240 206
Width: 1190
GlyphClass: 2
Flags: W
LayerCount: 2
Fore
SplineSet
905 576 m 0,0,1
 905 702 905 702 887 820 c 1,2,3
 807 910 807 910 593 910 c 0,4,5
 281 910 281 910 281 540 c 0,6,7
 281 140 281 140 594 140 c 0,8,9
 905 140 905 140 905 576 c 0,0,1
884 1251 m 1,10,11
 1090 1040 1090 1040 1090 580 c 0,12,13
 1090 -10 1090 -10 593 -10 c 0,14,15
 100 -10 100 -10 100 540 c 0,16,17
 100 1050 100 1050 564 1050 c 0,18,19
 741 1050 741 1050 860 960 c 1,20,21
 811 1101 811 1101 713 1180 c 1,22,-1
 430 1061 l 1,23,-1
 430 1180 l 1,24,-1
 591 1248 l 1,25,26
 501 1280 501 1280 386 1280 c 2,27,-1
 180 1280 l 1,28,-1
 180 1430 l 1,29,-1
 388 1430 l 2,30,31
 629 1430 629 1430 787 1330 c 1,32,-1
 1027 1430 l 1,33,-1
 1027 1311 l 1,34,-1
 884 1251 l 1,10,11
EndSplineSet
EndChar

StartChar: Thorn
Encoding: 222 222 209
Width: 1243
GlyphClass: 2
Flags: W
LayerCount: 2
Fore
SplineSet
150 0 m 1,0,-1
 150 1430 l 1,1,-1
 335 1430 l 1,2,-1
 335 1122 l 1,3,-1
 760 1122 l 2,4,5
 1168 1122 1168 1122 1168 779 c 0,6,7
 1168 392 1168 392 599 300 c 1,8,-1
 561 456 l 1,9,10
 971 521 971 521 971 771 c 0,11,12
 971 969 971 969 743 969 c 2,13,-1
 335 969 l 1,14,-1
 335 0 l 1,15,-1
 150 0 l 1,0,-1
EndSplineSet
EndChar

StartChar: thorn
Encoding: 254 254 210
Width: 1187
GlyphClass: 2
Flags: W
LayerCount: 2
Fore
SplineSet
335 214 m 1,0,1
 444 160 444 160 578 160 c 0,2,3
 905 160 905 160 905 553 c 0,4,5
 905 896 905 896 580 896 c 0,6,7
 440 896 440 896 335 872 c 1,8,-1
 335 214 l 1,0,1
150 1430 m 1,9,-1
 335 1430 l 1,10,-1
 335 1031 l 1,11,12
 431 1050 431 1050 582 1050 c 0,13,14
 1087 1050 1087 1050 1087 551 c 0,15,16
 1087 0 1087 0 579 0 c 0,17,18
 453 0 453 0 335 50 c 1,19,-1
 335 -380 l 1,20,-1
 150 -380 l 1,21,-1
 150 1430 l 1,9,-1
EndSplineSet
EndChar

StartChar: minus
Encoding: 173 173 211
AltUni2: 002212.ffffffff.0 002212.ffffffff.0
Width: 950
GlyphClass: 2
Flags: W
LayerCount: 2
Fore
SplineSet
850 600 m 1,0,-1
 850 450 l 1,1,-1
 100 450 l 1,2,-1
 100 600 l 1,3,-1
 850 600 l 1,0,-1
EndSplineSet
EndChar

StartChar: multiply
Encoding: 215 215 212
Width: 950
GlyphClass: 2
Flags: W
LayerCount: 2
Fore
SplineSet
312 525 m 1,0,-1
 100 737 l 1,1,-1
 206 843 l 1,2,-1
 418 631 l 1,3,-1
 630 843 l 1,4,-1
 736 737 l 1,5,-1
 524 525 l 1,6,-1
 736 313 l 1,7,-1
 630 207 l 1,8,-1
 418 419 l 1,9,-1
 206 207 l 1,10,-1
 100 313 l 1,11,-1
 312 525 l 1,0,-1
EndSplineSet
EndChar

StartChar: onesuperior
Encoding: 185 185 213
Width: 900
VWidth: 2225
GlyphClass: 2
Flags: W
LayerCount: 2
Fore
SplineSet
438.625 894 m 1,0,-1
 438.625 1707.15039062 l 1,1,-1
 341.125 1707.15039062 l 1,2,-1
 341.125 1765 l 1,3,-1
 558.875 1830 l 1,4,-1
 558.875 894 l 1,5,-1
 438.625 894 l 1,0,-1
EndSplineSet
EndChar

StartChar: twosuperior
Encoding: 178 178 214
Width: 900
VWidth: 2225
GlyphClass: 2
Flags: W
LayerCount: 2
Fore
SplineSet
131.5 894 m 1,0,-1
 131.5 991.5 l 1,1,2
 648.25 1347.04980469 648.25 1347.04980469 648.25 1557 c 0,3,4
 648.25 1732.5 648.25 1732.5 427.25 1732.5 c 0,5,6
 284.25 1732.5 284.25 1732.5 157.5 1661 c 1,7,-1
 157.5 1765 l 1,8,9
 284.25 1830 284.25 1830 427.25 1830 c 0,10,11
 768.5 1830 768.5 1830 768.5 1557 c 0,12,13
 768.5 1316.5 768.5 1316.5 303.75 991.5 c 1,14,-1
 768.5 991.5 l 1,15,-1
 768.5 894 l 1,16,-1
 131.5 894 l 1,0,-1
EndSplineSet
EndChar

StartChar: threesuperior
Encoding: 179 179 215
Width: 900
VWidth: 2223
GlyphClass: 2
Flags: W
LayerCount: 2
Fore
SplineSet
152.625 1789.25 m 1,0,1
 282.625 1828.25 282.625 1828.25 412.625 1828.25 c 0,2,3
 747.375 1828.25 747.375 1828.25 747.375 1574.75 c 0,4,5
 747.375 1421.34960938 747.375 1421.34960938 625.174804688 1363.5 c 1,6,7
 747.375 1308.25 747.375 1308.25 747.375 1152.25 c 0,8,9
 747.375 885.75 747.375 885.75 412.625 885.75 c 0,10,11
 282.625 885.75 282.625 885.75 152.625 924.75 c 1,12,-1
 152.625 1028.75 l 1,13,14
 282.625 983.25 282.625 983.25 412.625 983.25 c 0,15,16
 627.125 983.25 627.125 983.25 627.125 1152.25 c 0,17,18
 627.125 1314.75 627.125 1314.75 463.325195312 1314.75 c 2,19,-1
 250.125 1314.75 l 1,20,-1
 250.125 1412.25 l 1,21,-1
 461.375 1412.25 l 2,22,23
 627.125 1412.25 627.125 1412.25 627.125 1574.75 c 0,24,25
 627.125 1730.75 627.125 1730.75 412.625 1730.75 c 0,26,27
 282.625 1730.75 282.625 1730.75 152.625 1685.25 c 1,28,-1
 152.625 1789.25 l 1,0,1
EndSplineSet
EndChar

StartChar: onehalf
Encoding: 189 189 216
Width: 1442
GlyphClass: 2
Flags: W
LayerCount: 2
Fore
SplineSet
285 0 m 1,0,-1
 100 0 l 1,1,-1
 985 1430 l 1,2,-1
 1170 1430 l 1,3,-1
 285 0 l 1,0,-1
198 710 m 1,4,-1
 198 1261 l 1,5,-1
 124 1261 l 1,6,-1
 124 1336 l 1,7,-1
 351 1426 l 1,8,-1
 351 710 l 1,9,-1
 198 710 l 1,4,-1
852 0 m 1,10,-1
 852 135 l 1,11,12
 1190 348 1190 348 1190 500 c 0,13,14
 1190 585 1190 585 1080 585 c 256,15,16
 970 585 970 585 872 530 c 1,17,-1
 872 670 l 1,18,19
 970 720 970 720 1080 720 c 0,20,21
 1342 720 1342 720 1342 500 c 0,22,23
 1342 325 1342 325 1054 135 c 1,24,-1
 1342 135 l 1,25,-1
 1342 0 l 1,26,-1
 852 0 l 1,10,-1
EndSplineSet
EndChar

StartChar: onequarter
Encoding: 188 188 217
Width: 1449
GlyphClass: 2
Flags: W
LayerCount: 2
Fore
SplineSet
285 0 m 1,0,-1
 100 0 l 1,1,-1
 985 1430 l 1,2,-1
 1170 1430 l 1,3,-1
 285 0 l 1,0,-1
198 710 m 1,4,-1
 198 1261 l 1,5,-1
 124 1261 l 1,6,-1
 124 1336 l 1,7,-1
 351 1426 l 1,8,-1
 351 710 l 1,9,-1
 198 710 l 1,4,-1
872 690 m 1,10,11
 972 720 972 720 1072 720 c 0,12,13
 1349 720 1349 720 1349 506 c 0,14,15
 1349 408 1349 408 1255 363 c 1,16,17
 1349 320 1349 320 1349 220 c 0,18,19
 1349 -4 1349 -4 1072 -4 c 0,20,21
 972 -4 972 -4 872 26 c 1,22,-1
 872 166 l 1,23,24
 972 130 972 130 1072 130 c 0,25,26
 1196 130 1196 130 1196 220 c 0,27,28
 1196 296 1196 296 1110 296 c 2,29,-1
 946 296 l 1,30,-1
 946 430 l 1,31,-1
 1109 430 l 2,32,33
 1196 430 1196 430 1196 506 c 0,34,35
 1196 586 1196 586 1072 586 c 0,36,37
 972 586 972 586 872 550 c 1,38,-1
 872 690 l 1,10,11
EndSplineSet
EndChar

StartChar: threequarters
Encoding: 190 190 218
Width: 1490
GlyphClass: 2
Flags: W
LayerCount: 2
Fore
SplineSet
376 0 m 1,0,-1
 191 0 l 1,1,-1
 1076 1430 l 1,2,-1
 1261 1430 l 1,3,-1
 376 0 l 1,0,-1
1316 0 m 1,4,-1
 1164 0 l 1,5,-1
 1164 150 l 1,6,-1
 822 150 l 1,7,-1
 822 284 l 1,8,-1
 1040 714 l 1,9,-1
 1202 714 l 1,10,-1
 989 284 l 1,11,-1
 1164 284 l 1,12,-1
 1164 548 l 1,13,-1
 1316 548 l 1,14,-1
 1316 284 l 1,15,-1
 1390 246 l 1,16,-1
 1390 150 l 1,17,-1
 1316 150 l 1,18,-1
 1316 0 l 1,4,-1
100 1400 m 1,19,20
 200 1430 200 1430 300 1430 c 0,21,22
 577 1430 577 1430 577 1216 c 0,23,24
 577 1118 577 1118 483 1073 c 1,25,26
 577 1030 577 1030 577 930 c 0,27,28
 577 706 577 706 300 706 c 0,29,30
 200 706 200 706 100 736 c 1,31,-1
 100 876 l 1,32,33
 200 840 200 840 300 840 c 0,34,35
 424 840 424 840 424 930 c 0,36,37
 424 1006 424 1006 338 1006 c 2,38,-1
 174 1006 l 1,39,-1
 174 1140 l 1,40,-1
 337 1140 l 2,41,42
 424 1140 424 1140 424 1216 c 0,43,44
 424 1296 424 1296 300 1296 c 0,45,46
 200 1296 200 1296 100 1260 c 1,47,-1
 100 1400 l 1,19,20
EndSplineSet
EndChar

StartChar: Lslash
Encoding: 321 321 219
Width: 1133
GlyphClass: 2
Flags: W
LayerCount: 2
Fore
SplineSet
150 712 m 1,0,-1
 150 1430 l 1,1,-1
 335 1430 l 1,2,-1
 335 848 l 1,3,-1
 658 1086 l 1,4,-1
 658 906 l 1,5,-1
 335 668 l 1,6,-1
 335 150 l 1,7,-1
 1083 150 l 1,8,-1
 1083 0 l 1,9,-1
 150 0 l 1,10,-1
 150 532 l 1,11,-1
 0 422 l 1,12,-1
 0 602 l 1,13,-1
 150 712 l 1,0,-1
EndSplineSet
EndChar

StartChar: lslash
Encoding: 322 322 220
Width: 505
GlyphClass: 2
Flags: W
LayerCount: 2
Fore
SplineSet
160 713 m 1,0,-1
 160 1430 l 1,1,-1
 345 1430 l 1,2,-1
 345 851 l 1,3,-1
 495 962 l 1,4,-1
 495 782 l 1,5,-1
 345 671 l 1,6,-1
 345 0 l 1,7,-1
 160 0 l 1,8,-1
 160 533 l 1,9,-1
 10 422 l 1,10,-1
 10 602 l 1,11,-1
 160 713 l 1,0,-1
EndSplineSet
EndChar

StartChar: notequal
Encoding: 8800 8800 223
Width: 950
GlyphClass: 2
Flags: W
LayerCount: 2
Fore
SplineSet
271 300 m 1,0,-1
 100 300 l 1,1,-1
 100 450 l 1,2,-1
 357 450 l 1,3,-1
 443 600 l 1,4,-1
 100 600 l 1,5,-1
 100 750 l 1,6,-1
 529 750 l 1,7,-1
 700 1050 l 1,8,-1
 850 1050 l 1,9,-1
 679 750 l 1,10,-1
 850 750 l 1,11,-1
 850 600 l 1,12,-1
 593 600 l 1,13,-1
 507 450 l 1,14,-1
 850 450 l 1,15,-1
 850 300 l 1,16,-1
 421 300 l 1,17,-1
 250 0 l 1,18,-1
 100 0 l 1,19,-1
 271 300 l 1,0,-1
EndSplineSet
EndChar

StartChar: infinity
Encoding: 8734 8734 224
Width: 1520
GlyphClass: 2
Flags: W
LayerCount: 2
Fore
SplineSet
100 525 m 256,0,1
 100 820 100 820 420 820 c 0,2,3
 620 820 620 820 760 650 c 1,4,5
 900 820 900 820 1100 820 c 0,6,7
 1420 820 1420 820 1420 525 c 256,8,9
 1420 230 1420 230 1100 230 c 0,10,11
 900 230 900 230 760 400 c 1,12,13
 620 230 620 230 420 230 c 0,14,15
 100 230 100 230 100 525 c 256,0,1
1255 525 m 256,16,17
 1255 670 1255 670 1100 670 c 0,18,19
 970 670 970 670 850 525 c 1,20,21
 970 380 970 380 1100 380 c 0,22,23
 1255 380 1255 380 1255 525 c 256,16,17
420 380 m 0,25,26
 550 380 550 380 670 525 c 1,27,28
 550 670 550 670 420 670 c 0,29,30
 265 670 265 670 265 525 c 256,31,24
 265 380 265 380 420 380 c 0,25,26
EndSplineSet
EndChar

StartChar: lessequal
Encoding: 8804 8804 225
Width: 950
GlyphClass: 2
Flags: W
LayerCount: 2
Fore
SplineSet
850 150 m 1,0,-1
 850 0 l 1,1,-1
 100 0 l 1,2,-1
 100 150 l 1,3,-1
 850 150 l 1,0,-1
100 600 m 1,4,-1
 100 750 l 1,5,-1
 850 1070 l 1,6,-1
 850 910 l 1,7,-1
 267 671 l 1,8,-1
 850 440 l 1,9,-1
 850 280 l 1,10,-1
 100 600 l 1,4,-1
EndSplineSet
EndChar

StartChar: greaterequal
Encoding: 8805 8805 226
Width: 950
GlyphClass: 2
Flags: W
LayerCount: 2
Fore
SplineSet
850 150 m 1,0,-1
 850 0 l 1,1,-1
 100 0 l 1,2,-1
 100 150 l 1,3,-1
 850 150 l 1,0,-1
100 280 m 1,4,-1
 100 440 l 1,5,-1
 683 671 l 1,6,-1
 100 910 l 1,7,-1
 100 1070 l 1,8,-1
 850 750 l 1,9,-1
 850 600 l 1,10,-1
 100 280 l 1,4,-1
EndSplineSet
EndChar

StartChar: partialdiff
Encoding: 8706 8706 227
Width: 1217
GlyphClass: 2
Flags: W
LayerCount: 2
Fore
SplineSet
353 1150 m 1,1,-1
 353 1320 l 1,2,3
 571 1440 571 1440 815 1440 c 0,4,5
 1215 1440 1215 1440 1215 994 c 0,6,7
 1215 865 1215 865 1182 700 c 0,8,9
 1040 -10 1040 -10 540 -10 c 0,10,11
 149 -10 149 -10 149 301 c 0,12,13
 149 360 149 360 163 430 c 0,14,15
 250 867 250 867 796 867 c 2,16,-1
 1030 867 l 1,17,18
 1045 949 1045 949 1045 1015 c 0,19,20
 1045 1290 1045 1290 794 1290 c 0,21,0
 537 1290 537 1290 353 1150 c 1,1,-1
997 700 m 1,22,-1
 764 700 l 2,23,24
 402 700 402 700 348 430 c 0,25,26
 338 381 338 381 338 340 c 0,27,28
 338 140 338 140 574 140 c 0,29,30
 875 140 875 140 997 700 c 1,22,-1
EndSplineSet
EndChar

StartChar: summation
Encoding: 8721 8721 228
Width: 1350
GlyphClass: 2
Flags: W
LayerCount: 2
Fore
SplineSet
100 1430 m 1,0,-1
 1250 1430 l 1,1,-1
 1250 1280 l 1,2,-1
 300 1280 l 1,3,-1
 840 560 l 1,4,-1
 300 -230 l 1,5,-1
 1250 -230 l 1,6,-1
 1250 -380 l 1,7,-1
 100 -380 l 1,8,-1
 100 -230 l 1,9,-1
 635 560 l 1,10,-1
 100 1280 l 1,11,-1
 100 1430 l 1,0,-1
EndSplineSet
EndChar

StartChar: product
Encoding: 8719 8719 229
Width: 1650
GlyphClass: 2
Flags: W
LayerCount: 2
Fore
SplineSet
1500 1430 m 1,0,-1
 1500 -380 l 1,1,-1
 1325 -380 l 1,2,-1
 1325 1280 l 1,3,-1
 335 1280 l 1,4,-1
 335 -380 l 1,5,-1
 150 -380 l 1,6,-1
 150 1430 l 1,7,-1
 1500 1430 l 1,0,-1
EndSplineSet
EndChar

StartChar: pi
Encoding: 960 960 230
Width: 1465
GlyphClass: 2
Flags: W
LayerCount: 2
Fore
SplineSet
25 990 m 1,0,1
 165 1050 165 1050 315 1050 c 2,2,-1
 1365 1050 l 1,3,-1
 1365 900 l 1,4,-1
 1120 900 l 1,5,-1
 1120 320 l 2,6,7
 1120 149 1120 149 1295 149 c 0,8,9
 1310 149 1310 149 1325 150 c 1,10,-1
 1325 0 l 1,11,12
 1284 -5 1284 -5 1247 -5 c 0,13,14
 935 -5 935 -5 935 320 c 2,15,-1
 935 900 l 1,16,-1
 500 900 l 1,17,-1
 500 -1 l 1,18,-1
 315 -1 l 1,19,-1
 315 900 l 1,20,21
 165 900 165 900 25 840 c 1,22,-1
 25 990 l 1,0,1
EndSplineSet
EndChar

StartChar: integral
Encoding: 8747 8747 231
Width: 589
GlyphClass: 2
Flags: W
LayerCount: 2
Fore
SplineSet
589 1510 m 1,0,1
 367 1510 367 1510 367 1184 c 0,2,3
 367 1158 367 1158 368 1130 c 2,4,-1
 406 380 l 2,5,6
 407 350 407 350 407 321 c 0,7,8
 407 -150 407 -150 0 -150 c 1,9,-1
 0 0 l 1,10,11
 222 0 222 0 222 326 c 0,12,13
 222 352 222 352 221 380 c 2,14,-1
 183 1130 l 2,15,16
 182 1160 182 1160 182 1189 c 0,17,18
 182 1660 182 1660 589 1660 c 1,19,-1
 589 1510 l 1,0,1
EndSplineSet
EndChar

StartChar: Omega
Encoding: 937 937 232
AltUni2: 002126.ffffffff.0 002126.ffffffff.0
Width: 1610
GlyphClass: 2
Flags: W
LayerCount: 2
Fore
SplineSet
135 0 m 1,0,-1
 135 150 l 1,1,-1
 440 150 l 1,2,3
 120 420 120 420 120 800 c 0,4,5
 120 1450 120 1450 805 1450 c 256,6,7
 1490 1450 1490 1450 1490 800 c 0,8,9
 1490 420 1490 420 1170 150 c 1,10,-1
 1475 150 l 1,11,-1
 1475 0 l 1,12,-1
 925 0 l 1,13,-1
 925 150 l 1,14,15
 1305 420 1305 420 1305 800 c 0,16,17
 1305 1300 1305 1300 805 1300 c 256,18,19
 305 1300 305 1300 305 800 c 0,20,21
 305 420 305 420 685 150 c 1,22,-1
 685 0 l 1,23,-1
 135 0 l 1,0,-1
EndSplineSet
EndChar

StartChar: radical
Encoding: 8730 8730 233
Width: 1350
GlyphClass: 2
Flags: W
LayerCount: 2
Fore
SplineSet
75 1050 m 1,0,-1
 440 1050 l 1,1,-1
 682 244 l 1,2,-1
 1170 1854 l 1,3,-1
 1350 1854 l 1,4,-1
 750 -7 l 1,5,-1
 585 -7 l 1,6,-1
 305 900 l 1,7,-1
 75 900 l 1,8,-1
 75 1050 l 1,0,-1
EndSplineSet
EndChar

StartChar: approxequal
Encoding: 8776 8776 234
AltUni2: 0022f2.ffffffff.0 0022f2.ffffffff.0
Width: 1050
GlyphClass: 2
Flags: W
LayerCount: 2
Fore
SplineSet
950 450 m 1,0,-1
 950 300 l 1,1,2
 839 250 839 250 730 250 c 256,3,4
 621 250 621 250 515 300 c 256,5,6
 409 350 409 350 305 350 c 0,7,8
 202 350 202 350 100 300 c 1,9,-1
 100 450 l 1,10,11
 212 500 212 500 320 500 c 0,12,13
 429 500 429 500 535 450 c 256,14,15
 641 400 641 400 745 400 c 256,16,17
 849 400 849 400 950 450 c 1,0,-1
950 750 m 1,18,-1
 950 600 l 1,19,20
 839 550 839 550 730 550 c 256,21,22
 621 550 621 550 515 600 c 256,23,24
 409 650 409 650 305 650 c 0,25,26
 202 650 202 650 100 600 c 1,27,-1
 100 750 l 1,28,29
 212 800 212 800 320 800 c 0,30,31
 429 800 429 800 535 750 c 256,32,33
 641 700 641 700 745 700 c 256,34,35
 849 700 849 700 950 750 c 1,18,-1
EndSplineSet
EndChar

StartChar: Delta
Encoding: 916 916 235
AltUni2: 002206.ffffffff.0 002206.ffffffff.0
Width: 1472
GlyphClass: 2
Flags: W
LayerCount: 2
Fore
SplineSet
25 0 m 1,0,-1
 632 1430 l 1,1,-1
 838 1430 l 1,2,-1
 1447 0 l 1,3,-1
 25 0 l 1,0,-1
1181 150 m 1,4,-1
 728 1238 l 1,5,-1
 279 150 l 1,6,-1
 1181 150 l 1,4,-1
EndSplineSet
EndChar

StartChar: lozenge
Encoding: 9674 9674 236
Width: 1085
GlyphClass: 2
Flags: W
LayerCount: 2
Fore
SplineSet
450 1430 m 1,0,-1
 635 1430 l 1,1,-1
 1035 715 l 1,2,-1
 635 0 l 1,3,-1
 450 0 l 1,4,-1
 50 715 l 1,5,-1
 450 1430 l 1,0,-1
235 715 m 1,6,-1
 543 150 l 1,7,-1
 850 715 l 1,8,-1
 543 1280 l 1,9,-1
 235 715 l 1,6,-1
EndSplineSet
EndChar

StartChar: fraction
Encoding: 8260 8260 237
Width: 1270
GlyphClass: 2
Flags: W
LayerCount: 2
Fore
SplineSet
285 0 m 1,0,-1
 100 0 l 1,1,-1
 985 1430 l 1,2,-1
 1170 1430 l 1,3,-1
 285 0 l 1,0,-1
EndSplineSet
EndChar

StartChar: fi
Encoding: 64257 64257 238
Width: 1131
GlyphClass: 2
Flags: W
LayerCount: 2
Fore
SplineSet
335 910 m 1,0,-1
 335 0 l 1,1,-1
 150 0 l 1,2,-1
 150 1101 l 2,3,4
 150 1502 150 1502 592 1502 c 0,5,6
 731 1502 731 1502 886 1442 c 1,7,-1
 886 1292 l 1,8,9
 737 1352 737 1352 591 1352 c 0,10,11
 335 1352 335 1352 335 1119 c 2,12,-1
 335 1050 l 1,13,-1
 961 1050 l 1,14,-1
 961 0 l 1,15,-1
 776 0 l 1,16,-1
 776 910 l 1,17,-1
 335 910 l 1,0,-1
EndSplineSet
Ligature2: "'liga' Standard Ligatures in Latin lookup 0 subtable" f i
EndChar

StartChar: fl
Encoding: 64258 64258 239
Width: 1184
GlyphClass: 2
Flags: W
LayerCount: 2
Fore
SplineSet
839 1333 m 1,0,1
 729 1352 729 1352 641 1352 c 0,2,3
 335 1352 335 1352 335 1109 c 2,4,-1
 335 1050 l 1,5,-1
 650 1050 l 1,6,-1
 650 900 l 1,7,-1
 335 900 l 1,8,-1
 335 0 l 1,9,-1
 150 0 l 1,10,-1
 150 1101 l 2,11,12
 150 1502 150 1502 642 1502 c 0,13,14
 821 1502 821 1502 1024 1430 c 1,15,-1
 1024 0 l 1,16,-1
 839 0 l 1,17,-1
 839 1333 l 1,0,1
EndSplineSet
Ligature2: "'liga' Standard Ligatures in Latin lookup 0 subtable" f l
EndChar

StartChar: MT.sign
Encoding: 61440 61440 240
Width: 1724
GlyphClass: 2
Flags: W
LayerCount: 2
Fore
SplineSet
1181 332 m 1,0,-1
 1181 434 l 1,1,-1
 928 447 l 1,2,-1
 928 987 l 1,3,-1
 1063 987 l 1,4,-1
 1114 587 l 1,5,-1
 1229 587 l 1,6,-1
 1191 1098 l 1,7,-1
 942 1098 l 1,8,-1
 862 1055 l 1,9,-1
 783 1098 l 1,10,-1
 533 1098 l 1,11,-1
 495 587 l 1,12,-1
 609 587 l 1,13,-1
 660 987 l 1,14,-1
 796 987 l 1,15,-1
 796 447 l 1,16,-1
 543 434 l 1,17,-1
 543 332 l 1,18,-1
 1181 332 l 1,0,-1
534 1330 m 1,19,-1
 571 1419 l 1,20,-1
 660 1382 l 1,21,-1
 713 1462 l 1,22,-1
 794 1409 l 1,23,-1
 862 1476 l 1,24,-1
 930 1409 l 1,25,-1
 1011 1462 l 1,26,-1
 1064 1382 l 1,27,-1
 1153 1419 l 1,28,-1
 1190 1330 l 1,29,-1
 1284 1349 l 1,30,-1
 1304 1253 l 1,31,-1
 1401 1253 l 1,32,-1
 1401 1157 l 1,33,-1
 1495 1138 l 1,34,-1
 1476 1044 l 1,35,-1
 1565 1007 l 1,36,-1
 1529 917 l 1,37,-1
 1610 865 l 1,38,-1
 1556 783 l 1,39,-1
 1624 716 l 1,40,-1
 1555 647 l 1,41,-1
 1610 565 l 1,42,-1
 1528 513 l 1,43,-1
 1565 423 l 1,44,-1
 1476 386 l 1,45,-1
 1495 292 l 1,46,-1
 1401 273 l 1,47,-1
 1401 177 l 1,48,-1
 1304 177 l 1,49,-1
 1284 81 l 1,50,-1
 1190 100 l 1,51,-1
 1153 11 l 1,52,-1
 1064 48 l 1,53,-1
 1011 -32 l 1,54,-1
 930 21 l 1,55,-1
 862 -46 l 1,56,-1
 794 21 l 1,57,-1
 713 -32 l 1,58,-1
 660 48 l 1,59,-1
 571 11 l 1,60,-1
 534 100 l 1,61,-1
 439 81 l 1,62,-1
 420 177 l 1,63,-1
 323 177 l 1,64,-1
 323 273 l 1,65,-1
 228 292 l 1,66,-1
 247 386 l 1,67,-1
 157 425 l 1,68,-1
 194 513 l 1,69,-1
 114 566 l 1,70,-1
 169 647 l 1,71,-1
 100 716 l 1,72,-1
 169 783 l 1,73,-1
 114 865 l 1,74,-1
 196 919 l 1,75,-1
 159 1007 l 1,76,-1
 248 1044 l 1,77,-1
 229 1138 l 1,78,-1
 323 1157 l 1,79,-1
 323 1253 l 1,80,-1
 420 1253 l 1,81,-1
 439 1349 l 1,82,-1
 534 1330 l 1,19,-1
862 1347 m 256,83,84
 600 1347 600 1347 415 1162 c 128,-1,85
 230 977 230 977 230 716 c 0,86,87
 230 453 230 453 415 268 c 128,-1,88
 600 83 600 83 862 83 c 256,89,90
 1124 83 1124 83 1309 268 c 128,-1,91
 1494 453 1494 453 1494 716 c 0,92,93
 1494 977 1494 977 1309 1162 c 128,-1,94
 1124 1347 1124 1347 862 1347 c 256,83,84
1270 1123.5 m 128,-1,96
 1439 954 1439 954 1439 716 c 0,97,98
 1439 476 1439 476 1270 306.5 c 128,-1,99
 1101 137 1101 137 862 137 c 256,100,101
 623 137 623 137 454 306.5 c 128,-1,102
 285 476 285 476 285 716 c 0,103,104
 285 954 285 954 454 1123.5 c 128,-1,105
 623 1293 623 1293 862 1293 c 256,106,95
 1101 1293 1101 1293 1270 1123.5 c 128,-1,96
EndSplineSet
EndChar

StartChar: dotlessi
Encoding: 305 305 241
Width: 525
GlyphClass: 2
Flags: W
LayerCount: 2
Fore
SplineSet
355 1050 m 1,0,-1
 355 0 l 1,1,-1
 170 0 l 1,2,-1
 170 1050 l 1,3,-1
 355 1050 l 1,0,-1
EndSplineSet
EndChar

StartChar: breve
Encoding: 728 728 242
Width: 730
GlyphClass: 2
Flags: W
LayerCount: 2
Fore
SplineSet
100 1430 m 1,0,-1
 235 1430 l 1,1,2
 235 1280 235 1280 365 1280 c 256,3,4
 495 1280 495 1280 495 1430 c 1,5,-1
 630 1430 l 1,6,7
 630 1170 630 1170 365 1170 c 256,8,9
 100 1170 100 1170 100 1430 c 1,0,-1
EndSplineSet
EndChar

StartChar: dotaccent
Encoding: 729 729 243
Width: 405
GlyphClass: 2
Flags: W
LayerCount: 2
Fore
SplineSet
305 1430 m 1,0,-1
 305 1240 l 1,1,-1
 100 1240 l 1,2,-1
 100 1430 l 1,3,-1
 305 1430 l 1,0,-1
EndSplineSet
EndChar

StartChar: ring
Encoding: 730 730 244
Width: 652
GlyphClass: 2
Flags: W
LayerCount: 2
Fore
SplineSet
328 1226 m 0,1,2
 462 1226 462 1226 462 1363 c 0,3,4
 462 1497 462 1497 328 1497 c 0,5,6
 190 1497 190 1497 190 1363 c 0,7,0
 190 1226 190 1226 328 1226 c 0,1,2
100 1361 m 0,8,9
 100 1571 100 1571 328 1571 c 0,10,11
 552 1571 552 1571 552 1361 c 0,12,13
 552 1152 552 1152 328 1152 c 0,14,15
 100 1152 100 1152 100 1361 c 0,8,9
EndSplineSet
EndChar

StartChar: hungarumlaut
Encoding: 733 733 245
Width: 979
GlyphClass: 2
Flags: W
LayerCount: 2
Fore
SplineSet
264 1430 m 1,0,-1
 503 1430 l 1,1,-1
 264 1191 l 1,2,-1
 100 1191 l 1,3,-1
 264 1430 l 1,0,-1
640 1430 m 1,4,-1
 879 1430 l 1,5,-1
 640 1191 l 1,6,-1
 476 1191 l 1,7,-1
 640 1430 l 1,4,-1
EndSplineSet
EndChar

StartChar: ogonek
Encoding: 731 731 246
Width: 580
GlyphClass: 2
Flags: W
LayerCount: 2
Fore
SplineSet
460 0 m 1,0,1
 258 -126 258 -126 258 -228 c 0,2,3
 258 -296 258 -296 343 -296 c 256,4,5
 428 -296 428 -296 480 -276 c 1,6,-1
 480 -406 l 1,7,8
 419 -426 419 -426 331 -426 c 0,9,10
 100 -426 100 -426 100 -253 c 0,11,12
 100 -122 100 -122 265 0 c 1,13,-1
 460 0 l 1,0,1
EndSplineSet
EndChar

StartChar: caron
Encoding: 711 711 247
Width: 700
GlyphClass: 2
Flags: W
LayerCount: 2
Fore
SplineSet
100 1430 m 1,0,-1
 250 1430 l 1,1,-1
 350 1270 l 1,2,-1
 450 1430 l 1,3,-1
 600 1430 l 1,4,-1
 425 1170 l 1,5,-1
 275 1170 l 1,6,-1
 100 1430 l 1,0,-1
EndSplineSet
EndChar

StartChar: Euro
Encoding: 8364 8364 248
Width: 1385
GlyphClass: 2
Flags: W
LayerCount: 2
Fore
SplineSet
1250 50 m 1,0,1
 1065 -10 1065 -10 850 -10 c 0,2,3
 100 -10 100 -10 100 735 c 0,4,5
 100 1440 100 1440 850 1440 c 0,6,7
 1065 1440 1065 1440 1250 1380 c 1,8,-1
 1250 1220 l 1,9,10
 1065 1290 1065 1290 870 1290 c 0,11,12
 372 1290 372 1290 285 942 c 1,13,-1
 1058 942 l 1,14,-1
 1058 792 l 1,15,-1
 265 792 l 1,16,-1
 265 682 l 1,17,-1
 1058 682 l 1,18,-1
 1058 532 l 1,19,-1
 285 532 l 1,20,21
 362 140 362 140 870 140 c 0,22,23
 1065 140 1065 140 1250 210 c 1,24,-1
 1250 50 l 1,0,1
EndSplineSet
EndChar

StartChar: Aogonek
Encoding: 260 260 253
Width: 1472
GlyphClass: 2
Flags: W
LayerCount: 2
Fore
SplineSet
217 0 m 1,0,-1
 25 0 l 1,1,-1
 632 1430 l 1,2,-1
 837 1430 l 1,3,-1
 1447 0 l 1,4,5
 1245 -126 1245 -126 1245 -228 c 0,6,7
 1245 -296 1245 -296 1330 -296 c 256,8,9
 1415 -296 1415 -296 1467 -276 c 1,10,-1
 1467 -406 l 1,11,12
 1406 -426 1406 -426 1318 -426 c 0,13,14
 1087 -426 1087 -426 1087 -253 c 0,15,16
 1087 -122 1087 -122 1242 0 c 1,17,-1
 1057 450 l 1,18,-1
 584 450 l 1,19,-1
 635 600 l 1,20,-1
 995 600 l 1,21,-1
 728 1248 l 1,22,-1
 217 0 l 1,0,-1
EndSplineSet
EndChar

StartChar: aogonek
Encoding: 261 261 254
Width: 1135
GlyphClass: 2
Flags: W
LayerCount: 2
Fore
SplineSet
526 490 m 0,0,1
 285 490 285 490 285 320 c 256,2,3
 285 150 285 150 475 150 c 0,4,5
 667 150 667 150 800 252 c 1,6,-1
 800 470 l 1,7,8
 663 490 663 490 526 490 c 0,0,1
817 0 m 1,9,-1
 817 104 l 1,10,11
 660 0 660 0 475 0 c 0,12,13
 100 0 100 0 100 317 c 0,14,15
 100 640 100 640 526 640 c 0,16,17
 663 640 663 640 800 620 c 1,18,-1
 800 719 l 2,19,20
 800 900 800 900 517 900 c 0,21,22
 355 900 355 900 185 850 c 1,23,-1
 185 1000 l 1,24,25
 355 1050 355 1050 517 1050 c 0,26,27
 985 1050 985 1050 985 724 c 2,28,-1
 985 0 l 1,29,30
 783 -126 783 -126 783 -228 c 0,31,32
 783 -296 783 -296 868 -296 c 256,33,34
 953 -296 953 -296 1005 -276 c 1,35,-1
 1005 -406 l 1,36,37
 944 -426 944 -426 856 -426 c 0,38,39
 625 -426 625 -426 625 -253 c 0,40,41
 625 -122 625 -122 817 0 c 1,9,-1
EndSplineSet
EndChar

StartChar: Eogonek
Encoding: 280 280 261
Width: 1230
GlyphClass: 2
Flags: W
LayerCount: 2
Fore
SplineSet
925 0 m 1,0,-1
 170 0 l 1,1,-1
 170 1430 l 1,2,-1
 1105 1430 l 1,3,-1
 1105 1280 l 1,4,-1
 355 1280 l 1,5,-1
 355 800 l 1,6,-1
 1070 800 l 1,7,-1
 1070 650 l 1,8,-1
 355 650 l 1,9,-1
 355 150 l 1,10,-1
 1120 150 l 1,11,-1
 1120 0 l 1,12,13
 918 -126 918 -126 918 -228 c 0,14,15
 918 -296 918 -296 1003 -296 c 256,16,17
 1088 -296 1088 -296 1140 -276 c 1,18,-1
 1140 -406 l 1,19,20
 1079 -426 1079 -426 991 -426 c 0,21,22
 760 -426 760 -426 760 -253 c 0,23,24
 760 -122 760 -122 925 0 c 1,0,-1
EndSplineSet
EndChar

StartChar: eogonek
Encoding: 281 281 262
Width: 1130
GlyphClass: 2
Flags: W
LayerCount: 2
Fore
SplineSet
285 626 m 1,0,-1
 853 626 l 1,1,2
 847 902 847 902 573 902 c 0,3,4
 303 902 303 902 285 626 c 1,0,-1
774 14 m 1,5,6
 711 0 711 0 641 0 c 0,7,8
 100 0 100 0 100 537 c 0,9,10
 100 1050 100 1050 573 1050 c 0,11,12
 1031 1050 1031 1050 1031 605 c 0,13,14
 1031 543 1031 543 1022 472 c 1,15,-1
 285 472 l 1,16,17
 285 150 285 150 661 150 c 0,18,19
 840 150 840 150 979 190 c 1,20,-1
 979 40 l 1,21,22
 777 -126 777 -126 777 -228 c 0,23,24
 777 -296 777 -296 862 -296 c 256,25,26
 947 -296 947 -296 999 -276 c 1,27,-1
 999 -406 l 1,28,29
 938 -426 938 -426 850 -426 c 0,30,31
 619 -426 619 -426 619 -253 c 0,32,33
 619 -130 619 -130 774 14 c 1,5,6
EndSplineSet
EndChar

StartChar: dcaron
Encoding: 271 271 266
Width: 1190
GlyphClass: 2
Flags: W
LayerCount: 2
Fore
SplineSet
855 836 m 1,0,1
 743 890 743 890 599 890 c 0,2,3
 282 890 282 890 282 553 c 0,4,5
 282 154 282 154 599 154 c 0,6,7
 743 154 743 154 855 193 c 1,8,-1
 855 836 l 1,0,1
1040 63 m 1,9,10
 849 0 849 0 569 0 c 0,11,12
 100 0 100 0 100 546 c 0,13,14
 100 1050 100 1050 598 1050 c 0,15,16
 734 1050 734 1050 855 1000 c 1,17,-1
 855 1430 l 1,18,-1
 1040 1430 l 1,19,-1
 1040 63 l 1,9,10
1475 1430 m 1,20,-1
 1325 995 l 1,21,-1
 1140 995 l 1,22,-1
 1290 1430 l 1,23,-1
 1475 1430 l 1,20,-1
EndSplineSet
EndChar

StartChar: tcaron
Encoding: 357 357 274
Width: 675
GlyphClass: 2
Flags: W
LayerCount: 2
Fore
SplineSet
150 1220 m 1,0,-1
 266 1220 l 1,1,-1
 306 1050 l 1,2,-1
 590 1050 l 1,3,-1
 590 900 l 1,4,-1
 335 900 l 1,5,-1
 335 297 l 2,6,7
 335 150 335 150 462 150 c 2,8,-1
 590 150 l 1,9,-1
 590 0 l 1,10,-1
 414 0 l 2,11,12
 150 0 150 0 150 283 c 2,13,-1
 150 1220 l 1,0,-1
975 1430 m 1,14,-1
 825 995 l 1,15,-1
 640 995 l 1,16,-1
 790 1430 l 1,17,-1
 975 1430 l 1,14,-1
EndSplineSet
EndChar

StartChar: dcroat
Encoding: 273 273 286
Width: 1190
GlyphClass: 2
Flags: W
LayerCount: 2
Fore
SplineSet
855 836 m 1,0,1
 743 890 743 890 599 890 c 0,2,3
 282 890 282 890 282 553 c 0,4,5
 282 154 282 154 599 154 c 0,6,7
 743 154 743 154 855 193 c 1,8,-1
 855 836 l 1,0,1
1040 63 m 1,9,10
 849 0 849 0 569 0 c 0,11,12
 100 0 100 0 100 546 c 0,13,14
 100 1050 100 1050 598 1050 c 0,15,16
 734 1050 734 1050 855 1000 c 1,17,-1
 855 1140 l 1,18,-1
 120 1140 l 1,19,-1
 120 1290 l 1,20,-1
 855 1290 l 1,21,-1
 855 1430 l 1,22,-1
 1040 1430 l 1,23,-1
 1040 63 l 1,9,10
EndSplineSet
EndChar

StartChar: gcommaaccent
Encoding: 291 291 300
Width: 1187
GlyphClass: 2
Flags: W
LayerCount: 2
Fore
SplineSet
852 872 m 1,0,1
 757 896 757 896 617 896 c 0,2,3
 282 896 282 896 282 533 c 0,4,5
 282 160 282 160 599 160 c 0,6,7
 743 160 743 160 852 214 c 1,8,-1
 852 872 l 1,0,1
1037 0 m 2,9,10
 1037 -380 1037 -380 554 -380 c 0,11,12
 360 -380 360 -380 210 -330 c 1,13,-1
 210 -180 l 1,14,15
 363 -230 363 -230 556 -230 c 0,16,17
 852 -230 852 -230 852 0 c 2,18,-1
 852 50 l 1,19,20
 734 0 734 0 598 0 c 0,21,22
 100 0 100 0 100 531 c 0,23,24
 100 1050 100 1050 625 1050 c 0,25,26
 838 1050 838 1050 1037 1007 c 1,27,-1
 1037 0 l 2,9,10
807 1430 m 1,28,-1
 657 1150 l 1,29,-1
 472 1150 l 1,30,-1
 622 1430 l 1,31,-1
 807 1430 l 1,28,-1
EndSplineSet
Substitution2: "'ss01' Style Set 1 in Latin lookup 2 subtable" gcomma.alt
EndChar

StartChar: Hbar
Encoding: 294 294 303
Width: 1555
GlyphClass: 2
Flags: W
LayerCount: 2
Fore
SplineSet
1200 1200 m 1,0,-1
 1200 1430 l 1,1,-1
 1385 1430 l 1,2,-1
 1385 0 l 1,3,-1
 1200 0 l 1,4,-1
 1200 650 l 1,5,-1
 355 650 l 1,6,-1
 355 0 l 1,7,-1
 170 0 l 1,8,-1
 170 1430 l 1,9,-1
 355 1430 l 1,10,-1
 355 1200 l 1,11,-1
 1200 1200 l 1,0,-1
355 1050 m 1,12,-1
 355 800 l 1,13,-1
 1200 800 l 1,14,-1
 1200 1050 l 1,15,-1
 355 1050 l 1,12,-1
EndSplineSet
EndChar

StartChar: hbar
Encoding: 295 295 304
Width: 1205
GlyphClass: 2
Flags: W
LayerCount: 2
Fore
SplineSet
335 1140 m 1,0,-1
 335 936 l 1,1,2
 469 1050 469 1050 662 1050 c 0,3,4
 1055 1050 1055 1050 1055 659 c 2,5,-1
 1055 0 l 1,6,-1
 870 0 l 1,7,-1
 870 662 l 2,8,9
 870 896 870 896 637 896 c 0,10,11
 478 896 478 896 335 763 c 1,12,-1
 335 0 l 1,13,-1
 150 0 l 1,14,-1
 150 1430 l 1,15,-1
 335 1430 l 1,16,-1
 335 1290 l 1,17,-1
 1055 1290 l 1,18,-1
 1055 1140 l 1,19,-1
 335 1140 l 1,0,-1
EndSplineSet
EndChar

StartChar: Iogonek
Encoding: 302 302 311
Width: 585
GlyphClass: 2
Flags: W
LayerCount: 2
Fore
SplineSet
200 0 m 1,0,-1
 200 1430 l 1,1,-1
 385 1430 l 1,2,-1
 385 0 l 1,3,4
 193 -126 193 -126 193 -228 c 0,5,6
 193 -296 193 -296 278 -296 c 256,7,8
 363 -296 363 -296 415 -276 c 1,9,-1
 415 -406 l 1,10,11
 354 -426 354 -426 266 -426 c 0,12,13
 35 -426 35 -426 35 -253 c 0,14,15
 35 -122 35 -122 200 0 c 1,0,-1
EndSplineSet
EndChar

StartChar: iogonek
Encoding: 303 303 312
Width: 525
GlyphClass: 2
Flags: W
LayerCount: 2
Fore
SplineSet
355 1430 m 1,0,-1
 355 1255 l 1,1,-1
 170 1255 l 1,2,-1
 170 1430 l 1,3,-1
 355 1430 l 1,0,-1
170 0 m 1,4,-1
 170 1050 l 1,5,-1
 355 1050 l 1,6,-1
 355 0 l 1,7,8
 163 -126 163 -126 163 -228 c 0,9,10
 163 -296 163 -296 248 -296 c 256,11,12
 333 -296 333 -296 385 -276 c 1,13,-1
 385 -406 l 1,14,15
 324 -426 324 -426 236 -426 c 0,16,17
 5 -426 5 -426 5 -253 c 0,18,19
 5 -122 5 -122 170 0 c 1,4,-1
EndSplineSet
EndChar

StartChar: jcircumflex
Encoding: 309 309 317
Width: 525
GlyphClass: 2
Flags: W
LayerCount: 2
Fore
SplineSet
355 1050 m 1,0,-1
 355 80 l 2,1,2
 355 -238 355 -238 200 -398 c 1,3,-1
 45 -293 l 1,4,5
 170 -158 170 -158 170 80 c 2,6,-1
 170 1050 l 1,7,-1
 355 1050 l 1,0,-1
185 1430 m 1,8,-1
 335 1430 l 1,9,-1
 510 1170 l 1,10,-1
 360 1170 l 1,11,-1
 260 1330 l 1,12,-1
 160 1170 l 1,13,-1
 10 1170 l 1,14,-1
 185 1430 l 1,8,-1
EndSplineSet
EndChar

StartChar: kgreenlandic
Encoding: 312 312 320
Width: 1082
GlyphClass: 2
Flags: W
LayerCount: 2
Fore
SplineSet
1076 1050 m 1,0,-1
 620 561 l 1,1,-1
 1082 0 l 1,2,-1
 845 0 l 1,3,-1
 451 505 l 1,4,-1
 451 608 l 1,5,-1
 848 1050 l 1,6,-1
 1076 1050 l 1,0,-1
150 0 m 1,7,-1
 150 1050 l 1,8,-1
 335 1050 l 1,9,-1
 335 0 l 1,10,-1
 150 0 l 1,7,-1
EndSplineSet
EndChar

StartChar: Lcaron
Encoding: 317 317 325
Width: 1153
GlyphClass: 2
Flags: W
LayerCount: 2
Fore
SplineSet
355 1430 m 1,0,-1
 355 150 l 1,1,-1
 1103 150 l 1,2,-1
 1103 0 l 1,3,-1
 170 0 l 1,4,-1
 170 1430 l 1,5,-1
 355 1430 l 1,0,-1
880 1430 m 1,6,-1
 730 995 l 1,7,-1
 545 995 l 1,8,-1
 695 1430 l 1,9,-1
 880 1430 l 1,6,-1
EndSplineSet
EndChar

StartChar: lcaron
Encoding: 318 318 326
Width: 505
GlyphClass: 2
Flags: W
LayerCount: 2
Fore
SplineSet
345 1430 m 1,0,-1
 345 0 l 1,1,-1
 160 0 l 1,2,-1
 160 1430 l 1,3,-1
 345 1430 l 1,0,-1
780 1430 m 1,4,-1
 630 995 l 1,5,-1
 445 995 l 1,6,-1
 595 1430 l 1,7,-1
 780 1430 l 1,4,-1
EndSplineSet
EndChar

StartChar: napostrophe
Encoding: 329 329 331
Width: 1305
GlyphClass: 2
Flags: W
LayerCount: 2
Fore
SplineSet
250 0 m 1,0,-1
 250 1050 l 1,1,-1
 375 1050 l 1,2,-1
 408 916 l 1,3,4
 569 1050 569 1050 762 1050 c 0,5,6
 1155 1050 1155 1050 1155 659 c 2,7,-1
 1155 0 l 1,8,-1
 970 0 l 1,9,-1
 970 662 l 2,10,11
 970 896 970 896 737 896 c 0,12,13
 578 896 578 896 435 763 c 1,14,-1
 435 0 l 1,15,-1
 250 0 l 1,0,-1
185 1430 m 1,16,-1
 35 995 l 1,17,-1
 -150 995 l 1,18,-1
 0 1430 l 1,19,-1
 185 1430 l 1,16,-1
EndSplineSet
EndChar

StartChar: Eng
Encoding: 330 330 332
Width: 1575
GlyphClass: 2
Flags: W
LayerCount: 2
Fore
SplineSet
1217 4 m 1,0,-1
 345 1162 l 1,1,-1
 345 0 l 1,2,-1
 170 0 l 1,3,-1
 170 1430 l 1,4,-1
 355 1430 l 1,5,-1
 1230 278 l 1,6,-1
 1230 1430 l 1,7,-1
 1405 1430 l 1,8,-1
 1405 80 l 2,9,10
 1405 -238 1405 -238 1250 -398 c 1,11,-1
 1095 -293 l 1,12,13
 1199 -180 1199 -180 1217 4 c 1,0,-1
EndSplineSet
EndChar

StartChar: eng
Encoding: 331 331 333
Width: 1205
GlyphClass: 2
Flags: W
LayerCount: 2
Fore
SplineSet
870 662 m 2,0,1
 870 896 870 896 637 896 c 0,2,3
 478 896 478 896 335 763 c 1,4,-1
 335 0 l 1,5,-1
 150 0 l 1,6,-1
 150 1050 l 1,7,-1
 275 1050 l 1,8,-1
 308 916 l 1,9,10
 469 1050 469 1050 662 1050 c 0,11,12
 1055 1050 1055 1050 1055 659 c 2,13,-1
 1055 80 l 2,14,15
 1055 -238 1055 -238 900 -398 c 1,16,-1
 745 -293 l 1,17,18
 870 -158 870 -158 870 80 c 2,19,-1
 870 662 l 2,0,1
EndSplineSet
EndChar

StartChar: Scedilla
Encoding: 350 350 346
Width: 1290
GlyphClass: 2
Flags: W
LayerCount: 2
Fore
SplineSet
495 -5 m 1,0,1
 313 6 313 6 150 50 c 1,2,-1
 150 220 l 1,3,4
 375 140 375 140 636 140 c 0,5,6
 1005 140 1005 140 1005 410 c 0,7,8
 1005 640 1005 640 733 640 c 2,9,-1
 549 640 l 2,10,11
 100 640 100 640 100 1030 c 0,12,13
 100 1440 100 1440 675 1440 c 0,14,15
 925 1440 925 1440 1140 1380 c 1,16,-1
 1140 1210 l 1,17,18
 925 1290 925 1290 675 1290 c 0,19,20
 285 1290 285 1290 285 1030 c 0,21,22
 285 800 285 800 549 800 c 2,23,-1
 733 800 l 2,24,25
 1190 800 1190 800 1190 410 c 0,26,27
 1190 -10 1190 -10 636 -10 c 2,28,-1
 626 -10 l 1,29,-1
 590 -77 l 1,30,31
 804 -77 804 -77 804 -249 c 0,32,33
 804 -422 804 -422 563 -422 c 0,34,35
 455 -422 455 -422 347 -372 c 1,36,-1
 347 -264 l 1,37,38
 455 -314 455 -314 563 -314 c 256,39,40
 671 -314 671 -314 671 -249 c 0,41,42
 671 -185 671 -185 588 -185 c 2,43,-1
 405 -185 l 1,44,-1
 495 -5 l 1,0,1
EndSplineSet
EndChar

StartChar: scedilla
Encoding: 351 351 347
Width: 1050
GlyphClass: 2
Flags: W
LayerCount: 2
Fore
SplineSet
420 3 m 1,0,1
 279 12 279 12 140 50 c 1,2,-1
 140 210 l 1,3,4
 325 150 325 150 514 150 c 0,5,6
 765 150 765 150 765 300 c 0,7,8
 765 440 765 440 590 440 c 2,9,-1
 440 440 l 2,10,11
 100 440 100 440 100 750 c 0,12,13
 100 1050 100 1050 537 1050 c 0,14,15
 725 1050 725 1050 910 1000 c 1,16,-1
 910 840 l 1,17,18
 725 900 725 900 537 900 c 0,19,20
 275 900 275 900 275 750 c 0,21,22
 275 610 275 610 440 610 c 2,23,-1
 590 610 l 2,24,25
 950 610 950 610 950 300 c 0,26,27
 950 13 950 13 551 1 c 1,28,-1
 510 -77 l 1,29,30
 724 -77 724 -77 724 -249 c 0,31,32
 724 -422 724 -422 483 -422 c 0,33,34
 375 -422 375 -422 267 -372 c 1,35,-1
 267 -264 l 1,36,37
 375 -314 375 -314 483 -314 c 256,38,39
 591 -314 591 -314 591 -249 c 0,40,41
 591 -185 591 -185 508 -185 c 2,42,-1
 325 -185 l 1,43,-1
 420 3 l 1,0,1
EndSplineSet
EndChar

StartChar: Tbar
Encoding: 358 358 352
Width: 1185
GlyphClass: 2
Flags: W
LayerCount: 2
Fore
SplineSet
500 790 m 1,0,-1
 500 1280 l 1,1,-1
 50 1280 l 1,2,-1
 50 1430 l 1,3,-1
 1135 1430 l 1,4,-1
 1135 1280 l 1,5,-1
 685 1280 l 1,6,-1
 685 790 l 1,7,-1
 1135 790 l 1,8,-1
 1135 640 l 1,9,-1
 685 640 l 1,10,-1
 685 0 l 1,11,-1
 500 0 l 1,12,-1
 500 640 l 1,13,-1
 50 640 l 1,14,-1
 50 790 l 1,15,-1
 500 790 l 1,0,-1
EndSplineSet
EndChar

StartChar: tbar
Encoding: 359 359 353
Width: 675
GlyphClass: 2
Flags: W
LayerCount: 2
Fore
SplineSet
150 633 m 1,0,-1
 150 1220 l 1,1,-1
 266 1220 l 1,2,-1
 306 1050 l 1,3,-1
 590 1050 l 1,4,-1
 590 900 l 1,5,-1
 335 900 l 1,6,-1
 335 633 l 1,7,-1
 590 633 l 1,8,-1
 590 483 l 1,9,-1
 335 483 l 1,10,-1
 335 297 l 2,11,12
 335 150 335 150 462 150 c 2,13,-1
 590 150 l 1,14,-1
 590 0 l 1,15,-1
 414 0 l 2,16,17
 150 0 150 0 150 283 c 2,18,-1
 150 483 l 1,19,-1
 0 483 l 1,20,-1
 0 633 l 1,21,-1
 150 633 l 1,0,-1
EndSplineSet
EndChar

StartChar: Uogonek
Encoding: 370 370 362
Width: 1510
GlyphClass: 2
Flags: W
LayerCount: 2
Fore
SplineSet
705 -9 m 1,0,1
 160 14 160 14 160 552 c 2,2,-1
 160 1430 l 1,3,-1
 345 1430 l 1,4,-1
 345 552 l 2,5,6
 345 140 345 140 755 140 c 256,7,8
 1165 140 1165 140 1165 552 c 2,9,-1
 1165 1430 l 1,10,-1
 1350 1430 l 1,11,-1
 1350 552 l 2,12,13
 1350 65 1350 65 903 0 c 1,14,15
 710 -126 710 -126 710 -228 c 0,16,17
 710 -296 710 -296 795 -296 c 256,18,19
 880 -296 880 -296 932 -276 c 1,20,-1
 932 -406 l 1,21,22
 871 -426 871 -426 783 -426 c 0,23,24
 552 -426 552 -426 552 -253 c 0,25,26
 552 -127 552 -127 705 -9 c 1,0,1
EndSplineSet
EndChar

StartChar: uogonek
Encoding: 371 371 363
Width: 1205
GlyphClass: 2
Flags: W
LayerCount: 2
Fore
SplineSet
870 0 m 1,0,-1
 870 134 l 1,1,2
 705 0 705 0 512 0 c 0,3,4
 150 0 150 0 150 391 c 2,5,-1
 150 1050 l 1,6,-1
 335 1050 l 1,7,-1
 335 388 l 2,8,9
 335 154 335 154 567 154 c 0,10,11
 726 154 726 154 870 287 c 1,12,-1
 870 1050 l 1,13,-1
 1055 1050 l 1,14,-1
 1055 0 l 1,15,16
 853 -126 853 -126 853 -228 c 0,17,18
 853 -296 853 -296 938 -296 c 256,19,20
 1023 -296 1023 -296 1075 -276 c 1,21,-1
 1075 -406 l 1,22,23
 1014 -426 1014 -426 926 -426 c 0,24,25
 695 -426 695 -426 695 -253 c 0,26,27
 695 -122 695 -122 870 0 c 1,0,-1
EndSplineSet
EndChar

StartChar: longs
Encoding: 383 383 368
Width: 506
GlyphClass: 2
Flags: W
LayerCount: 2
Fore
SplineSet
150 0 m 1,0,-1
 150 1101 l 2,1,2
 150 1482 150 1482 562 1482 c 0,3,4
 691 1482 691 1482 806 1442 c 1,5,-1
 806 1292 l 1,6,7
 697 1332 697 1332 561 1332 c 0,8,9
 335 1332 335 1332 335 1109 c 2,10,-1
 335 0 l 1,11,-1
 150 0 l 1,0,-1
EndSplineSet
EndChar

StartChar: afii10018
Encoding: 1041 1041 371
Width: 1311
GlyphClass: 2
Flags: W
LayerCount: 2
Fore
SplineSet
1171 1430 m 1,0,-1
 1171 1280 l 1,1,-1
 356 1280 l 1,2,-1
 356 153 l 1,3,-1
 763 153 l 2,4,5
 1001 153 1001 153 1001 402 c 0,6,7
 1001 670 1001 670 709 670 c 2,8,-1
 521 670 l 1,9,-1
 521 820 l 1,10,-1
 718 820 l 2,11,12
 1186 820 1186 820 1186 413 c 0,13,14
 1186 0 1186 0 780 0 c 2,15,-1
 170 0 l 1,16,-1
 170 1430 l 1,17,-1
 1171 1430 l 1,0,-1
EndSplineSet
EndChar

StartChar: afii10020
Encoding: 1043 1043 373
Width: 1103
GlyphClass: 2
Flags: W
LayerCount: 2
Fore
SplineSet
170 0 m 1,0,-1
 170 1430 l 1,1,-1
 1103 1430 l 1,2,-1
 1103 1280 l 1,3,-1
 355 1280 l 1,4,-1
 355 0 l 1,5,-1
 170 0 l 1,0,-1
EndSplineSet
EndChar

StartChar: afii10021
Encoding: 1044 1044 374
Width: 1699
GlyphClass: 2
Flags: W
LayerCount: 2
Fore
SplineSet
498 150 m 1,0,-1
 1254 150 l 1,1,-1
 1254 1280 l 1,2,-1
 784 1280 l 1,3,4
 784 341 784 341 498 150 c 1,0,-1
0 -380 m 1,5,-1
 0 150 l 1,6,-1
 184 150 l 2,7,8
 599 150 599 150 599 1280 c 2,9,-1
 599 1430 l 1,10,-1
 1439 1430 l 1,11,-1
 1439 150 l 1,12,-1
 1624 150 l 1,13,-1
 1624 -380 l 1,14,-1
 1439 -380 l 1,15,-1
 1439 0 l 1,16,-1
 184 0 l 1,17,-1
 184 -380 l 1,18,-1
 0 -380 l 1,5,-1
EndSplineSet
EndChar

StartChar: afii10024
Encoding: 1046 1046 376
Width: 2109
GlyphClass: 2
Flags: W
LayerCount: 2
Fore
SplineSet
1860 0 m 1,0,1
 1521 540 1521 540 1433 616.5 c 128,-1,2
 1345 693 1345 693 1267 693 c 1,3,-1
 1267 826 l 1,4,5
 1427 826 1427 826 1590.5 1128 c 128,-1,6
 1754 1430 1754 1430 1942 1430 c 2,7,-1
 2049 1430 l 1,8,-1
 2049 1270 l 1,9,-1
 1970 1270 l 2,10,11
 1862 1270 1862 1270 1728 1033.5 c 128,-1,12
 1594 797 1594 797 1479 758 c 1,13,14
 1554 745 1554 745 1644 645.5 c 128,-1,15
 1734 546 1734 546 2084 0 c 1,16,-1
 1860 0 l 1,0,1
1147 1430 m 1,17,-1
 1147 0 l 1,18,-1
 962 0 l 1,19,-1
 962 1430 l 1,20,-1
 1147 1430 l 1,17,-1
25 0 m 1,21,22
 375 546 375 546 465 645.5 c 128,-1,23
 555 745 555 745 630 758 c 1,24,25
 515 797 515 797 381 1033.5 c 128,-1,26
 247 1270 247 1270 139 1270 c 2,27,-1
 60 1270 l 1,28,-1
 60 1430 l 1,29,-1
 167 1430 l 2,30,31
 355 1430 355 1430 518.5 1128 c 128,-1,32
 682 826 682 826 842 826 c 1,33,-1
 842 693 l 1,34,35
 764 693 764 693 676 616.5 c 128,-1,36
 588 540 588 540 249 0 c 1,37,-1
 25 0 l 1,21,22
EndSplineSet
EndChar

StartChar: afii10025
Encoding: 1047 1047 377
Width: 1115
GlyphClass: 2
Flags: W
LayerCount: 2
Fore
SplineSet
100 1380 m 1,0,1
 300 1440 300 1440 500 1440 c 0,2,3
 1015 1440 1015 1440 1015 1050 c 0,4,5
 1015 814 1015 814 827 725 c 1,6,7
 1015 640 1015 640 1015 400 c 0,8,9
 1015 -10 1015 -10 500 -10 c 0,10,11
 300 -10 300 -10 100 50 c 1,12,-1
 100 210 l 1,13,14
 300 140 300 140 500 140 c 0,15,16
 830 140 830 140 830 400 c 0,17,18
 830 650 830 650 578 650 c 2,19,-1
 250 650 l 1,20,-1
 250 800 l 1,21,-1
 575 800 l 2,22,23
 830 800 830 800 830 1050 c 0,24,25
 830 1290 830 1290 500 1290 c 0,26,27
 300 1290 300 1290 100 1220 c 1,28,-1
 100 1380 l 1,0,1
EndSplineSet
EndChar

StartChar: afii10026
Encoding: 1048 1048 378
Width: 1525
GlyphClass: 2
Flags: W
LayerCount: 2
Fore
SplineSet
1180 0 m 1,0,-1
 1180 1182 l 1,1,-1
 355 0 l 1,2,-1
 170 0 l 1,3,-1
 170 1430 l 1,4,-1
 345 1430 l 1,5,-1
 345 248 l 1,6,-1
 1170 1430 l 1,7,-1
 1355 1430 l 1,8,-1
 1355 0 l 1,9,-1
 1180 0 l 1,0,-1
EndSplineSet
EndChar

StartChar: afii10027
Encoding: 1049 1049 379
Width: 1525
GlyphClass: 2
Flags: W
LayerCount: 2
Fore
SplineSet
1180 0 m 1,0,-1
 1180 1182 l 1,1,-1
 355 0 l 1,2,-1
 170 0 l 1,3,-1
 170 1430 l 1,4,-1
 345 1430 l 1,5,-1
 345 248 l 1,6,-1
 1170 1430 l 1,7,-1
 1355 1430 l 1,8,-1
 1355 0 l 1,9,-1
 1180 0 l 1,0,-1
490 1784 m 1,10,-1
 625 1784 l 1,11,12
 625 1624 625 1624 765 1624 c 256,13,14
 905 1624 905 1624 905 1784 c 1,15,-1
 1040 1784 l 1,16,17
 1040 1514 1040 1514 765 1514 c 256,18,19
 490 1514 490 1514 490 1784 c 1,10,-1
EndSplineSet
EndChar

StartChar: afii10028
Encoding: 1050 1050 380
Width: 1317
GlyphClass: 2
Flags: W
LayerCount: 2
Fore
SplineSet
1068 0 m 1,0,1
 729 540 729 540 641 616.5 c 128,-1,2
 553 693 553 693 475 693 c 1,3,-1
 475 826 l 1,4,5
 635 826 635 826 798.5 1128 c 128,-1,6
 962 1430 962 1430 1150 1430 c 2,7,-1
 1257 1430 l 1,8,-1
 1257 1270 l 1,9,-1
 1178 1270 l 2,10,11
 1070 1270 1070 1270 936 1033.5 c 128,-1,12
 802 797 802 797 687 758 c 1,13,14
 762 745 762 745 852 645.5 c 128,-1,15
 942 546 942 546 1292 0 c 1,16,-1
 1068 0 l 1,0,1
355 1430 m 1,17,-1
 355 0 l 1,18,-1
 170 0 l 1,19,-1
 170 1430 l 1,20,-1
 355 1430 l 1,17,-1
EndSplineSet
EndChar

StartChar: afii10029
Encoding: 1051 1051 381
Width: 1524
GlyphClass: 2
Flags: W
LayerCount: 2
Fore
SplineSet
0 150 m 1,0,1
 414 150 414 150 414 800 c 2,2,-1
 414 1430 l 1,3,-1
 1354 1430 l 1,4,-1
 1354 0 l 1,5,-1
 1169 0 l 1,6,-1
 1169 1280 l 1,7,-1
 599 1280 l 1,8,-1
 599 800 l 2,9,10
 599 0 599 0 0 0 c 1,11,-1
 0 150 l 1,0,1
EndSplineSet
EndChar

StartChar: afii10031
Encoding: 1053 1053 383
Width: 1525
GlyphClass: 2
Flags: W
LayerCount: 2
Fore
SplineSet
170 0 m 1,0,-1
 170 1430 l 1,1,-1
 355 1430 l 1,2,-1
 355 810 l 1,3,-1
 1170 810 l 1,4,-1
 1170 1430 l 1,5,-1
 1355 1430 l 1,6,-1
 1355 0 l 1,7,-1
 1170 0 l 1,8,-1
 1170 660 l 1,9,-1
 355 660 l 1,10,-1
 355 0 l 1,11,-1
 170 0 l 1,0,-1
EndSplineSet
EndChar

StartChar: afii10033
Encoding: 1055 1055 385
Width: 1525
GlyphClass: 2
Flags: W
LayerCount: 2
Fore
SplineSet
170 0 m 1,0,-1
 170 1430 l 1,1,-1
 1355 1430 l 1,2,-1
 1355 0 l 1,3,-1
 1170 0 l 1,4,-1
 1170 1280 l 1,5,-1
 355 1280 l 1,6,-1
 355 0 l 1,7,-1
 170 0 l 1,0,-1
EndSplineSet
EndChar

StartChar: afii10037
Encoding: 1059 1059 389
Width: 1307
GlyphClass: 2
Flags: W
LayerCount: 2
Fore
SplineSet
1282 1430 m 1,0,-1
 789 268 l 2,1,2
 675 0 675 0 400 0 c 0,3,4
 272 0 272 0 164 70 c 1,5,-1
 164 220 l 1,6,7
 270 150 270 150 397 150 c 0,8,9
 551 150 551 150 614 271 c 1,10,-1
 50 1430 l 1,11,-1
 245 1430 l 1,12,-1
 708 449 l 1,13,-1
 1090 1430 l 1,14,-1
 1282 1430 l 1,0,-1
EndSplineSet
EndChar

StartChar: afii10038
Encoding: 1060 1060 390
Width: 1724
GlyphClass: 2
Flags: W
LayerCount: 2
Fore
SplineSet
770 113 m 1,0,1
 100 150 100 150 100 713 c 0,2,3
 100 1280 100 1280 770 1317 c 1,4,-1
 770 1430 l 1,5,-1
 954 1430 l 1,6,-1
 954 1318 l 1,7,8
 1624 1284 1624 1284 1624 713 c 0,9,10
 1624 145 1624 145 954 112 c 1,11,-1
 954 0 l 1,12,-1
 770 0 l 1,13,-1
 770 113 l 1,0,1
770 264 m 1,14,-1
 770 1166 l 1,15,16
 294 1130 294 1130 294 719 c 0,17,18
 294 301 294 301 770 264 c 1,14,-1
954 1167 m 1,19,-1
 954 263 l 1,20,21
 1430 297 1430 297 1430 719 c 0,22,23
 1430 1134 1430 1134 954 1167 c 1,19,-1
EndSplineSet
EndChar

StartChar: afii10039
Encoding: 1061 1061 391
Width: 1400
GlyphClass: 2
Flags: W
LayerCount: 2
Fore
SplineSet
250 0 m 1,0,-1
 25 0 l 1,1,-1
 587 715 l 1,2,-1
 25 1430 l 1,3,-1
 250 1430 l 1,4,-1
 700 858 l 1,5,-1
 1150 1430 l 1,6,-1
 1375 1430 l 1,7,-1
 813 715 l 1,8,-1
 1375 0 l 1,9,-1
 1150 0 l 1,10,-1
 700 572 l 1,11,-1
 250 0 l 1,0,-1
EndSplineSet
EndChar

StartChar: afii10040
Encoding: 1062 1062 392
Width: 1567
GlyphClass: 2
Flags: W
LayerCount: 2
Fore
SplineSet
170 0 m 1,0,-1
 170 1430 l 1,1,-1
 355 1430 l 1,2,-1
 355 150 l 1,3,-1
 1097 150 l 1,4,-1
 1097 1430 l 1,5,-1
 1282 1430 l 1,6,-1
 1282 150 l 1,7,-1
 1467 150 l 1,8,-1
 1467 -380 l 1,9,-1
 1282 -380 l 1,10,-1
 1282 0 l 1,11,-1
 170 0 l 1,0,-1
EndSplineSet
EndChar

StartChar: afii10041
Encoding: 1063 1063 393
Width: 1408
GlyphClass: 2
Flags: W
LayerCount: 2
Fore
SplineSet
1238 1430 m 1,0,-1
 1238 0 l 1,1,-1
 1053 0 l 1,2,-1
 1053 634 l 1,3,4
 857 520 857 520 624 520 c 0,5,6
 125 520 125 520 125 1001 c 2,7,-1
 125 1430 l 1,8,-1
 310 1430 l 1,9,-1
 310 998 l 2,10,11
 310 674 310 674 649 674 c 0,12,13
 878 674 878 674 1053 807 c 1,14,-1
 1053 1430 l 1,15,-1
 1238 1430 l 1,0,-1
EndSplineSet
EndChar

StartChar: afii10042
Encoding: 1064 1064 394
Width: 1875
GlyphClass: 2
Flags: W
LayerCount: 2
Fore
SplineSet
170 0 m 1,0,-1
 170 1430 l 1,1,-1
 355 1430 l 1,2,-1
 355 150 l 1,3,-1
 845 150 l 1,4,-1
 845 1430 l 1,5,-1
 1030 1430 l 1,6,-1
 1030 150 l 1,7,-1
 1520 150 l 1,8,-1
 1520 1430 l 1,9,-1
 1705 1430 l 1,10,-1
 1705 0 l 1,11,-1
 170 0 l 1,0,-1
EndSplineSet
EndChar

StartChar: afii10043
Encoding: 1065 1065 395
Width: 1990
GlyphClass: 2
Flags: W
LayerCount: 2
Fore
SplineSet
170 0 m 1,0,-1
 170 1430 l 1,1,-1
 355 1430 l 1,2,-1
 355 150 l 1,3,-1
 845 150 l 1,4,-1
 845 1430 l 1,5,-1
 1030 1430 l 1,6,-1
 1030 150 l 1,7,-1
 1520 150 l 1,8,-1
 1520 1430 l 1,9,-1
 1705 1430 l 1,10,-1
 1705 150 l 1,11,-1
 1890 150 l 1,12,-1
 1890 -380 l 1,13,-1
 1705 -380 l 1,14,-1
 1705 0 l 1,15,-1
 170 0 l 1,0,-1
EndSplineSet
EndChar

StartChar: afii10044
Encoding: 1066 1066 396
Width: 1710
GlyphClass: 2
Flags: W
LayerCount: 2
Fore
SplineSet
767 1430 m 1,0,-1
 767 153 l 1,1,-1
 1175 153 l 2,2,3
 1413 153 1413 153 1413 402 c 0,4,5
 1413 670 1413 670 1121 670 c 2,6,-1
 933 670 l 1,7,-1
 933 820 l 1,8,-1
 1131 820 l 2,9,10
 1610 820 1610 820 1610 413 c 0,11,12
 1610 0 1610 0 1192 0 c 2,13,-1
 582 0 l 1,14,-1
 582 1280 l 1,15,-1
 0 1280 l 1,16,-1
 0 1430 l 1,17,-1
 767 1430 l 1,0,-1
EndSplineSet
EndChar

StartChar: afii10045
Encoding: 1067 1067 397
Width: 1755
GlyphClass: 2
Flags: W
LayerCount: 2
Fore
SplineSet
355 1430 m 1,0,-1
 355 153 l 1,1,-1
 763 153 l 2,2,3
 1001 153 1001 153 1001 402 c 0,4,5
 1001 670 1001 670 709 670 c 2,6,-1
 521 670 l 1,7,-1
 521 820 l 1,8,-1
 719 820 l 2,9,10
 1198 820 1198 820 1198 413 c 0,11,12
 1198 0 1198 0 780 0 c 2,13,-1
 170 0 l 1,14,-1
 170 1430 l 1,15,-1
 355 1430 l 1,0,-1
1400 0 m 1,16,-1
 1400 1430 l 1,17,-1
 1585 1430 l 1,18,-1
 1585 0 l 1,19,-1
 1400 0 l 1,16,-1
EndSplineSet
EndChar

StartChar: afii10046
Encoding: 1068 1068 398
Width: 1298
GlyphClass: 2
Flags: W
LayerCount: 2
Fore
SplineSet
355 1430 m 1,0,-1
 355 153 l 1,1,-1
 763 153 l 2,2,3
 1001 153 1001 153 1001 402 c 0,4,5
 1001 670 1001 670 709 670 c 2,6,-1
 521 670 l 1,7,-1
 521 820 l 1,8,-1
 718 820 l 2,9,10
 1198 820 1198 820 1198 413 c 0,11,12
 1198 0 1198 0 780 0 c 2,13,-1
 170 0 l 1,14,-1
 170 1430 l 1,15,-1
 355 1430 l 1,0,-1
EndSplineSet
EndChar

StartChar: afii10047
Encoding: 1069 1069 399
Width: 1375
GlyphClass: 2
Flags: W
LayerCount: 2
Fore
SplineSet
125 210 m 1,0,1
 310 140 310 140 505 140 c 0,2,3
 1047 140 1047 140 1087 650 c 1,4,-1
 197 650 l 1,5,-1
 197 800 l 1,6,-1
 1088 800 l 1,7,8
 1055 1290 1055 1290 505 1290 c 0,9,10
 310 1290 310 1290 125 1220 c 1,11,-1
 125 1380 l 1,12,13
 310 1440 310 1440 525 1440 c 0,14,15
 1275 1440 1275 1440 1275 735 c 0,16,17
 1275 -10 1275 -10 525 -10 c 0,18,19
 310 -10 310 -10 125 50 c 1,20,-1
 125 210 l 1,0,1
EndSplineSet
EndChar

StartChar: afii10048
Encoding: 1070 1070 400
Width: 2022
GlyphClass: 2
Flags: W
LayerCount: 2
Fore
SplineSet
170 0 m 1,0,-1
 170 1430 l 1,1,-1
 354 1430 l 1,2,-1
 354 800 l 1,3,-1
 759 800 l 1,4,5
 793 1440 793 1440 1345 1440 c 0,6,7
 1922 1440 1922 1440 1922 713 c 0,8,9
 1922 -10 1922 -10 1345 -10 c 0,10,11
 783 -10 783 -10 758 650 c 1,12,-1
 354 650 l 1,13,-1
 354 0 l 1,14,-1
 170 0 l 1,0,-1
1345 140 m 0,15,16
 1727 140 1727 140 1727 719 c 0,17,18
 1727 1290 1727 1290 1345 1290 c 0,19,20
 952 1290 952 1290 952 719 c 0,21,22
 952 140 952 140 1345 140 c 0,15,16
EndSplineSet
EndChar

StartChar: afii10049
Encoding: 1071 1071 401
Width: 1305
GlyphClass: 2
Flags: W
LayerCount: 2
Fore
SplineSet
950 0 m 1,0,-1
 950 1277 l 1,1,-1
 542 1277 l 2,2,3
 314 1277 314 1277 314 1079 c 0,4,5
 314 829 314 829 724 764 c 1,6,-1
 724 633 l 1,7,-1
 259 0 l 1,8,-1
 25 0 l 1,9,-1
 521 649 l 1,10,11
 117 788 117 788 117 1067 c 0,12,13
 117 1430 117 1430 545 1430 c 2,14,-1
 1135 1430 l 1,15,-1
 1135 0 l 1,16,-1
 950 0 l 1,0,-1
EndSplineSet
EndChar

StartChar: afii10066
Encoding: 1073 1073 403
Width: 1277
GlyphClass: 2
Flags: W
LayerCount: 2
Fore
SplineSet
1166 520 m 2,0,1
 1166 -10 1166 -10 648 -10 c 0,2,3
 125 -10 125 -10 125 520 c 2,4,-1
 125 845 l 2,5,6
 125 1430 125 1430 669 1430 c 0,7,8
 961 1430 961 1430 1132 1539 c 1,9,-1
 1132 1376 l 1,10,11
 979 1280 979 1280 666 1280 c 0,12,13
 315 1280 315 1280 315 855 c 1,14,15
 444 1050 444 1050 658 1050 c 0,16,17
 1166 1050 1166 1050 1166 542 c 2,18,-1
 1166 520 l 2,0,1
648 140 m 0,19,20
 980 140 980 140 980 520 c 0,21,22
 980 894 980 894 658 894 c 0,23,24
 315 894 315 894 315 520 c 0,25,26
 315 140 315 140 648 140 c 0,19,20
EndSplineSet
EndChar

StartChar: afii10067
Encoding: 1074 1074 404
Width: 1166
GlyphClass: 2
Flags: W
LayerCount: 2
Fore
SplineSet
708 150 m 2,0,1
 864 150 864 150 864 310 c 0,2,3
 864 460 864 460 621 460 c 2,4,-1
 541 460 l 1,5,-1
 541 581 l 1,6,7
 851 616 851 616 851 790 c 0,8,9
 851 900 851 900 723 900 c 2,10,-1
 335 900 l 1,11,-1
 335 150 l 1,12,-1
 708 150 l 2,0,1
150 0 m 1,13,-1
 150 1050 l 1,14,-1
 740 1050 l 2,15,16
 1048 1050 1048 1050 1048 787 c 0,17,18
 1048 624 1048 624 852 545 c 1,19,20
 1066 492 1066 492 1066 313 c 0,21,22
 1066 0 1066 0 719 0 c 2,23,-1
 150 0 l 1,13,-1
EndSplineSet
EndChar

StartChar: afii10068
Encoding: 1075 1075 405
Width: 848
GlyphClass: 2
Flags: W
LayerCount: 2
Fore
SplineSet
150 0 m 1,0,-1
 150 1050 l 1,1,-1
 848 1050 l 1,2,-1
 848 900 l 1,3,-1
 335 900 l 1,4,-1
 335 0 l 1,5,-1
 150 0 l 1,0,-1
EndSplineSet
EndChar

StartChar: afii10069
Encoding: 1076 1076 406
Width: 1428
GlyphClass: 2
Flags: W
LayerCount: 2
Fore
SplineSet
454 150 m 1,0,-1
 983 150 l 1,1,-1
 983 900 l 1,2,-1
 613 900 l 1,3,4
 613 341 613 341 454 150 c 1,0,-1
0 -380 m 1,5,-1
 0 150 l 1,6,-1
 184 150 l 2,7,8
 428 150 428 150 428 900 c 2,9,-1
 428 1050 l 1,10,-1
 1168 1050 l 1,11,-1
 1168 150 l 1,12,-1
 1353 150 l 1,13,-1
 1353 -380 l 1,14,-1
 1168 -380 l 1,15,-1
 1168 0 l 1,16,-1
 184 0 l 1,17,-1
 184 -380 l 1,18,-1
 0 -380 l 1,5,-1
EndSplineSet
EndChar

StartChar: afii10072
Encoding: 1078 1078 408
Width: 1720
GlyphClass: 2
Flags: W
LayerCount: 2
Fore
SplineSet
1481 0 m 1,0,-1
 1334 246 l 2,1,2
 1186 493 1186 493 1048 493 c 1,3,-1
 1048 616 l 1,4,5
 1208 616 1208 616 1286.5 835.5 c 128,-1,6
 1365 1055 1365 1055 1553 1055 c 2,7,-1
 1660 1055 l 1,8,-1
 1660 889 l 1,9,-1
 1581 889 l 2,10,11
 1473 889 1473 889 1422 743 c 128,-1,12
 1371 597 1371 597 1246 548 c 1,13,14
 1364 527 1364 527 1529 264 c 2,15,-1
 1695 0 l 1,16,-1
 1481 0 l 1,0,-1
951 1057 m 1,17,-1
 951 0 l 1,18,-1
 766 0 l 1,19,-1
 766 1057 l 1,20,-1
 951 1057 l 1,17,-1
25 0 m 1,21,-1
 191 264 l 2,22,23
 356 527 356 527 474 548 c 1,24,25
 349 597 349 597 298 743 c 128,-1,26
 247 889 247 889 139 889 c 2,27,-1
 60 889 l 1,28,-1
 60 1055 l 1,29,-1
 167 1055 l 2,30,31
 355 1055 355 1055 433.5 835.5 c 128,-1,32
 512 616 512 616 672 616 c 1,33,-1
 672 493 l 1,34,35
 534 493 534 493 386 246 c 2,36,-1
 239 0 l 1,37,-1
 25 0 l 1,21,-1
EndSplineSet
EndChar

StartChar: afii10073
Encoding: 1079 1079 409
Width: 965
GlyphClass: 2
Flags: W
LayerCount: 2
Fore
SplineSet
100 1000 m 1,0,1
 300 1060 300 1060 450 1060 c 0,2,3
 865 1060 865 1060 865 768 c 0,4,5
 865 614 865 614 727 535 c 1,6,7
 865 460 865 460 865 310 c 0,8,9
 865 -10 865 -10 450 -10 c 0,10,11
 300 -10 300 -10 100 50 c 1,12,-1
 100 210 l 1,13,14
 300 140 300 140 450 140 c 0,15,16
 680 140 680 140 680 310 c 0,17,18
 680 460 680 460 528 460 c 2,19,-1
 200 460 l 1,20,-1
 200 610 l 1,21,-1
 525 610 l 2,22,23
 680 610 680 610 680 768 c 0,24,25
 680 910 680 910 450 910 c 0,26,27
 300 910 300 910 100 840 c 1,28,-1
 100 1000 l 1,0,1
EndSplineSet
EndChar

StartChar: afii10074
Encoding: 1080 1080 410
Width: 1225
GlyphClass: 2
Flags: W
LayerCount: 2
Fore
SplineSet
900 0 m 1,0,-1
 900 812 l 1,1,-1
 335 0 l 1,2,-1
 150 0 l 1,3,-1
 150 1050 l 1,4,-1
 325 1050 l 1,5,-1
 325 238 l 1,6,-1
 890 1050 l 1,7,-1
 1075 1050 l 1,8,-1
 1075 0 l 1,9,-1
 900 0 l 1,0,-1
EndSplineSet
EndChar

StartChar: afii10076
Encoding: 1082 1082 412
Width: 1104
GlyphClass: 2
Flags: W
LayerCount: 2
Fore
SplineSet
865 0 m 1,0,-1
 718 246 l 2,1,2
 570 493 570 493 432 493 c 1,3,-1
 432 616 l 1,4,5
 592 616 592 616 670.5 833 c 128,-1,6
 749 1050 749 1050 937 1050 c 2,7,-1
 1044 1050 l 1,8,-1
 1044 890 l 1,9,-1
 965 890 l 2,10,11
 857 890 857 890 806 743.5 c 128,-1,12
 755 597 755 597 630 548 c 1,13,14
 748 527 748 527 913 264 c 2,15,-1
 1079 0 l 1,16,-1
 865 0 l 1,0,-1
335 1050 m 1,17,-1
 335 0 l 1,18,-1
 150 0 l 1,19,-1
 150 1050 l 1,20,-1
 335 1050 l 1,17,-1
EndSplineSet
EndChar

StartChar: afii10077
Encoding: 1083 1083 413
Width: 1187
GlyphClass: 2
Flags: W
LayerCount: 2
Fore
SplineSet
0 150 m 1,0,1
 237 150 237 150 237 420 c 2,2,-1
 237 1050 l 1,3,-1
 1037 1050 l 1,4,-1
 1037 0 l 1,5,-1
 852 0 l 1,6,-1
 852 900 l 1,7,-1
 422 900 l 1,8,-1
 422 420 l 2,9,10
 422 0 422 0 0 0 c 1,11,-1
 0 150 l 1,0,1
EndSplineSet
EndChar

StartChar: afii10078
Encoding: 1084 1084 414
Width: 1460
GlyphClass: 2
Flags: W
LayerCount: 2
Fore
SplineSet
150 0 m 1,0,-1
 150 1050 l 1,1,-1
 385 1050 l 1,2,-1
 740 217 l 1,3,-1
 1085 1050 l 1,4,-1
 1310 1050 l 1,5,-1
 1310 0 l 1,6,-1
 1145 0 l 1,7,-1
 1145 803 l 1,8,-1
 807 0 l 1,9,-1
 661 0 l 1,10,-1
 315 803 l 1,11,-1
 315 0 l 1,12,-1
 150 0 l 1,0,-1
EndSplineSet
EndChar

StartChar: afii10079
Encoding: 1085 1085 415
Width: 1225
GlyphClass: 2
Flags: W
LayerCount: 2
Fore
SplineSet
150 0 m 1,0,-1
 150 1050 l 1,1,-1
 335 1050 l 1,2,-1
 335 610 l 1,3,-1
 890 610 l 1,4,-1
 890 1050 l 1,5,-1
 1075 1050 l 1,6,-1
 1075 0 l 1,7,-1
 890 0 l 1,8,-1
 890 460 l 1,9,-1
 335 460 l 1,10,-1
 335 0 l 1,11,-1
 150 0 l 1,0,-1
EndSplineSet
EndChar

StartChar: afii10080
Encoding: 1086 1086 416
Width: 1240
GlyphClass: 2
Flags: W
LayerCount: 2
Fore
SplineSet
100 525 m 0,0,1
 100 1060 100 1060 620 1060 c 256,2,3
 1140 1060 1140 1060 1140 525 c 256,4,5
 1140 -10 1140 -10 620 -10 c 0,6,7
 102 -10 102 -10 100 525 c 0,0,1
620 140 m 256,9,10
 955 140 955 140 955 529 c 0,11,12
 955 910 955 910 620 910 c 256,13,14
 285 910 285 910 285 529 c 0,15,8
 285 140 285 140 620 140 c 256,9,10
EndSplineSet
EndChar

StartChar: afii10081
Encoding: 1087 1087 417
Width: 1225
GlyphClass: 2
Flags: W
LayerCount: 2
Fore
SplineSet
150 0 m 1,0,-1
 150 1050 l 1,1,-1
 1075 1050 l 1,2,-1
 1075 0 l 1,3,-1
 890 0 l 1,4,-1
 890 900 l 1,5,-1
 335 900 l 1,6,-1
 335 0 l 1,7,-1
 150 0 l 1,0,-1
EndSplineSet
EndChar

StartChar: afii10082
Encoding: 1088 1088 418
Width: 1217
GlyphClass: 2
Flags: W
LayerCount: 2
Fore
SplineSet
335 214 m 1,0,1
 444 160 444 160 578 160 c 0,2,3
 935 160 935 160 935 553 c 0,4,5
 935 896 935 896 580 896 c 0,6,7
 440 896 440 896 335 872 c 1,8,-1
 335 214 l 1,0,1
150 1007 m 1,9,10
 359 1050 359 1050 582 1050 c 0,11,12
 1117 1050 1117 1050 1117 551 c 0,13,14
 1117 0 1117 0 579 0 c 0,15,16
 453 0 453 0 335 50 c 1,17,-1
 335 -380 l 1,18,-1
 150 -380 l 1,19,-1
 150 1007 l 1,9,10
EndSplineSet
EndChar

StartChar: afii10084
Encoding: 1090 1090 420
Width: 925
GlyphClass: 2
Flags: W
LayerCount: 2
Fore
SplineSet
925 1050 m 1,0,-1
 925 900 l 1,1,-1
 555 900 l 1,2,-1
 555 0 l 1,3,-1
 370 0 l 1,4,-1
 370 900 l 1,5,-1
 0 900 l 1,6,-1
 0 1050 l 1,7,-1
 925 1050 l 1,0,-1
EndSplineSet
EndChar

StartChar: afii10085
Encoding: 1091 1091 421
Width: 1050
GlyphClass: 2
Flags: W
LayerCount: 2
Fore
SplineSet
25 1050 m 1,0,-1
 226 1050 l 1,1,-1
 523 230 l 1,2,-1
 830 1050 l 1,3,-1
 1026 1050 l 1,4,-1
 590 -31 l 2,5,6
 474 -317 474 -317 242 -388 c 1,7,-1
 171 -257 l 1,8,9
 347 -180 347 -180 427 -6 c 1,10,-1
 25 1050 l 1,0,-1
EndSplineSet
EndChar

StartChar: afii10086
Encoding: 1092 1092 422
Width: 1644
GlyphClass: 2
Flags: W
LayerCount: 2
Fore
SplineSet
730 -7 m 1,0,1
 100 27 100 27 100 523 c 0,2,3
 100 1023 100 1023 730 1057 c 1,4,-1
 730 1430 l 1,5,-1
 914 1430 l 1,6,-1
 914 1058 l 1,7,8
 1544 1027 1544 1027 1544 523 c 0,9,10
 1544 23 1544 23 914 -8 c 1,11,-1
 914 -380 l 1,12,-1
 730 -380 l 1,13,-1
 730 -7 l 1,0,1
730 144 m 1,14,-1
 730 906 l 1,15,16
 294 873 294 873 294 529 c 0,17,18
 294 178 294 178 730 144 c 1,14,-1
914 907 m 1,19,-1
 914 143 l 1,20,21
 1350 173 1350 173 1350 529 c 0,22,23
 1350 877 1350 877 914 907 c 1,19,-1
EndSplineSet
EndChar

StartChar: afii10087
Encoding: 1093 1093 423
Width: 1100
GlyphClass: 2
Flags: W
LayerCount: 2
Fore
SplineSet
240 0 m 1,0,-1
 25 0 l 1,1,-1
 443 525 l 1,2,-1
 25 1050 l 1,3,-1
 240 1050 l 1,4,-1
 550 660 l 1,5,-1
 860 1050 l 1,6,-1
 1075 1050 l 1,7,-1
 657 525 l 1,8,-1
 1075 0 l 1,9,-1
 860 0 l 1,10,-1
 550 390 l 1,11,-1
 240 0 l 1,0,-1
EndSplineSet
EndChar

StartChar: afii10088
Encoding: 1094 1094 424
Width: 1386
GlyphClass: 2
Flags: W
LayerCount: 2
Fore
SplineSet
150 0 m 1,0,-1
 150 1050 l 1,1,-1
 335 1050 l 1,2,-1
 335 150 l 1,3,-1
 916 150 l 1,4,-1
 916 1050 l 1,5,-1
 1101 1050 l 1,6,-1
 1101 150 l 1,7,-1
 1286 150 l 1,8,-1
 1286 -380 l 1,9,-1
 1101 -380 l 1,10,-1
 1101 0 l 1,11,-1
 150 0 l 1,0,-1
EndSplineSet
EndChar

StartChar: afii10089
Encoding: 1095 1095 425
Width: 1218
GlyphClass: 2
Flags: W
LayerCount: 2
Fore
SplineSet
1068 1050 m 1,0,-1
 1068 0 l 1,1,-1
 883 0 l 1,2,-1
 883 414 l 1,3,4
 737 300 737 300 534 300 c 0,5,6
 125 300 125 300 125 711 c 2,7,-1
 125 1050 l 1,8,-1
 310 1050 l 1,9,-1
 310 708 l 2,10,11
 310 454 310 454 559 454 c 0,12,13
 758 454 758 454 883 587 c 1,14,-1
 883 1050 l 1,15,-1
 1068 1050 l 1,0,-1
EndSplineSet
EndChar

StartChar: afii10090
Encoding: 1096 1096 426
Width: 1635
GlyphClass: 2
Flags: W
LayerCount: 2
Fore
SplineSet
150 0 m 1,0,-1
 150 1050 l 1,1,-1
 335 1050 l 1,2,-1
 335 150 l 1,3,-1
 725 150 l 1,4,-1
 725 1050 l 1,5,-1
 910 1050 l 1,6,-1
 910 150 l 1,7,-1
 1300 150 l 1,8,-1
 1300 1050 l 1,9,-1
 1485 1050 l 1,10,-1
 1485 0 l 1,11,-1
 150 0 l 1,0,-1
EndSplineSet
EndChar

StartChar: afii10091
Encoding: 1097 1097 427
Width: 1770
GlyphClass: 2
Flags: W
LayerCount: 2
Fore
SplineSet
150 0 m 1,0,-1
 150 1050 l 1,1,-1
 335 1050 l 1,2,-1
 335 150 l 1,3,-1
 725 150 l 1,4,-1
 725 1050 l 1,5,-1
 910 1050 l 1,6,-1
 910 150 l 1,7,-1
 1300 150 l 1,8,-1
 1300 1050 l 1,9,-1
 1485 1050 l 1,10,-1
 1485 150 l 1,11,-1
 1670 150 l 1,12,-1
 1670 -380 l 1,13,-1
 1485 -380 l 1,14,-1
 1485 0 l 1,15,-1
 150 0 l 1,0,-1
EndSplineSet
EndChar

StartChar: afii10092
Encoding: 1098 1098 428
Width: 1352
GlyphClass: 2
Flags: W
LayerCount: 2
Fore
SplineSet
569 1050 m 1,0,-1
 569 153 l 1,1,-1
 867 153 l 2,2,3
 1065 153 1065 153 1065 322 c 0,4,5
 1065 459 1065 459 883 459 c 2,6,-1
 705 459 l 1,7,-1
 705 609 l 1,8,-1
 893 609 l 2,9,10
 1252 609 1252 609 1252 313 c 0,11,12
 1252 0 1252 0 884 0 c 2,13,-1
 384 0 l 1,14,-1
 384 900 l 1,15,-1
 0 900 l 1,16,-1
 0 1050 l 1,17,-1
 569 1050 l 1,0,-1
EndSplineSet
EndChar

StartChar: afii10093
Encoding: 1099 1099 429
Width: 1510
GlyphClass: 2
Flags: W
LayerCount: 2
Fore
SplineSet
1175 0 m 1,0,-1
 1175 1050 l 1,1,-1
 1360 1050 l 1,2,-1
 1360 0 l 1,3,-1
 1175 0 l 1,0,-1
335 1050 m 1,4,-1
 335 153 l 1,5,-1
 653 153 l 2,6,7
 831 153 831 153 831 322 c 0,8,9
 831 459 831 459 649 459 c 2,10,-1
 471 459 l 1,11,-1
 471 609 l 1,12,-1
 658 609 l 2,13,14
 1018 609 1018 609 1018 313 c 0,15,16
 1018 0 1018 0 670 0 c 2,17,-1
 150 0 l 1,18,-1
 150 1050 l 1,19,-1
 335 1050 l 1,4,-1
EndSplineSet
EndChar

StartChar: afii10094
Encoding: 1100 1100 430
Width: 1168
GlyphClass: 2
Flags: W
LayerCount: 2
Fore
SplineSet
335 1050 m 1,0,-1
 335 153 l 1,1,-1
 653 153 l 2,2,3
 831 153 831 153 831 322 c 0,4,5
 831 459 831 459 649 459 c 2,6,-1
 471 459 l 1,7,-1
 471 609 l 1,8,-1
 658 609 l 2,9,10
 1018 609 1018 609 1018 313 c 0,11,12
 1018 0 1018 0 670 0 c 2,13,-1
 150 0 l 1,14,-1
 150 1050 l 1,15,-1
 335 1050 l 1,0,-1
EndSplineSet
EndChar

StartChar: afii10095
Encoding: 1101 1101 431
Width: 1050
GlyphClass: 2
Flags: W
LayerCount: 2
Fore
SplineSet
100 180 m 1,0,1
 230 150 230 150 360 150 c 0,2,3
 719 150 719 150 760 461 c 1,4,-1
 164 461 l 1,5,-1
 164 611 l 1,6,-1
 761 611 l 1,7,8
 725 900 725 900 360 900 c 0,9,10
 230 900 230 900 100 870 c 1,11,-1
 100 1020 l 1,12,13
 230 1050 230 1050 380 1050 c 0,14,15
 950 1050 950 1050 950 545 c 0,16,17
 950 0 950 0 380 0 c 0,18,19
 230 0 230 0 100 30 c 1,20,-1
 100 180 l 1,0,1
EndSplineSet
EndChar

StartChar: afii10096
Encoding: 1102 1102 432
Width: 1702
GlyphClass: 2
Flags: W
LayerCount: 2
Fore
SplineSet
1145 140 m 0,0,1
 1407 140 1407 140 1407 529 c 0,2,3
 1407 910 1407 910 1145 910 c 0,4,5
 872 910 872 910 872 529 c 0,6,7
 872 140 872 140 1145 140 c 0,0,1
150 0 m 1,8,-1
 150 1050 l 1,9,-1
 334 1050 l 1,10,-1
 334 610 l 1,11,-1
 680 610 l 1,12,13
 717 1060 717 1060 1145 1060 c 0,14,15
 1602 1060 1602 1060 1602 523 c 0,16,17
 1602 -10 1602 -10 1145 -10 c 0,18,19
 706 -10 706 -10 679 460 c 1,20,-1
 334 460 l 1,21,-1
 334 0 l 1,22,-1
 150 0 l 1,8,-1
EndSplineSet
EndChar

StartChar: afii10097
Encoding: 1103 1103 433
Width: 1145
GlyphClass: 2
Flags: W
LayerCount: 2
Fore
SplineSet
810 0 m 1,0,-1
 810 897 l 1,1,-1
 452 897 l 2,2,3
 314 897 314 897 314 779 c 0,4,5
 314 639 314 639 634 574 c 1,6,-1
 634 443 l 1,7,-1
 259 0 l 1,8,-1
 25 0 l 1,9,-1
 431 469 l 1,10,11
 117 566 117 566 117 777 c 0,12,13
 117 1050 117 1050 455 1050 c 2,14,-1
 995 1050 l 1,15,-1
 995 0 l 1,16,-1
 810 0 l 1,0,-1
EndSplineSet
EndChar

StartChar: dieresistonos
Encoding: 901 901 437
Width: 1045
GlyphClass: 2
Flags: W
LayerCount: 2
Fore
SplineSet
945 1430 m 1,0,-1
 945 1260 l 1,1,-1
 760 1260 l 1,2,-1
 760 1430 l 1,3,-1
 945 1430 l 1,0,-1
285 1430 m 1,4,-1
 285 1260 l 1,5,-1
 100 1260 l 1,6,-1
 100 1430 l 1,7,-1
 285 1430 l 1,4,-1
464 1430 m 1,8,-1
 703 1430 l 1,9,-1
 464 1191 l 1,10,-1
 300 1191 l 1,11,-1
 464 1430 l 1,8,-1
EndSplineSet
EndChar

StartChar: anoteleia
Encoding: 903 903 439
Width: 385
GlyphClass: 2
Flags: W
LayerCount: 2
Fore
SplineSet
285 1050 m 1,0,-1
 285 865 l 1,1,-1
 100 865 l 1,2,-1
 100 1050 l 1,3,-1
 285 1050 l 1,0,-1
EndSplineSet
EndChar

StartChar: Epsilontonos
Encoding: 904 904 440
Width: 1483
GlyphClass: 2
Flags: W
LayerCount: 2
Fore
SplineSet
114 1430 m 1,0,-1
 353 1430 l 1,1,-1
 114 1191 l 1,2,-1
 -50 1191 l 1,3,-1
 114 1430 l 1,0,-1
1358 1430 m 1,4,-1
 1358 1280 l 1,5,-1
 608 1280 l 1,6,-1
 608 800 l 1,7,-1
 1323 800 l 1,8,-1
 1323 650 l 1,9,-1
 608 650 l 1,10,-1
 608 150 l 1,11,-1
 1373 150 l 1,12,-1
 1373 0 l 1,13,-1
 423 0 l 1,14,-1
 423 1430 l 1,15,-1
 1358 1430 l 1,4,-1
EndSplineSet
EndChar

StartChar: Etatonos
Encoding: 905 905 441
Width: 1808
GlyphClass: 2
Flags: W
LayerCount: 2
Fore
SplineSet
114 1430 m 1,0,-1
 353 1430 l 1,1,-1
 114 1191 l 1,2,-1
 -50 1191 l 1,3,-1
 114 1430 l 1,0,-1
423 0 m 1,4,-1
 423 1430 l 1,5,-1
 608 1430 l 1,6,-1
 608 800 l 1,7,-1
 1453 800 l 1,8,-1
 1453 1430 l 1,9,-1
 1638 1430 l 1,10,-1
 1638 0 l 1,11,-1
 1453 0 l 1,12,-1
 1453 650 l 1,13,-1
 608 650 l 1,14,-1
 608 0 l 1,15,-1
 423 0 l 1,4,-1
EndSplineSet
EndChar

StartChar: Iotatonos
Encoding: 906 906 442
Width: 838
GlyphClass: 2
Flags: W
LayerCount: 2
Fore
SplineSet
114 1430 m 1,0,-1
 353 1430 l 1,1,-1
 114 1191 l 1,2,-1
 -50 1191 l 1,3,-1
 114 1430 l 1,0,-1
638 1430 m 1,4,-1
 638 0 l 1,5,-1
 453 0 l 1,6,-1
 453 1430 l 1,7,-1
 638 1430 l 1,4,-1
EndSplineSet
EndChar

StartChar: Omicrontonos
Encoding: 908 908 443
Width: 1768
GlyphClass: 2
Flags: W
LayerCount: 2
Fore
SplineSet
114 1430 m 1,0,-1
 353 1430 l 1,1,-1
 114 1191 l 1,2,-1
 -50 1191 l 1,3,-1
 114 1430 l 1,0,-1
941 140 m 0,5,6
 1453 140 1453 140 1453 719 c 0,7,8
 1453 1290 1453 1290 941 1290 c 0,9,10
 418 1290 418 1290 418 719 c 0,11,4
 418 140 418 140 941 140 c 0,5,6
223 713 m 0,12,13
 223 1440 223 1440 941 1440 c 0,14,15
 1648 1440 1648 1440 1648 713 c 0,16,17
 1648 -10 1648 -10 941 -10 c 0,18,19
 223 -10 223 -10 223 713 c 0,12,13
EndSplineSet
EndChar

StartChar: Upsilontonos
Encoding: 910 910 444
Width: 1653
GlyphClass: 2
Flags: W
LayerCount: 2
Fore
SplineSet
114 1430 m 1,0,-1
 353 1430 l 1,1,-1
 114 1191 l 1,2,-1
 -50 1191 l 1,3,-1
 114 1430 l 1,0,-1
378 1430 m 1,4,-1
 583 1430 l 1,5,-1
 995 683 l 1,6,-1
 1413 1430 l 1,7,-1
 1628 1430 l 1,8,-1
 1082 500 l 1,9,-1
 1082 0 l 1,10,-1
 897 0 l 1,11,-1
 897 500 l 1,12,-1
 378 1430 l 1,4,-1
EndSplineSet
EndChar

StartChar: Omegatonos
Encoding: 911 911 445
Width: 1713
GlyphClass: 2
Flags: W
LayerCount: 2
Fore
SplineSet
114 1430 m 1,0,-1
 353 1430 l 1,1,-1
 114 1191 l 1,2,-1
 -50 1191 l 1,3,-1
 114 1430 l 1,0,-1
238 0 m 1,4,-1
 238 150 l 1,5,-1
 543 150 l 1,6,7
 223 420 223 420 223 800 c 0,8,9
 223 1450 223 1450 908 1450 c 256,10,11
 1593 1450 1593 1450 1593 800 c 0,12,13
 1593 420 1593 420 1273 150 c 1,14,-1
 1578 150 l 1,15,-1
 1578 0 l 1,16,-1
 1028 0 l 1,17,-1
 1028 150 l 1,18,19
 1408 420 1408 420 1408 800 c 0,20,21
 1408 1300 1408 1300 908 1300 c 256,22,23
 408 1300 408 1300 408 800 c 0,24,25
 408 420 408 420 788 150 c 1,26,-1
 788 0 l 1,27,-1
 238 0 l 1,4,-1
EndSplineSet
EndChar

StartChar: Gamma
Encoding: 915 915 449
Width: 1103
GlyphClass: 2
Flags: W
LayerCount: 2
Fore
SplineSet
170 0 m 1,0,-1
 170 1430 l 1,1,-1
 1103 1430 l 1,2,-1
 1103 1280 l 1,3,-1
 355 1280 l 1,4,-1
 355 0 l 1,5,-1
 170 0 l 1,0,-1
EndSplineSet
EndChar

StartChar: Theta
Encoding: 920 920 453
Width: 1665
GlyphClass: 2
Flags: W
LayerCount: 2
Fore
SplineSet
838 140 m 0,1,2
 1350 140 1350 140 1350 719 c 0,3,4
 1350 1290 1350 1290 838 1290 c 0,5,6
 315 1290 315 1290 315 719 c 0,7,0
 315 140 315 140 838 140 c 0,1,2
120 713 m 0,8,9
 120 1440 120 1440 838 1440 c 0,10,11
 1545 1440 1545 1440 1545 713 c 0,12,13
 1545 -10 1545 -10 838 -10 c 0,14,15
 120 -10 120 -10 120 713 c 0,8,9
493 813 m 1,16,-1
 1168 813 l 1,17,-1
 1168 663 l 1,18,-1
 493 663 l 1,19,-1
 493 813 l 1,16,-1
EndSplineSet
EndChar

StartChar: Lambda
Encoding: 923 923 456
Width: 1472
GlyphClass: 2
Flags: W
LayerCount: 2
Fore
SplineSet
25 0 m 1,0,-1
 632 1430 l 1,1,-1
 837 1430 l 1,2,-1
 1447 0 l 1,3,-1
 1242 0 l 1,4,-1
 728 1238 l 1,5,-1
 217 0 l 1,6,-1
 25 0 l 1,0,-1
EndSplineSet
EndChar

StartChar: Xi
Encoding: 926 926 459
Width: 1196
GlyphClass: 2
Flags: W
LayerCount: 2
Fore
SplineSet
100 160 m 1,0,-1
 1096 160 l 1,1,-1
 1096 0 l 1,2,-1
 100 0 l 1,3,-1
 100 160 l 1,0,-1
100 1430 m 1,4,-1
 1096 1430 l 1,5,-1
 1096 1270 l 1,6,-1
 100 1270 l 1,7,-1
 100 1430 l 1,4,-1
160 813 m 1,8,-1
 1036 813 l 1,9,-1
 1036 653 l 1,10,-1
 160 653 l 1,11,-1
 160 813 l 1,8,-1
EndSplineSet
EndChar

StartChar: Pi
Encoding: 928 928 461
Width: 1525
GlyphClass: 2
Flags: W
LayerCount: 2
Fore
SplineSet
170 0 m 1,0,-1
 170 1430 l 1,1,-1
 1355 1430 l 1,2,-1
 1355 0 l 1,3,-1
 1170 0 l 1,4,-1
 1170 1280 l 1,5,-1
 355 1280 l 1,6,-1
 355 0 l 1,7,-1
 170 0 l 1,0,-1
EndSplineSet
EndChar

StartChar: Sigma
Encoding: 931 931 463
Width: 1180
GlyphClass: 2
Flags: W
LayerCount: 2
Fore
SplineSet
100 1430 m 1,0,-1
 1080 1430 l 1,1,-1
 1080 1280 l 1,2,-1
 310 1280 l 1,3,-1
 720 750 l 1,4,-1
 310 150 l 1,5,-1
 1080 150 l 1,6,-1
 1080 0 l 1,7,-1
 100 0 l 1,8,-1
 100 150 l 1,9,-1
 505 750 l 1,10,-1
 100 1280 l 1,11,-1
 100 1430 l 1,0,-1
EndSplineSet
EndChar

StartChar: Phi
Encoding: 934 934 466
Width: 1724
GlyphClass: 2
Flags: W
LayerCount: 2
Fore
SplineSet
770 113 m 1,0,1
 100 150 100 150 100 713 c 0,2,3
 100 1280 100 1280 770 1317 c 1,4,-1
 770 1430 l 1,5,-1
 954 1430 l 1,6,-1
 954 1318 l 1,7,8
 1624 1284 1624 1284 1624 713 c 0,9,10
 1624 145 1624 145 954 112 c 1,11,-1
 954 0 l 1,12,-1
 770 0 l 1,13,-1
 770 113 l 1,0,1
770 264 m 1,14,-1
 770 1166 l 1,15,16
 294 1130 294 1130 294 719 c 0,17,18
 294 301 294 301 770 264 c 1,14,-1
954 1167 m 1,19,-1
 954 263 l 1,20,21
 1430 297 1430 297 1430 719 c 0,22,23
 1430 1134 1430 1134 954 1167 c 1,19,-1
EndSplineSet
EndChar

StartChar: Psi
Encoding: 936 936 468
Width: 1690
GlyphClass: 2
Flags: W
LayerCount: 2
Fore
SplineSet
753 573 m 1,0,-1
 753 1430 l 1,1,-1
 937 1430 l 1,2,-1
 937 573 l 1,3,4
 1385 607 1385 607 1385 988 c 2,5,-1
 1385 1430 l 1,6,-1
 1570 1430 l 1,7,-1
 1570 988 l 2,8,9
 1570 457 1570 457 937 422 c 1,10,-1
 937 0 l 1,11,-1
 753 0 l 1,12,-1
 753 422 l 1,13,14
 120 457 120 457 120 988 c 2,15,-1
 120 1430 l 1,16,-1
 305 1430 l 1,17,-1
 305 988 l 2,18,19
 305 607 305 607 753 573 c 1,0,-1
EndSplineSet
EndChar

StartChar: alpha
Encoding: 945 945 476
Width: 1369
GlyphClass: 2
Flags: W
LayerCount: 2
Fore
SplineSet
100 525 m 0,0,1
 100 1050 100 1050 550 1050 c 0,2,3
 881 1050 881 1050 994 726 c 1,4,-1
 1102 1050 l 1,5,-1
 1289 1050 l 1,6,-1
 1091 522 l 1,7,-1
 1275 0 l 1,8,-1
 1085 0 l 1,9,-1
 979 330 l 1,10,11
 853 0 853 0 550 0 c 0,12,13
 102 0 102 0 100 525 c 0,0,1
550 150 m 0,15,16
 785 150 785 150 905 529 c 1,17,18
 785 900 785 900 550 900 c 0,19,20
 285 900 285 900 285 529 c 0,21,14
 285 150 285 150 550 150 c 0,15,16
EndSplineSet
EndChar

StartChar: beta
Encoding: 946 946 477
Width: 1196
GlyphClass: 2
Flags: W
LayerCount: 2
Fore
SplineSet
150 -362 m 1,0,-1
 150 871 l 2,1,2
 150 1430 150 1430 644 1430 c 0,3,4
 1054 1430 1054 1430 1054 1094 c 0,5,6
 1054 832 1054 832 803 769 c 1,7,8
 1121 732 1121 732 1121 381 c 0,9,10
 1121 -2 1121 -2 707 -2 c 0,11,12
 571 -2 571 -2 465 58 c 1,13,-1
 465 208 l 1,14,15
 572 148 572 148 709 148 c 0,16,17
 936 148 936 148 936 381 c 0,18,19
 936 689 936 689 565 690 c 1,20,-1
 565 808 l 1,21,22
 883 862 883 862 883 1094 c 0,23,24
 883 1280 883 1280 637 1280 c 0,25,26
 335 1280 335 1280 335 868 c 2,27,-1
 335 -362 l 1,28,-1
 150 -362 l 1,0,-1
EndSplineSet
EndChar

StartChar: gamma
Encoding: 947 947 478
Width: 1080
GlyphClass: 2
Flags: W
LayerCount: 2
Fore
SplineSet
35 1050 m 1,0,-1
 230 1050 l 1,1,-1
 532 203 l 1,2,-1
 840 1050 l 1,3,-1
 1035 1050 l 1,4,-1
 619 0 l 1,5,-1
 619 -380 l 1,6,-1
 434 -380 l 1,7,-1
 434 0 l 1,8,-1
 35 1050 l 1,0,-1
EndSplineSet
EndChar

StartChar: delta
Encoding: 948 948 479
Width: 1200
GlyphClass: 2
Flags: W
LayerCount: 2
Fore
SplineSet
593 -10 m 0,1,2
 100 -10 100 -10 100 530 c 0,3,4
 100 1040 100 1040 615 1040 c 1,5,6
 450 1163 450 1163 214 1280 c 1,7,-1
 214 1430 l 1,8,-1
 999 1430 l 1,9,-1
 999 1280 l 1,10,-1
 502 1280 l 1,11,12
 1087 965 1087 965 1100 540 c 1,13,0
 1100 -10 1100 -10 593 -10 c 0,1,2
915 536 m 0,14,15
 915 900 915 900 593 900 c 0,16,17
 281 900 281 900 281 530 c 0,18,19
 281 140 281 140 594 140 c 0,20,21
 915 140 915 140 915 536 c 0,14,15
EndSplineSet
EndChar

StartChar: epsilon
Encoding: 949 949 480
Width: 925
GlyphClass: 2
Flags: W
LayerCount: 2
Fore
SplineSet
825 850 m 1,0,1
 675 910 675 910 505 910 c 0,2,3
 295 910 295 910 295 778 c 0,4,5
 295 620 295 620 540 620 c 2,6,-1
 735 620 l 1,7,-1
 735 470 l 1,8,-1
 537 470 l 2,9,10
 285 470 285 470 285 290 c 0,11,12
 285 140 285 140 505 140 c 0,13,14
 675 140 675 140 825 200 c 1,15,-1
 825 40 l 1,16,17
 675 -10 675 -10 505 -10 c 0,18,19
 100 -10 100 -10 100 290 c 0,20,21
 100 490 100 490 318 545 c 1,22,23
 110 604 110 604 110 778 c 0,24,25
 110 1060 110 1060 515 1060 c 0,26,27
 675 1060 675 1060 825 1010 c 1,28,-1
 825 850 l 1,0,1
EndSplineSet
EndChar

StartChar: zeta
Encoding: 950 950 481
Width: 1003
GlyphClass: 2
Flags: W
LayerCount: 2
Fore
SplineSet
303 1430 m 1,0,-1
 953 1430 l 1,1,-1
 953 1280 l 1,2,3
 280 847 280 847 280 421 c 0,4,5
 280 150 280 150 498 150 c 2,6,-1
 679 150 l 2,7,8
 943 150 943 150 943 -73 c 0,9,10
 943 -279 943 -279 624 -400 c 1,11,-1
 554 -262 l 1,12,13
 770 -193 770 -193 770 -75 c 0,14,15
 770 0 770 0 684 0 c 2,16,-1
 503 0 l 2,17,18
 100 0 100 0 100 417 c 0,19,20
 100 866 100 866 711 1280 c 1,21,-1
 303 1280 l 1,22,-1
 303 1430 l 1,0,-1
EndSplineSet
EndChar

StartChar: eta
Encoding: 951 951 482
Width: 1205
GlyphClass: 2
Flags: W
LayerCount: 2
Fore
SplineSet
150 0 m 1,0,-1
 150 1050 l 1,1,-1
 275 1050 l 1,2,-1
 308 916 l 1,3,4
 499 1050 499 1050 692 1050 c 0,5,6
 1055 1050 1055 1050 1055 659 c 2,7,-1
 1055 -380 l 1,8,-1
 870 -380 l 1,9,-1
 870 662 l 2,10,11
 870 896 870 896 637 896 c 0,12,13
 478 896 478 896 335 763 c 1,14,-1
 335 0 l 1,15,-1
 150 0 l 1,0,-1
EndSplineSet
EndChar

StartChar: theta
Encoding: 952 952 483
Width: 1245
GlyphClass: 2
Flags: W
LayerCount: 2
Fore
SplineSet
316 670 m 1,0,1
 329 140 329 140 628 140 c 0,2,3
 917 140 917 140 929 670 c 1,4,-1
 316 670 l 1,0,1
927 820 m 1,5,6
 902 1290 902 1290 628 1290 c 0,7,8
 344 1290 344 1290 318 820 c 1,9,-1
 927 820 l 1,5,6
120 713 m 0,10,11
 120 1440 120 1440 628 1440 c 0,12,13
 1125 1440 1125 1440 1125 713 c 0,14,15
 1125 -10 1125 -10 628 -10 c 0,16,17
 120 -10 120 -10 120 713 c 0,10,11
EndSplineSet
EndChar

StartChar: iota
Encoding: 953 953 484
Width: 525
GlyphClass: 2
Flags: W
LayerCount: 2
Fore
SplineSet
355 1050 m 1,0,-1
 355 0 l 1,1,-1
 170 0 l 1,2,-1
 170 1050 l 1,3,-1
 355 1050 l 1,0,-1
EndSplineSet
EndChar

StartChar: kappa
Encoding: 954 954 485
Width: 1082
GlyphClass: 2
Flags: W
LayerCount: 2
Fore
SplineSet
1076 1050 m 1,0,-1
 620 561 l 1,1,-1
 1082 0 l 1,2,-1
 845 0 l 1,3,-1
 451 505 l 1,4,-1
 451 608 l 1,5,-1
 848 1050 l 1,6,-1
 1076 1050 l 1,0,-1
150 0 m 1,7,-1
 150 1050 l 1,8,-1
 335 1050 l 1,9,-1
 335 0 l 1,10,-1
 150 0 l 1,7,-1
EndSplineSet
EndChar

StartChar: lambda
Encoding: 955 955 486
Width: 1121
GlyphClass: 2
Flags: W
LayerCount: 2
Fore
SplineSet
462 1036 m 1,0,1
 372 1230 372 1230 206 1297 c 1,2,-1
 277 1438 l 1,3,4
 519 1367 519 1367 635 1081 c 2,5,-1
 1071 0 l 1,6,-1
 865 0 l 1,7,-1
 552 830 l 1,8,-1
 241 0 l 1,9,-1
 40 0 l 1,10,-1
 462 1036 l 1,0,1
EndSplineSet
EndChar

StartChar: nu
Encoding: 957 957 487
Width: 1080
GlyphClass: 2
Flags: W
LayerCount: 2
Fore
SplineSet
40 1050 m 1,0,-1
 240 1050 l 1,1,-1
 541 227 l 1,2,-1
 840 1050 l 1,3,-1
 1040 1050 l 1,4,-1
 613 0 l 1,5,-1
 441 0 l 1,6,-1
 40 1050 l 1,0,-1
EndSplineSet
EndChar

StartChar: xi
Encoding: 958 958 488
Width: 1018
GlyphClass: 2
Flags: W
LayerCount: 2
Fore
SplineSet
621 1430 m 2,0,-1
 865 1430 l 1,1,-1
 865 1280 l 1,2,-1
 622 1280 l 2,3,4
 400 1280 400 1280 400 1116 c 0,5,6
 400 922 400 922 623 922 c 2,7,-1
 855 922 l 1,8,-1
 855 772 l 1,9,-1
 633 772 l 2,10,11
 305 772 305 772 305 421 c 0,12,13
 305 150 305 150 523 150 c 2,14,-1
 704 150 l 2,15,16
 968 150 968 150 968 -73 c 0,17,18
 968 -279 968 -279 649 -400 c 1,19,-1
 579 -262 l 1,20,21
 795 -193 795 -193 795 -75 c 0,22,23
 795 0 795 0 709 0 c 2,24,-1
 528 0 l 2,25,26
 125 0 125 0 125 417 c 0,27,28
 125 749 125 749 394 848 c 1,29,30
 215 902 215 902 215 1122 c 0,31,32
 215 1430 215 1430 621 1430 c 2,0,-1
EndSplineSet
EndChar

StartChar: omicron
Encoding: 959 959 489
Width: 1200
GlyphClass: 2
Flags: W
LayerCount: 2
Fore
SplineSet
600 150 m 256,1,2
 915 150 915 150 915 529 c 0,3,4
 915 900 915 900 600 900 c 256,5,6
 285 900 285 900 285 529 c 0,7,0
 285 150 285 150 600 150 c 256,1,2
100 525 m 0,8,9
 100 1050 100 1050 600 1050 c 256,10,11
 1100 1050 1100 1050 1100 525 c 0,12,13
 1100 1 1100 1 600 1 c 0,14,15
 102 1 102 1 100 525 c 0,8,9
EndSplineSet
EndChar

StartChar: rho
Encoding: 961 961 490
Width: 1212
GlyphClass: 2
Flags: W
LayerCount: 2
Fore
SplineSet
320 224 m 1,0,1
 429 160 429 160 583 160 c 0,2,3
 930 160 930 160 930 550 c 0,4,5
 930 896 930 896 615 896 c 0,6,7
 320 896 320 896 320 550 c 2,8,-1
 320 224 l 1,0,1
617 1050 m 0,10,11
 1112 1050 1112 1050 1112 550 c 0,12,13
 1112 0 1112 0 584 0 c 0,14,15
 438 0 438 0 320 60 c 1,16,-1
 320 -380 l 1,17,-1
 135 -380 l 1,18,-1
 135 550 l 2,19,9
 135 1050 135 1050 617 1050 c 0,10,11
EndSplineSet
EndChar

StartChar: sigma1
Encoding: 962 962 491
Width: 993
GlyphClass: 2
Flags: W
LayerCount: 2
Fore
SplineSet
914 850 m 1,0,1
 802 900 802 900 669 900 c 0,2,3
 280 900 280 900 280 541 c 0,4,5
 280 308 280 308 486 244 c 1,6,-1
 643 199 l 1,7,8
 943 125 943 125 943 -105 c 0,9,10
 943 -380 943 -380 503 -380 c 1,11,-1
 503 -230 l 1,12,13
 760 -230 760 -230 760 -109 c 0,14,15
 760 -13 760 -13 619 31 c 2,16,-1
 420 92 l 1,17,18
 100 171 100 171 100 537 c 0,19,20
 100 1050 100 1050 669 1050 c 0,21,22
 802 1050 802 1050 914 1000 c 1,23,-1
 914 850 l 1,0,1
EndSplineSet
EndChar

StartChar: sigma
Encoding: 963 963 492
Width: 1277
GlyphClass: 2
Flags: W
LayerCount: 2
Fore
SplineSet
600 150 m 256,1,2
 915 150 915 150 915 529 c 0,3,4
 915 900 915 900 610 900 c 0,5,6
 285 900 285 900 285 529 c 0,7,0
 285 150 285 150 600 150 c 256,1,2
100 525 m 0,8,9
 100 1050 100 1050 610 1050 c 2,10,-1
 1227 1050 l 1,11,-1
 1227 900 l 1,12,-1
 966 900 l 1,13,14
 1100 771 1100 771 1100 525 c 0,15,16
 1100 1 1100 1 600 1 c 0,17,18
 102 1 102 1 100 525 c 0,8,9
EndSplineSet
EndChar

StartChar: tau
Encoding: 964 964 493
Width: 849
GlyphClass: 2
Flags: W
LayerCount: 2
Fore
SplineSet
0 1050 m 1,0,-1
 774 1050 l 1,1,-1
 774 900 l 1,2,-1
 459 900 l 1,3,-1
 459 370 l 2,4,5
 459 149 459 149 675 149 c 0,6,7
 689 149 689 149 704 150 c 1,8,-1
 704 0 l 1,9,10
 663 -4 663 -4 627 -4 c 0,11,12
 274 -4 274 -4 274 370 c 2,13,-1
 274 900 l 1,14,-1
 0 900 l 1,15,-1
 0 1050 l 1,0,-1
EndSplineSet
EndChar

StartChar: upsilon
Encoding: 965 965 494
Width: 1210
GlyphClass: 2
Flags: W
LayerCount: 2
Fore
SplineSet
150 428 m 2,0,-1
 150 1050 l 1,1,-1
 335 1050 l 1,2,-1
 335 428 l 2,3,4
 335 130 335 130 605 130 c 256,5,6
 875 130 875 130 875 428 c 2,7,-1
 875 1050 l 1,8,-1
 1060 1050 l 1,9,-1
 1060 428 l 2,10,11
 1060 -20 1060 -20 605 -20 c 256,12,13
 150 -20 150 -20 150 428 c 2,0,-1
EndSplineSet
EndChar

StartChar: phi
Encoding: 966 966 495
Width: 1505
GlyphClass: 2
Flags: W
LayerCount: 2
Fore
SplineSet
280 1050 m 1,0,-1
 485 1050 l 1,1,2
 285 825 285 825 285 550 c 0,3,4
 285 150 285 150 650 130 c 1,5,-1
 650 655 l 2,6,7
 650 1050 650 1050 1014 1050 c 0,8,9
 1405 1050 1405 1050 1405 550 c 0,10,11
 1405 0 1405 0 835 -20 c 1,12,-1
 835 -380 l 1,13,-1
 650 -380 l 1,14,-1
 650 -20 l 1,15,16
 100 0 100 0 100 550 c 0,17,18
 100 825 100 825 280 1050 c 1,0,-1
1220 550 m 0,20,21
 1220 900 1220 900 1017 900 c 0,22,23
 835 900 835 900 835 655 c 2,24,-1
 835 130 l 1,25,19
 1220 150 1220 150 1220 550 c 0,20,21
EndSplineSet
EndChar

StartChar: chi
Encoding: 967 967 496
Width: 1130
GlyphClass: 2
Flags: W
LayerCount: 2
Fore
SplineSet
463 335 m 1,0,-1
 40 1050 l 1,1,-1
 245 1050 l 1,2,-1
 565 508 l 1,3,-1
 885 1050 l 1,4,-1
 1090 1050 l 1,5,-1
 668 335 l 1,6,-1
 1090 -380 l 1,7,-1
 885 -380 l 1,8,-1
 565 162 l 1,9,-1
 245 -380 l 1,10,-1
 40 -380 l 1,11,-1
 463 335 l 1,0,-1
EndSplineSet
EndChar

StartChar: psi
Encoding: 968 968 497
Width: 1610
GlyphClass: 2
Flags: W
LayerCount: 2
Fore
SplineSet
712 144 m 1,0,-1
 712 1050 l 1,1,-1
 898 1050 l 1,2,-1
 898 144 l 1,3,4
 1275 182 1275 182 1275 538 c 2,5,-1
 1275 1050 l 1,6,-1
 1460 1050 l 1,7,-1
 1460 538 l 2,8,9
 1460 30 1460 30 898 -7 c 1,10,-1
 898 -380 l 1,11,-1
 712 -380 l 1,12,-1
 712 -7 l 1,13,14
 150 30 150 30 150 538 c 2,15,-1
 150 1050 l 1,16,-1
 335 1050 l 1,17,-1
 335 538 l 2,18,19
 335 182 335 182 712 144 c 1,0,-1
EndSplineSet
EndChar

StartChar: omega
Encoding: 969 969 498
Width: 1675
GlyphClass: 2
Flags: W
LayerCount: 2
Fore
SplineSet
250 1050 m 1,0,-1
 435 1050 l 1,1,2
 305 825 305 825 305 550 c 0,3,4
 305 150 305 150 520 150 c 0,5,6
 745 150 745 150 745 825 c 1,7,-1
 930 825 l 1,8,9
 930 150 930 150 1155 150 c 0,10,11
 1370 150 1370 150 1370 550 c 0,12,13
 1370 825 1370 825 1240 1050 c 1,14,-1
 1425 1050 l 1,15,16
 1555 825 1555 825 1555 550 c 0,17,18
 1555 0 1555 0 1155 0 c 0,19,20
 920 0 920 0 835 319 c 1,21,22
 755 0 755 0 520 0 c 0,23,24
 120 0 120 0 120 550 c 0,25,26
 120 825 120 825 250 1050 c 1,0,-1
EndSplineSet
EndChar

StartChar: ffi
Encoding: 57344 57344 504
Width: 1778
GlyphClass: 2
Flags: W
LayerCount: 2
Fore
SplineSet
1608 1050 m 1,0,-1
 1608 0 l 1,1,-1
 1423 0 l 1,2,-1
 1423 910 l 1,3,-1
 972 910 l 1,4,-1
 972 0 l 1,5,-1
 787 0 l 1,6,-1
 787 910 l 1,7,-1
 335 910 l 1,8,-1
 335 0 l 1,9,-1
 150 0 l 1,10,-1
 150 1111 l 2,11,12
 150 1492 150 1492 532 1492 c 0,13,14
 621 1492 621 1492 706 1452 c 1,15,-1
 706 1302 l 1,16,17
 627 1342 627 1342 531 1342 c 0,18,19
 335 1342 335 1342 335 1129 c 2,20,-1
 335 1050 l 1,21,-1
 787 1050 l 1,22,-1
 787 1101 l 2,23,24
 787 1502 787 1502 1229 1502 c 0,25,26
 1368 1502 1368 1502 1523 1442 c 1,27,-1
 1523 1292 l 1,28,29
 1374 1352 1374 1352 1228 1352 c 0,30,31
 972 1352 972 1352 972 1119 c 2,32,-1
 972 1050 l 1,33,-1
 1608 1050 l 1,0,-1
EndSplineSet
Ligature2: "'liga' Standard Ligatures in Latin lookup 0 subtable" f f i
EndChar

StartChar: ffl
Encoding: 57345 57345 505
Width: 1821
GlyphClass: 2
Flags: W
LayerCount: 2
Fore
SplineSet
787 910 m 1,0,-1
 335 910 l 1,1,-1
 335 0 l 1,2,-1
 150 0 l 1,3,-1
 150 1111 l 2,4,5
 150 1492 150 1492 532 1492 c 0,6,7
 621 1492 621 1492 706 1452 c 1,8,-1
 706 1302 l 1,9,10
 627 1342 627 1342 531 1342 c 0,11,12
 335 1342 335 1342 335 1129 c 2,13,-1
 335 1050 l 1,14,-1
 787 1050 l 1,15,-1
 787 1101 l 2,16,17
 787 1502 787 1502 1279 1502 c 0,18,19
 1458 1502 1458 1502 1661 1430 c 1,20,-1
 1661 0 l 1,21,-1
 1476 0 l 1,22,-1
 1476 1333 l 1,23,24
 1366 1352 1366 1352 1278 1352 c 0,25,26
 972 1352 972 1352 972 1109 c 2,27,-1
 972 1050 l 1,28,-1
 1287 1050 l 1,29,-1
 1287 910 l 1,30,-1
 972 910 l 1,31,-1
 972 0 l 1,32,-1
 787 0 l 1,33,-1
 787 910 l 1,0,-1
EndSplineSet
Ligature2: "'liga' Standard Ligatures in Latin lookup 0 subtable" f f l
EndChar

StartChar: ff
Encoding: 57346 57346 506
Width: 1268
GlyphClass: 2
Flags: W
LayerCount: 2
Fore
SplineSet
787 910 m 1,0,-1
 335 910 l 1,1,-1
 335 0 l 1,2,-1
 150 0 l 1,3,-1
 150 1101 l 2,4,5
 150 1482 150 1482 532 1482 c 0,6,7
 621 1482 621 1482 706 1442 c 1,8,-1
 706 1292 l 1,9,10
 627 1332 627 1332 531 1332 c 0,11,12
 335 1332 335 1332 335 1119 c 2,13,-1
 335 1050 l 1,14,-1
 787 1050 l 1,15,-1
 787 1111 l 2,16,17
 787 1492 787 1492 1199 1492 c 0,18,19
 1318 1492 1318 1492 1413 1452 c 1,20,-1
 1413 1302 l 1,21,22
 1324 1342 1324 1342 1198 1342 c 0,23,24
 972 1342 972 1342 972 1119 c 2,25,-1
 972 1050 l 1,26,-1
 1287 1050 l 1,27,-1
 1287 910 l 1,28,-1
 972 910 l 1,29,-1
 972 0 l 1,30,-1
 787 0 l 1,31,-1
 787 910 l 1,0,-1
EndSplineSet
Ligature2: "'liga' Standard Ligatures in Latin lookup 0 subtable" f f
EndChar

StartChar: fj
Encoding: 57347 57347 507
Width: 1131
GlyphClass: 2
Flags: W
LayerCount: 2
Fore
SplineSet
776 910 m 1,0,-1
 335 910 l 1,1,-1
 335 0 l 1,2,-1
 150 0 l 1,3,-1
 150 1101 l 2,4,5
 150 1502 150 1502 592 1502 c 0,6,7
 731 1502 731 1502 886 1442 c 1,8,-1
 886 1292 l 1,9,10
 737 1352 737 1352 591 1352 c 0,11,12
 335 1352 335 1352 335 1119 c 2,13,-1
 335 1050 l 1,14,-1
 961 1050 l 1,15,-1
 961 80 l 2,16,17
 961 -238 961 -238 806 -398 c 1,18,-1
 651 -293 l 1,19,20
 776 -158 776 -158 776 80 c 2,21,-1
 776 910 l 1,0,-1
EndSplineSet
Ligature2: "'liga' Standard Ligatures in Latin lookup 0 subtable" f j
EndChar

StartChar: ffj
Encoding: 57349 57349 508
Width: 1778
GlyphClass: 2
Flags: W
LayerCount: 2
Fore
SplineSet
787 1050 m 1,0,-1
 787 1101 l 2,1,2
 787 1502 787 1502 1229 1502 c 0,3,4
 1368 1502 1368 1502 1523 1442 c 1,5,-1
 1523 1292 l 1,6,7
 1374 1352 1374 1352 1228 1352 c 0,8,9
 972 1352 972 1352 972 1119 c 2,10,-1
 972 1050 l 1,11,-1
 1608 1050 l 1,12,-1
 1608 80 l 2,13,14
 1608 -238 1608 -238 1453 -398 c 1,15,-1
 1298 -293 l 1,16,17
 1423 -158 1423 -158 1423 80 c 2,18,-1
 1423 910 l 1,19,-1
 972 910 l 1,20,-1
 972 0 l 1,21,-1
 787 0 l 1,22,-1
 787 910 l 1,23,-1
 335 910 l 1,24,-1
 335 0 l 1,25,-1
 150 0 l 1,26,-1
 150 1111 l 2,27,28
 150 1492 150 1492 532 1492 c 0,29,30
 621 1492 621 1492 706 1452 c 1,31,-1
 706 1302 l 1,32,33
 627 1342 627 1342 531 1342 c 0,34,35
 335 1342 335 1342 335 1129 c 2,36,-1
 335 1050 l 1,37,-1
 787 1050 l 1,0,-1
EndSplineSet
Ligature2: "'liga' Standard Ligatures in Latin lookup 0 subtable" f f j
EndChar

StartChar: fb
Encoding: 57350 57350 509
Width: 1877
GlyphClass: 2
Flags: W
LayerCount: 2
Fore
SplineSet
1024 183 m 1,0,1
 1115 154 1115 154 1245 154 c 0,2,3
 1595 154 1595 154 1595 553 c 0,4,5
 1595 890 1595 890 1278 890 c 0,6,7
 1134 890 1134 890 1024 836 c 1,8,-1
 1024 183 l 1,0,1
839 1333 m 1,9,10
 729 1352 729 1352 641 1352 c 0,11,12
 335 1352 335 1352 335 1109 c 2,13,-1
 335 1050 l 1,14,-1
 650 1050 l 1,15,-1
 650 900 l 1,16,-1
 335 900 l 1,17,-1
 335 0 l 1,18,-1
 150 0 l 1,19,-1
 150 1101 l 2,20,21
 150 1502 150 1502 642 1502 c 0,22,23
 821 1502 821 1502 1024 1430 c 1,24,-1
 1024 1000 l 1,25,26
 1143 1050 1143 1050 1279 1050 c 0,27,28
 1777 1050 1777 1050 1777 546 c 0,29,30
 1777 0 1777 0 1254 0 c 0,31,32
 1028 0 1028 0 839 43 c 1,33,-1
 839 1333 l 1,9,10
EndSplineSet
Ligature2: "'liga' Standard Ligatures in Latin lookup 0 subtable" f b
EndChar

StartChar: ffb
Encoding: 57351 57351 510
Width: 2514
GlyphClass: 2
Flags: W
LayerCount: 2
Fore
SplineSet
1661 183 m 1,0,1
 1752 154 1752 154 1882 154 c 0,2,3
 2232 154 2232 154 2232 553 c 0,4,5
 2232 890 2232 890 1915 890 c 0,6,7
 1771 890 1771 890 1661 836 c 1,8,-1
 1661 183 l 1,0,1
787 910 m 1,9,-1
 335 910 l 1,10,-1
 335 0 l 1,11,-1
 150 0 l 1,12,-1
 150 1111 l 2,13,14
 150 1492 150 1492 532 1492 c 0,15,16
 621 1492 621 1492 706 1452 c 1,17,-1
 706 1302 l 1,18,19
 627 1342 627 1342 531 1342 c 0,20,21
 335 1342 335 1342 335 1129 c 2,22,-1
 335 1050 l 1,23,-1
 787 1050 l 1,24,-1
 787 1101 l 2,25,26
 787 1502 787 1502 1279 1502 c 0,27,28
 1458 1502 1458 1502 1661 1430 c 1,29,-1
 1661 1000 l 1,30,31
 1780 1050 1780 1050 1916 1050 c 0,32,33
 2414 1050 2414 1050 2414 546 c 0,34,35
 2414 0 2414 0 1891 0 c 0,36,37
 1665 0 1665 0 1476 43 c 1,38,-1
 1476 1333 l 1,39,40
 1366 1352 1366 1352 1278 1352 c 0,41,42
 972 1352 972 1352 972 1109 c 2,43,-1
 972 1050 l 1,44,-1
 1287 1050 l 1,45,-1
 1287 910 l 1,46,-1
 972 910 l 1,47,-1
 972 0 l 1,48,-1
 787 0 l 1,49,-1
 787 910 l 1,9,-1
EndSplineSet
Ligature2: "'liga' Standard Ligatures in Latin lookup 0 subtable" f f b
EndChar

StartChar: fh
Encoding: 57352 57352 511
Width: 1894
GlyphClass: 2
Flags: W
LayerCount: 2
Fore
SplineSet
839 1333 m 1,0,1
 729 1352 729 1352 641 1352 c 0,2,3
 335 1352 335 1352 335 1109 c 2,4,-1
 335 1050 l 1,5,-1
 650 1050 l 1,6,-1
 650 900 l 1,7,-1
 335 900 l 1,8,-1
 335 0 l 1,9,-1
 150 0 l 1,10,-1
 150 1101 l 2,11,12
 150 1502 150 1502 642 1502 c 0,13,14
 821 1502 821 1502 1024 1430 c 1,15,-1
 1024 936 l 1,16,17
 1158 1050 1158 1050 1351 1050 c 0,18,19
 1744 1050 1744 1050 1744 659 c 2,20,-1
 1744 0 l 1,21,-1
 1559 0 l 1,22,-1
 1559 662 l 2,23,24
 1559 896 1559 896 1326 896 c 0,25,26
 1167 896 1167 896 1024 763 c 1,27,-1
 1024 0 l 1,28,-1
 839 0 l 1,29,-1
 839 1333 l 1,0,1
EndSplineSet
Ligature2: "'liga' Standard Ligatures in Latin lookup 0 subtable" f h
EndChar

StartChar: ffh
Encoding: 57353 57353 512
Width: 2531
GlyphClass: 2
Flags: W
LayerCount: 2
Fore
SplineSet
787 910 m 1,0,-1
 335 910 l 1,1,-1
 335 0 l 1,2,-1
 150 0 l 1,3,-1
 150 1111 l 2,4,5
 150 1492 150 1492 532 1492 c 0,6,7
 621 1492 621 1492 706 1452 c 1,8,-1
 706 1302 l 1,9,10
 627 1342 627 1342 531 1342 c 0,11,12
 335 1342 335 1342 335 1129 c 2,13,-1
 335 1050 l 1,14,-1
 787 1050 l 1,15,-1
 787 1101 l 2,16,17
 787 1502 787 1502 1279 1502 c 0,18,19
 1458 1502 1458 1502 1661 1430 c 1,20,-1
 1661 936 l 1,21,22
 1795 1050 1795 1050 1988 1050 c 0,23,24
 2381 1050 2381 1050 2381 659 c 2,25,-1
 2381 0 l 1,26,-1
 2196 0 l 1,27,-1
 2196 662 l 2,28,29
 2196 896 2196 896 1963 896 c 0,30,31
 1804 896 1804 896 1661 763 c 1,32,-1
 1661 0 l 1,33,-1
 1476 0 l 1,34,-1
 1476 1333 l 1,35,36
 1366 1352 1366 1352 1278 1352 c 0,37,38
 972 1352 972 1352 972 1109 c 2,39,-1
 972 1050 l 1,40,-1
 1287 1050 l 1,41,-1
 1287 910 l 1,42,-1
 972 910 l 1,43,-1
 972 0 l 1,44,-1
 787 0 l 1,45,-1
 787 910 l 1,0,-1
EndSplineSet
Ligature2: "'liga' Standard Ligatures in Latin lookup 0 subtable" f f h
EndChar

StartChar: fk
Encoding: 57360 57360 513
Width: 1870
GlyphClass: 2
Flags: W
LayerCount: 2
Fore
SplineSet
839 1333 m 1,0,1
 729 1352 729 1352 641 1352 c 0,2,3
 335 1352 335 1352 335 1109 c 2,4,-1
 335 1050 l 1,5,-1
 650 1050 l 1,6,-1
 650 900 l 1,7,-1
 335 900 l 1,8,-1
 335 0 l 1,9,-1
 150 0 l 1,10,-1
 150 1101 l 2,11,12
 150 1502 150 1502 642 1502 c 0,13,14
 821 1502 821 1502 1024 1430 c 1,15,-1
 1024 968 l 1,16,17
 1177 1050 1177 1050 1377 1050 c 0,18,19
 1769 1050 1769 1050 1769 747 c 0,20,21
 1769 527 1769 527 1469 443 c 1,22,-1
 1805 0 l 1,23,-1
 1571 0 l 1,24,-1
 1237 445 l 1,25,-1
 1237 528 l 1,26,27
 1584 559 1584 559 1584 748 c 0,28,29
 1584 900 1584 900 1364 900 c 0,30,31
 1191 900 1191 900 1024 806 c 1,32,-1
 1024 0 l 1,33,-1
 839 0 l 1,34,-1
 839 1333 l 1,0,1
EndSplineSet
Ligature2: "'liga' Standard Ligatures in Latin lookup 0 subtable" f k
EndChar

StartChar: ffk
Encoding: 57361 57361 514
Width: 2507
GlyphClass: 2
Flags: W
LayerCount: 2
Fore
SplineSet
787 910 m 1,0,-1
 335 910 l 1,1,-1
 335 0 l 1,2,-1
 150 0 l 1,3,-1
 150 1111 l 2,4,5
 150 1492 150 1492 532 1492 c 0,6,7
 621 1492 621 1492 706 1452 c 1,8,-1
 706 1302 l 1,9,10
 627 1342 627 1342 531 1342 c 0,11,12
 335 1342 335 1342 335 1129 c 2,13,-1
 335 1050 l 1,14,-1
 787 1050 l 1,15,-1
 787 1101 l 2,16,17
 787 1502 787 1502 1279 1502 c 0,18,19
 1458 1502 1458 1502 1661 1430 c 1,20,-1
 1661 968 l 1,21,22
 1814 1050 1814 1050 2014 1050 c 0,23,24
 2406 1050 2406 1050 2406 747 c 0,25,26
 2406 527 2406 527 2106 443 c 1,27,-1
 2442 0 l 1,28,-1
 2208 0 l 1,29,-1
 1874 445 l 1,30,-1
 1874 528 l 1,31,32
 2221 559 2221 559 2221 748 c 0,33,34
 2221 900 2221 900 2001 900 c 0,35,36
 1828 900 1828 900 1661 806 c 1,37,-1
 1661 0 l 1,38,-1
 1476 0 l 1,39,-1
 1476 1333 l 1,40,41
 1366 1352 1366 1352 1278 1352 c 0,42,43
 972 1352 972 1352 972 1109 c 2,44,-1
 972 1050 l 1,45,-1
 1287 1050 l 1,46,-1
 1287 910 l 1,47,-1
 972 910 l 1,48,-1
 972 0 l 1,49,-1
 787 0 l 1,50,-1
 787 910 l 1,0,-1
EndSplineSet
Ligature2: "'liga' Standard Ligatures in Latin lookup 0 subtable" f f k
EndChar

StartChar: zero.osf
Encoding: 57362 57362 515
Width: 1275
GlyphClass: 2
Flags: W
LayerCount: 2
Fore
SplineSet
643 140 m 0,1,2
 965 140 965 140 965 529 c 0,3,4
 965 910 965 910 643 910 c 0,5,6
 310 910 310 910 310 529 c 0,7,0
 310 140 310 140 643 140 c 0,1,2
115 523 m 0,8,9
 115 1060 115 1060 643 1060 c 0,10,11
 1160 1060 1160 1060 1160 523 c 0,12,13
 1160 -10 1160 -10 643 -10 c 0,14,15
 115 -10 115 -10 115 523 c 0,8,9
EndSplineSet
EndChar

StartChar: one.osf
Encoding: 57363 57363 516
Width: 854
GlyphClass: 2
Flags: W
LayerCount: 2
Fore
SplineSet
365 150 m 1,0,-1
 365 861 l 1,1,-1
 115 861 l 1,2,-1
 115 960 l 1,3,-1
 550 1050 l 1,4,-1
 550 150 l 1,5,-1
 789 150 l 1,6,-1
 789 0 l 1,7,-1
 115 0 l 1,8,-1
 115 150 l 1,9,-1
 365 150 l 1,0,-1
EndSplineSet
EndChar

StartChar: two.osf
Encoding: 57364 57364 517
Width: 1100
GlyphClass: 2
Flags: W
LayerCount: 2
Fore
SplineSet
115 0 m 1,0,-1
 115 150 l 1,1,2
 780 487 780 487 780 730 c 0,3,4
 780 910 780 910 510 910 c 0,5,6
 310 910 310 910 115 800 c 1,7,-1
 115 960 l 1,8,9
 310 1060 310 1060 510 1060 c 0,10,11
 965 1060 965 1060 965 730 c 0,12,13
 965 440 965 440 418 150 c 1,14,-1
 1015 150 l 1,15,-1
 1015 0 l 1,16,-1
 115 0 l 1,0,-1
EndSplineSet
EndChar

StartChar: three.osf
Encoding: 57365 57365 518
Width: 1110
GlyphClass: 2
Flags: W
LayerCount: 2
Fore
SplineSet
100 990 m 1,0,1
 300 1050 300 1050 480 1050 c 0,2,3
 965 1050 965 1050 965 670 c 0,4,5
 965 484 965 484 777 395 c 1,6,7
 965 310 965 310 965 120 c 0,8,9
 965 -280 965 -280 480 -280 c 0,10,11
 300 -280 300 -280 100 -220 c 1,12,-1
 100 -60 l 1,13,14
 300 -130 300 -130 480 -130 c 0,15,16
 780 -130 780 -130 780 120 c 0,17,18
 780 320 780 320 528 320 c 2,19,-1
 250 320 l 1,20,-1
 250 470 l 1,21,-1
 525 470 l 2,22,23
 780 470 780 470 780 670 c 0,24,25
 780 900 780 900 480 900 c 0,26,27
 300 900 300 900 100 830 c 1,28,-1
 100 990 l 1,0,1
EndSplineSet
EndChar

StartChar: four.osf
Encoding: 57366 57366 519
Width: 1165
GlyphClass: 2
Flags: W
LayerCount: 2
Fore
SplineSet
957 -280 m 1,0,-1
 772 -280 l 1,1,-1
 772 29 l 1,2,-1
 60 29 l 1,3,-1
 60 179 l 1,4,-1
 605 1049 l 1,5,-1
 799 1049 l 1,6,-1
 253 179 l 1,7,-1
 772 179 l 1,8,-1
 772 657 l 1,9,-1
 957 657 l 1,10,-1
 957 179 l 1,11,-1
 1105 103 l 1,12,-1
 1105 29 l 1,13,-1
 957 29 l 1,14,-1
 957 -280 l 1,0,-1
EndSplineSet
EndChar

StartChar: five.osf
Encoding: 57367 57367 520
Width: 1145
GlyphClass: 2
Flags: W
LayerCount: 2
Fore
SplineSet
205 1050 m 1,0,-1
 969 1050 l 1,1,-1
 969 900 l 1,2,-1
 362 900 l 1,3,-1
 329 498 l 1,4,5
 446 520 446 520 545 520 c 0,6,7
 1045 520 1045 520 1045 130 c 0,8,9
 1045 -290 1045 -290 485 -290 c 0,10,11
 305 -290 305 -290 155 -230 c 1,12,-1
 155 -70 l 1,13,14
 305 -140 305 -140 495 -140 c 0,15,16
 860 -140 860 -140 860 130 c 0,17,18
 860 370 860 370 545 370 c 0,19,20
 350 370 350 370 155 320 c 1,21,-1
 205 1050 l 1,0,-1
EndSplineSet
EndChar

StartChar: six.osf
Encoding: 57368 57368 521
Width: 1265
GlyphClass: 2
Flags: W
LayerCount: 2
Fore
SplineSet
120 520 m 0,0,1
 120 1026 120 1026 778 1373 c 1,2,-1
 874 1246 l 1,3,4
 532 1070 532 1070 380 857 c 1,5,6
 491 900 491 900 646 900 c 0,7,8
 1150 900 1150 900 1150 460 c 0,9,10
 1150 -10 1150 -10 627 -10 c 0,11,12
 120 -10 120 -10 120 520 c 0,0,1
636 140 m 0,14,15
 969 140 969 140 969 460 c 0,16,17
 969 750 969 750 637 750 c 0,18,19
 453 750 453 750 323 702 c 1,20,21
 295 662 295 662 295 526 c 0,22,13
 295 140 295 140 636 140 c 0,14,15
EndSplineSet
EndChar

StartChar: seven.osf
Encoding: 57369 57369 522
Width: 1060
GlyphClass: 2
Flags: W
LayerCount: 2
Fore
SplineSet
40 1050 m 1,0,-1
 970 1050 l 1,1,-1
 970 900 l 1,2,-1
 358 -280 l 1,3,-1
 147 -280 l 1,4,-1
 779 900 l 1,5,-1
 40 900 l 1,6,-1
 40 1050 l 1,0,-1
EndSplineSet
EndChar

StartChar: eight.osf
Encoding: 57376 57376 523
Width: 1250
GlyphClass: 2
Flags: W
LayerCount: 2
Fore
SplineSet
115 374 m 0,0,1
 115 597 115 597 367 705 c 1,2,3
 155 800 155 800 155 1008 c 0,4,5
 155 1344 155 1344 625 1344 c 256,6,7
 1095 1344 1095 1344 1095 1008 c 0,8,9
 1095 800 1095 800 878 705 c 1,10,11
 1135 597 1135 597 1135 374 c 0,12,13
 1135 -10 1135 -10 625 -10 c 256,14,15
 115 -10 115 -10 115 374 c 0,0,1
910 1008 m 0,17,18
 910 1190 910 1190 617 1190 c 0,19,20
 340 1190 340 1190 340 1008 c 0,21,22
 340 770 340 770 630 770 c 0,23,16
 910 770 910 770 910 1008 c 0,17,18
950 378 m 0,25,26
 950 620 950 620 617 620 c 0,27,28
 300 620 300 620 300 378 c 0,29,30
 300 140 300 140 630 140 c 0,31,24
 950 140 950 140 950 378 c 0,25,26
EndSplineSet
EndChar

StartChar: nine.osf
Encoding: 57377 57377 524
Width: 1265
GlyphClass: 2
Flags: W
LayerCount: 2
Fore
SplineSet
1145 528 m 0,0,1
 1145 22 1145 22 487 -325 c 1,2,-1
 391 -198 l 1,3,4
 733 -22 733 -22 885 191 c 1,5,6
 774 148 774 148 619 148 c 0,7,8
 115 148 115 148 115 588 c 0,9,10
 115 1058 115 1058 638 1058 c 0,11,12
 1145 1058 1145 1058 1145 528 c 0,0,1
629 908 m 0,14,15
 296 908 296 908 296 588 c 0,16,17
 296 298 296 298 628 298 c 0,18,19
 812 298 812 298 942 346 c 1,20,21
 970 386 970 386 970 522 c 0,22,13
 970 908 970 908 629 908 c 0,14,15
EndSplineSet
EndChar

StartChar: g.alt
Encoding: 57378 57378 525
Width: 1130
GlyphClass: 2
Flags: W
LayerCount: 2
Fore
SplineSet
557 1050 m 0,0,1
 690 1050 690 1050 787 1000 c 1,2,-1
 933 1050 l 1,3,-1
 1090 1050 l 1,4,-1
 1090 900 l 1,5,-1
 904 900 l 1,6,7
 988 821 988 821 989 687 c 0,8,9
 989 315 989 315 544 315 c 0,10,11
 472 315 472 315 360 345 c 1,12,13
 285 282 285 282 285 221 c 0,14,15
 285 150 285 150 374 150 c 2,16,-1
 718 150 l 2,17,18
 1055 150 1055 150 1055 -95 c 0,19,20
 1055 -400 1055 -400 543 -400 c 0,21,22
 301 -400 301 -400 90 -310 c 1,23,-1
 90 -140 l 1,24,25
 304 -250 304 -250 547 -250 c 0,26,27
 870 -250 870 -250 870 -95 c 0,28,29
 870 0 870 0 721 0 c 2,30,-1
 358 0 l 2,31,32
 115 0 115 0 115 184 c 0,33,34
 115 308 115 308 235 411 c 1,35,36
 110 500 110 500 110 678 c 0,37,38
 110 1050 110 1050 557 1050 c 0,0,1
552 470 m 0,40,41
 804 470 804 470 804 685 c 256,42,43
 804 900 804 900 552 900 c 0,44,45
 295 900 295 900 295 685 c 256,46,39
 295 470 295 470 552 470 c 0,40,41
EndSplineSet
EndChar

StartChar: gcircumflex.alt
Encoding: 57379 57379 526
Width: 1130
GlyphClass: 2
Flags: W
LayerCount: 2
Fore
SplineSet
557 1050 m 0,0,1
 690 1050 690 1050 787 1000 c 1,2,-1
 933 1050 l 1,3,-1
 1090 1050 l 1,4,-1
 1090 900 l 1,5,-1
 904 900 l 1,6,7
 988 821 988 821 989 687 c 0,8,9
 989 315 989 315 544 315 c 0,10,11
 472 315 472 315 360 345 c 1,12,13
 285 282 285 282 285 221 c 0,14,15
 285 150 285 150 374 150 c 2,16,-1
 718 150 l 2,17,18
 1055 150 1055 150 1055 -95 c 0,19,20
 1055 -400 1055 -400 543 -400 c 0,21,22
 301 -400 301 -400 90 -310 c 1,23,-1
 90 -140 l 1,24,25
 304 -250 304 -250 547 -250 c 0,26,27
 870 -250 870 -250 870 -95 c 0,28,29
 870 0 870 0 721 0 c 2,30,-1
 358 0 l 2,31,32
 115 0 115 0 115 184 c 0,33,34
 115 308 115 308 235 411 c 1,35,36
 110 500 110 500 110 678 c 0,37,38
 110 1050 110 1050 557 1050 c 0,0,1
552 470 m 0,40,41
 804 470 804 470 804 685 c 256,42,43
 804 900 804 900 552 900 c 0,44,45
 295 900 295 900 295 685 c 256,46,39
 295 470 295 470 552 470 c 0,40,41
483 1430 m 1,47,-1
 633 1430 l 1,48,-1
 808 1170 l 1,49,-1
 658 1170 l 1,50,-1
 558 1330 l 1,51,-1
 458 1170 l 1,52,-1
 308 1170 l 1,53,-1
 483 1430 l 1,47,-1
EndSplineSet
EndChar

StartChar: gbreve.alt
Encoding: 57380 57380 527
Width: 1130
GlyphClass: 2
Flags: W
LayerCount: 2
Fore
SplineSet
557 1050 m 0,0,1
 690 1050 690 1050 787 1000 c 1,2,-1
 933 1050 l 1,3,-1
 1090 1050 l 1,4,-1
 1090 900 l 1,5,-1
 904 900 l 1,6,7
 988 821 988 821 989 687 c 0,8,9
 989 315 989 315 544 315 c 0,10,11
 472 315 472 315 360 345 c 1,12,13
 285 282 285 282 285 221 c 0,14,15
 285 150 285 150 374 150 c 2,16,-1
 718 150 l 2,17,18
 1055 150 1055 150 1055 -95 c 0,19,20
 1055 -400 1055 -400 543 -400 c 0,21,22
 301 -400 301 -400 90 -310 c 1,23,-1
 90 -140 l 1,24,25
 304 -250 304 -250 547 -250 c 0,26,27
 870 -250 870 -250 870 -95 c 0,28,29
 870 0 870 0 721 0 c 2,30,-1
 358 0 l 2,31,32
 115 0 115 0 115 184 c 0,33,34
 115 308 115 308 235 411 c 1,35,36
 110 500 110 500 110 678 c 0,37,38
 110 1050 110 1050 557 1050 c 0,0,1
552 470 m 0,40,41
 804 470 804 470 804 685 c 256,42,43
 804 900 804 900 552 900 c 0,44,45
 295 900 295 900 295 685 c 256,46,39
 295 470 295 470 552 470 c 0,40,41
285 1430 m 1,47,-1
 420 1430 l 1,48,49
 420 1280 420 1280 550 1280 c 256,50,51
 680 1280 680 1280 680 1430 c 1,52,-1
 815 1430 l 1,53,54
 815 1170 815 1170 550 1170 c 256,55,56
 285 1170 285 1170 285 1430 c 1,47,-1
EndSplineSet
EndChar

StartChar: gdotaccent.alt
Encoding: 57381 57381 528
Width: 1130
GlyphClass: 2
Flags: W
LayerCount: 2
Fore
SplineSet
557 1050 m 0,0,1
 690 1050 690 1050 787 1000 c 1,2,-1
 933 1050 l 1,3,-1
 1090 1050 l 1,4,-1
 1090 900 l 1,5,-1
 904 900 l 1,6,7
 988 821 988 821 989 687 c 0,8,9
 989 315 989 315 544 315 c 0,10,11
 472 315 472 315 360 345 c 1,12,13
 285 282 285 282 285 221 c 0,14,15
 285 150 285 150 374 150 c 2,16,-1
 718 150 l 2,17,18
 1055 150 1055 150 1055 -95 c 0,19,20
 1055 -400 1055 -400 543 -400 c 0,21,22
 301 -400 301 -400 90 -310 c 1,23,-1
 90 -140 l 1,24,25
 304 -250 304 -250 547 -250 c 0,26,27
 870 -250 870 -250 870 -95 c 0,28,29
 870 0 870 0 721 0 c 2,30,-1
 358 0 l 2,31,32
 115 0 115 0 115 184 c 0,33,34
 115 308 115 308 235 411 c 1,35,36
 110 500 110 500 110 678 c 0,37,38
 110 1050 110 1050 557 1050 c 0,0,1
552 470 m 0,40,41
 804 470 804 470 804 685 c 256,42,43
 804 900 804 900 552 900 c 0,44,45
 295 900 295 900 295 685 c 256,46,39
 295 470 295 470 552 470 c 0,40,41
647 1430 m 1,47,-1
 647 1240 l 1,48,-1
 442 1240 l 1,49,-1
 442 1430 l 1,50,-1
 647 1430 l 1,47,-1
EndSplineSet
EndChar

StartChar: gcomma.alt
Encoding: 57382 57382 529
Width: 1130
GlyphClass: 2
Flags: W
LayerCount: 2
Fore
SplineSet
557 1050 m 0,0,1
 690 1050 690 1050 787 1000 c 1,2,-1
 933 1050 l 1,3,-1
 1090 1050 l 1,4,-1
 1090 900 l 1,5,-1
 904 900 l 1,6,7
 988 821 988 821 989 687 c 0,8,9
 989 315 989 315 544 315 c 0,10,11
 472 315 472 315 360 345 c 1,12,13
 285 282 285 282 285 221 c 0,14,15
 285 150 285 150 374 150 c 2,16,-1
 718 150 l 2,17,18
 1055 150 1055 150 1055 -95 c 0,19,20
 1055 -400 1055 -400 543 -400 c 0,21,22
 301 -400 301 -400 90 -310 c 1,23,-1
 90 -140 l 1,24,25
 304 -250 304 -250 547 -250 c 0,26,27
 870 -250 870 -250 870 -95 c 0,28,29
 870 0 870 0 721 0 c 2,30,-1
 358 0 l 2,31,32
 115 0 115 0 115 184 c 0,33,34
 115 308 115 308 235 411 c 1,35,36
 110 500 110 500 110 678 c 0,37,38
 110 1050 110 1050 557 1050 c 0,0,1
552 470 m 0,40,41
 804 470 804 470 804 685 c 256,42,43
 804 900 804 900 552 900 c 0,44,45
 295 900 295 900 295 685 c 256,46,39
 295 470 295 470 552 470 c 0,40,41
764 1430 m 1,47,-1
 614 1150 l 1,48,-1
 429 1150 l 1,49,-1
 579 1430 l 1,50,-1
 764 1430 l 1,47,-1
EndSplineSet
EndChar

StartChar: k.alt
Encoding: 57383 57383 530
Width: 1082
GlyphClass: 2
Flags: W
LayerCount: 2
Fore
SplineSet
1076 1050 m 1,0,-1
 620 561 l 1,1,-1
 1082 0 l 1,2,-1
 845 0 l 1,3,-1
 451 505 l 1,4,-1
 451 608 l 1,5,-1
 848 1050 l 1,6,-1
 1076 1050 l 1,0,-1
150 0 m 1,7,-1
 150 1430 l 1,8,-1
 335 1430 l 1,9,-1
 335 0 l 1,10,-1
 150 0 l 1,7,-1
EndSplineSet
EndChar

StartChar: kcomma.alt
Encoding: 57384 57384 531
Width: 1082
GlyphClass: 2
Flags: W
LayerCount: 2
Fore
SplineSet
150 0 m 1,0,-1
 150 1430 l 1,1,-1
 335 1430 l 1,2,-1
 335 0 l 1,3,-1
 150 0 l 1,0,-1
691 -100 m 1,4,-1
 541 -380 l 1,5,-1
 356 -380 l 1,6,-1
 506 -100 l 1,7,-1
 691 -100 l 1,4,-1
1076 1050 m 1,8,-1
 620 561 l 1,9,-1
 1082 0 l 1,10,-1
 845 0 l 1,11,-1
 451 505 l 1,12,-1
 451 608 l 1,13,-1
 848 1050 l 1,14,-1
 1076 1050 l 1,8,-1
EndSplineSet
EndChar

StartChar: germandbls.cap
Encoding: 57385 57385 532
Width: 1541
GlyphClass: 2
Flags: W
LayerCount: 2
Fore
SplineSet
170 0 m 1,0,-1
 170 910 l 2,1,2
 170 1450 170 1450 835 1450 c 0,3,4
 1068 1450 1068 1450 1400 1370 c 1,5,-1
 1400 1240 l 1,6,-1
 964 807 l 1,7,8
 1441 802 1441 802 1441 420 c 0,9,10
 1441 -2 1441 -2 947 -2 c 0,11,12
 771 -2 771 -2 615 68 c 1,13,-1
 615 228 l 1,14,15
 772 148 772 148 949 148 c 0,16,17
 1246 148 1246 148 1246 420 c 0,18,19
 1246 671 1246 671 901 672 c 2,20,-1
 765 672 l 1,21,-1
 765 800 l 1,22,-1
 1203 1260 l 1,23,24
 1019 1300 1019 1300 835 1300 c 0,25,26
 355 1300 355 1300 355 920 c 2,27,-1
 355 0 l 1,28,-1
 170 0 l 1,0,-1
EndSplineSet
EndChar

StartChar: uni2080
Encoding: 8320 8320 533
Width: 1000
VWidth: 1081
Flags: WO
LayerCount: 2
Fore
SplineSet
503.575195312 -158.75 m 4,1,2
 771.375 -158.75 771.375 -158.75 771.375 217.599609375 c 4,3,4
 771.375 588.75 771.375 588.75 503.575195312 588.75 c 4,5,6
 228.625 588.75 228.625 588.75 228.625 217.599609375 c 4,7,0
 228.625 -158.75 228.625 -158.75 503.575195312 -158.75 c 4,1,2
101.875 213.700195312 m 4,8,9
 101.875 686.25 101.875 686.25 503.575195312 686.25 c 4,10,11
 898.125 686.25 898.125 686.25 898.125 213.700195312 c 4,12,13
 898.125 -256.25 898.125 -256.25 503.575195312 -256.25 c 4,14,15
 101.875 -256.25 101.875 -256.25 101.875 213.700195312 c 4,8,9
EndSplineSet
EndChar

StartChar: uni2070
Encoding: 8304 8304 534
Width: 1000
VWidth: 2223
Flags: W
LayerCount: 2
Fore
SplineSet
503.575195312 983.25 m 0,1,2
 771.375 983.25 771.375 983.25 771.375 1359.59960938 c 0,3,4
 771.375 1730.75 771.375 1730.75 503.575195312 1730.75 c 0,5,6
 228.625 1730.75 228.625 1730.75 228.625 1359.59960938 c 0,7,0
 228.625 983.25 228.625 983.25 503.575195312 983.25 c 0,1,2
101.875 1355.70019531 m 0,8,9
 101.875 1828.25 101.875 1828.25 503.575195312 1828.25 c 0,10,11
 898.125 1828.25 898.125 1828.25 898.125 1355.70019531 c 0,12,13
 898.125 885.75 898.125 885.75 503.575195312 885.75 c 0,14,15
 101.875 885.75 101.875 885.75 101.875 1355.70019531 c 0,8,9
EndSplineSet
EndChar

StartChar: uni2074
Encoding: 8308 8308 535
Width: 1000
VWidth: 2223
Flags: W
LayerCount: 2
Fore
SplineSet
756.424804688 892.25 m 1,0,-1
 636.174804688 892.25 l 1,1,-1
 636.174804688 1113.25 l 1,2,-1
 147.375 1113.25 l 1,3,-1
 147.375 1210.75 l 1,4,-1
 521.125 1821.75 l 1,5,-1
 647.224609375 1821.75 l 1,6,-1
 272.825195312 1210.75 l 1,7,-1
 636.174804688 1210.75 l 1,8,-1
 636.174804688 1540.95019531 l 1,9,-1
 756.424804688 1540.95019531 l 1,10,-1
 756.424804688 1210.75 l 1,11,-1
 852.625 1161.34960938 l 1,12,-1
 852.625 1113.25 l 1,13,-1
 756.424804688 1113.25 l 1,14,-1
 756.424804688 892.25 l 1,0,-1
EndSplineSet
EndChar

StartChar: uni2075
Encoding: 8309 8309 536
Width: 1000
VWidth: 2221
Flags: W
LayerCount: 2
Fore
SplineSet
210.75 1820 m 1,0,-1
 772.349609375 1820 l 1,1,-1
 772.349609375 1722.5 l 1,2,-1
 313.450195312 1722.5 l 1,3,-1
 297.849609375 1435.20019531 l 1,4,5
 373.900390625 1449.5 373.900390625 1449.5 457.75 1449.5 c 0,6,7
 808.75 1449.5 808.75 1449.5 808.75 1183 c 0,8,9
 808.75 884 808.75 884 444.75 884 c 0,10,11
 321.25 884 321.25 884 191.25 923 c 1,12,-1
 191.25 1027 l 1,13,14
 321.25 981.5 321.25 981.5 451.25 981.5 c 0,15,16
 688.5 981.5 688.5 981.5 688.5 1183 c 0,17,18
 688.5 1352 688.5 1352 457.75 1352 c 0,19,20
 311.5 1352 311.5 1352 191.25 1326 c 1,21,-1
 210.75 1820 l 1,0,-1
EndSplineSet
EndChar

StartChar: uni2076
Encoding: 8310 8310 537
Width: 1000
VWidth: 2229
Flags: W
LayerCount: 2
Fore
SplineSet
152.25 1255.52539062 m 0,0,1
 152.25 1616.92480469 152.25 1616.92480469 579.950195312 1855.47460938 c 1,2,-1
 642.349609375 1772.92480469 l 1,3,4
 407.049804688 1658.52539062 407.049804688 1658.52539062 308.25 1461.57519531 c 1,5,6
 393.400390625 1496.02539062 393.400390625 1496.02539062 513.650390625 1496.02539062 c 0,7,8
 847.75 1496.02539062 847.75 1496.02539062 847.75 1203.52539062 c 0,9,10
 847.75 891.525390625 847.75 891.525390625 494.799804688 891.525390625 c 0,11,12
 152.25 891.525390625 152.25 891.525390625 152.25 1255.52539062 c 0,0,1
500.650390625 989.025390625 m 0,14,15
 730.099609375 989.025390625 730.099609375 989.025390625 730.099609375 1203.52539062 c 0,16,17
 730.099609375 1398.52539062 730.099609375 1398.52539062 507.799804688 1398.52539062 c 0,18,19
 368.700195312 1398.52539062 368.700195312 1398.52539062 284.200195312 1367.32519531 c 1,20,21
 266 1328.32519531 266 1328.32519531 266 1259.42480469 c 0,22,13
 266 989.025390625 266 989.025390625 500.650390625 989.025390625 c 0,14,15
EndSplineSet
EndChar

StartChar: uni2077
Encoding: 8311 8311 538
Width: 1000
VWidth: 2223
Flags: W
LayerCount: 2
Fore
SplineSet
191.25 1821.75 m 1,0,-1
 808.75 1821.75 l 1,1,-1
 808.75 1724.25 l 1,2,-1
 417.450195312 892.25 l 1,3,-1
 286.799804688 892.25 l 1,4,-1
 691.099609375 1724.25 l 1,5,-1
 191.25 1724.25 l 1,6,-1
 191.25 1821.75 l 1,0,-1
EndSplineSet
EndChar

StartChar: uni2078
Encoding: 8312 8312 539
Width: 1000
VWidth: 2224
Flags: W
LayerCount: 2
Fore
SplineSet
162 1168.54980469 m 0,0,1
 162 1313.5 162 1313.5 299.799804688 1377.20019531 c 1,2,3
 188 1445.45019531 188 1445.45019531 188 1593.65039062 c 0,4,5
 188 1831.54980469 188 1831.54980469 500 1831.54980469 c 256,6,7
 812 1831.54980469 812 1831.54980469 812 1593.65039062 c 0,8,9
 812 1445.45019531 812 1445.45019531 696.950195312 1377.20019531 c 1,10,11
 838 1313.5 838 1313.5 838 1168.54980469 c 0,12,13
 838 886.450195312 838 886.450195312 500 886.450195312 c 256,14,15
 162 886.450195312 162 886.450195312 162 1168.54980469 c 0,0,1
691.75 1580.65039062 m 0,17,18
 691.75 1731.45019531 691.75 1731.45019531 494.799804688 1731.45019531 c 0,19,20
 308.25 1731.45019531 308.25 1731.45019531 308.25 1580.65039062 c 0,21,22
 308.25 1425.95019531 308.25 1425.95019531 503.25 1425.95019531 c 0,23,16
 691.75 1425.95019531 691.75 1425.95019531 691.75 1580.65039062 c 0,17,18
717.75 1164.65039062 m 0,25,26
 717.75 1328.45019531 717.75 1328.45019531 494.799804688 1328.45019531 c 0,27,28
 282.25 1328.45019531 282.25 1328.45019531 282.25 1164.65039062 c 0,29,30
 282.25 983.950195312 282.25 983.950195312 503.25 983.950195312 c 0,31,24
 717.75 983.950195312 717.75 983.950195312 717.75 1164.65039062 c 0,25,26
EndSplineSet
EndChar

StartChar: uni2079
Encoding: 8313 8313 540
Width: 1000
VWidth: 2215
Flags: W
LayerCount: 2
Fore
SplineSet
847.75 1451.47460938 m 0,0,1
 847.75 1090.07519531 847.75 1090.07519531 420.049804688 851.525390625 c 1,2,-1
 357.650390625 934.075195312 l 1,3,4
 592.950195312 1048.47460938 592.950195312 1048.47460938 691.75 1245.42480469 c 1,5,6
 606.599609375 1204.47460938 606.599609375 1204.47460938 486.349609375 1204.47460938 c 0,7,8
 152.25 1204.47460938 152.25 1204.47460938 152.25 1503.47460938 c 0,9,10
 152.25 1815.47460938 152.25 1815.47460938 505.200195312 1815.47460938 c 0,11,12
 847.75 1815.47460938 847.75 1815.47460938 847.75 1451.47460938 c 0,0,1
499.349609375 1717.97460938 m 0,14,15
 269.900390625 1717.97460938 269.900390625 1717.97460938 269.900390625 1503.47460938 c 0,16,17
 269.900390625 1308.47460938 269.900390625 1308.47460938 492.200195312 1308.47460938 c 0,18,19
 631.299804688 1308.47460938 631.299804688 1308.47460938 715.799804688 1339.67480469 c 1,20,21
 734 1378.67480469 734 1378.67480469 734 1447.57519531 c 0,22,13
 734 1717.97460938 734 1717.97460938 499.349609375 1717.97460938 c 0,14,15
EndSplineSet
EndChar

StartChar: uni207A
Encoding: 8314 8314 541
Width: 754
VWidth: 2571
Flags: W
LayerCount: 2
Fore
SplineSet
17 1303.40039062 m 1,0,-1
 297.799804688 1303.40039062 l 1,1,-1
 297.799804688 1607 l 1,2,-1
 456.200195312 1607 l 1,3,-1
 456.200195312 1303.40039062 l 1,4,-1
 737 1303.40039062 l 1,5,-1
 737 1154.59960938 l 1,6,-1
 456.200195312 1154.59960938 l 1,7,-1
 456.200195312 851 l 1,8,-1
 297.799804688 851 l 1,9,-1
 297.799804688 1154.59960938 l 1,10,-1
 17 1154.59960938 l 1,11,-1
 17 1303.40039062 l 1,0,-1
EndSplineSet
EndChar

StartChar: uni207B
Encoding: 8315 8315 542
Width: 754
VWidth: 2571
Flags: W
LayerCount: 2
Fore
SplineSet
737 1154.59960938 m 1,0,-1
 17 1154.59960938 l 1,1,-1
 17 1303.40039062 l 1,2,-1
 737 1303.40039062 l 1,3,-1
 737 1154.59960938 l 1,0,-1
EndSplineSet
EndChar

StartChar: uni2081
Encoding: 8321 8321 543
Width: 1000
VWidth: 1083
Flags: W
LayerCount: 2
Fore
SplineSet
488.625 -248 m 1,0,-1
 488.625 565.150390625 l 1,1,-1
 391.125 565.150390625 l 1,2,-1
 391.125 623 l 1,3,-1
 608.875 688 l 1,4,-1
 608.875 -248 l 1,5,-1
 488.625 -248 l 1,0,-1
EndSplineSet
EndChar

StartChar: uni2082
Encoding: 8322 8322 544
Width: 1000
VWidth: 1083
Flags: W
LayerCount: 2
Fore
SplineSet
181.5 -248 m 1,0,-1
 181.5 -150.5 l 1,1,2
 698.25 205.049804688 698.25 205.049804688 698.25 415 c 0,3,4
 698.25 590.5 698.25 590.5 477.25 590.5 c 0,5,6
 334.25 590.5 334.25 590.5 207.5 519 c 1,7,-1
 207.5 623 l 1,8,9
 334.25 688 334.25 688 477.25 688 c 0,10,11
 818.5 688 818.5 688 818.5 415 c 0,12,13
 818.5 174.5 818.5 174.5 353.75 -150.5 c 1,14,-1
 818.5 -150.5 l 1,15,-1
 818.5 -248 l 1,16,-1
 181.5 -248 l 1,0,-1
EndSplineSet
EndChar

StartChar: uni2083
Encoding: 8323 8323 545
Width: 1000
VWidth: 1081
Flags: W
LayerCount: 2
Fore
SplineSet
202.625 647.25 m 1,0,1
 332.625 686.25 332.625 686.25 462.625 686.25 c 0,2,3
 797.375 686.25 797.375 686.25 797.375 432.75 c 0,4,5
 797.375 279.349609375 797.375 279.349609375 675.174804688 221.5 c 1,6,7
 797.375 166.25 797.375 166.25 797.375 10.25 c 0,8,9
 797.375 -256.25 797.375 -256.25 462.625 -256.25 c 0,10,11
 332.625 -256.25 332.625 -256.25 202.625 -217.25 c 1,12,-1
 202.625 -113.25 l 1,13,14
 332.625 -158.75 332.625 -158.75 462.625 -158.75 c 0,15,16
 677.125 -158.75 677.125 -158.75 677.125 10.25 c 0,17,18
 677.125 172.75 677.125 172.75 513.325195312 172.75 c 2,19,-1
 300.125 172.75 l 1,20,-1
 300.125 270.25 l 1,21,-1
 511.375 270.25 l 2,22,23
 677.125 270.25 677.125 270.25 677.125 432.75 c 0,24,25
 677.125 588.75 677.125 588.75 462.625 588.75 c 0,26,27
 332.625 588.75 332.625 588.75 202.625 543.25 c 1,28,-1
 202.625 647.25 l 1,0,1
EndSplineSet
EndChar

StartChar: uni2084
Encoding: 8324 8324 546
Width: 1000
VWidth: 1081
Flags: W
LayerCount: 2
Fore
SplineSet
756.424804688 -249.75 m 1,0,-1
 636.174804688 -249.75 l 1,1,-1
 636.174804688 -28.75 l 1,2,-1
 147.375 -28.75 l 1,3,-1
 147.375 68.75 l 1,4,-1
 521.125 679.75 l 1,5,-1
 647.224609375 679.75 l 1,6,-1
 272.825195312 68.75 l 1,7,-1
 636.174804688 68.75 l 1,8,-1
 636.174804688 398.950195312 l 1,9,-1
 756.424804688 398.950195312 l 1,10,-1
 756.424804688 68.75 l 1,11,-1
 852.625 19.349609375 l 1,12,-1
 852.625 -28.75 l 1,13,-1
 756.424804688 -28.75 l 1,14,-1
 756.424804688 -249.75 l 1,0,-1
EndSplineSet
EndChar

StartChar: uni2085
Encoding: 8325 8325 547
Width: 1000
VWidth: 1079
Flags: W
LayerCount: 2
Fore
SplineSet
210.75 678 m 1,0,-1
 772.349609375 678 l 1,1,-1
 772.349609375 580.5 l 1,2,-1
 313.450195312 580.5 l 1,3,-1
 297.849609375 293.200195312 l 1,4,5
 373.900390625 307.5 373.900390625 307.5 457.75 307.5 c 0,6,7
 808.75 307.5 808.75 307.5 808.75 41 c 0,8,9
 808.75 -258 808.75 -258 444.75 -258 c 0,10,11
 321.25 -258 321.25 -258 191.25 -219 c 1,12,-1
 191.25 -115 l 1,13,14
 321.25 -160.5 321.25 -160.5 451.25 -160.5 c 0,15,16
 688.5 -160.5 688.5 -160.5 688.5 41 c 0,17,18
 688.5 210 688.5 210 457.75 210 c 0,19,20
 311.5 210 311.5 210 191.25 184 c 1,21,-1
 210.75 678 l 1,0,-1
EndSplineSet
EndChar

StartChar: uni2086
Encoding: 8326 8326 548
Width: 1000
VWidth: 1087
Flags: W
LayerCount: 2
Fore
SplineSet
152.25 113.525390625 m 0,0,1
 152.25 474.924804688 152.25 474.924804688 579.950195312 713.474609375 c 1,2,-1
 642.349609375 630.924804688 l 1,3,4
 407.049804688 516.525390625 407.049804688 516.525390625 308.25 319.575195312 c 1,5,6
 393.400390625 354.025390625 393.400390625 354.025390625 513.650390625 354.025390625 c 0,7,8
 847.75 354.025390625 847.75 354.025390625 847.75 61.525390625 c 0,9,10
 847.75 -250.474609375 847.75 -250.474609375 494.799804688 -250.474609375 c 0,11,12
 152.25 -250.474609375 152.25 -250.474609375 152.25 113.525390625 c 0,0,1
500.650390625 -152.974609375 m 0,14,15
 730.099609375 -152.974609375 730.099609375 -152.974609375 730.099609375 61.525390625 c 0,16,17
 730.099609375 256.525390625 730.099609375 256.525390625 507.799804688 256.525390625 c 0,18,19
 368.700195312 256.525390625 368.700195312 256.525390625 284.200195312 225.325195312 c 1,20,21
 266 186.325195312 266 186.325195312 266 117.424804688 c 0,22,13
 266 -152.974609375 266 -152.974609375 500.650390625 -152.974609375 c 0,14,15
EndSplineSet
EndChar

StartChar: uni2087
Encoding: 8327 8327 549
Width: 1000
VWidth: 1081
Flags: W
LayerCount: 2
Fore
SplineSet
191.25 679.75 m 1,0,-1
 808.75 679.75 l 1,1,-1
 808.75 582.25 l 1,2,-1
 417.450195312 -249.75 l 1,3,-1
 286.799804688 -249.75 l 1,4,-1
 691.099609375 582.25 l 1,5,-1
 191.25 582.25 l 1,6,-1
 191.25 679.75 l 1,0,-1
EndSplineSet
EndChar

StartChar: uni2088
Encoding: 8328 8328 550
Width: 1000
VWidth: 1082
Flags: W
LayerCount: 2
Fore
SplineSet
162 26.5498046875 m 0,0,1
 162 171.5 162 171.5 299.799804688 235.200195312 c 1,2,3
 188 303.450195312 188 303.450195312 188 451.650390625 c 0,4,5
 188 689.549804688 188 689.549804688 500 689.549804688 c 256,6,7
 812 689.549804688 812 689.549804688 812 451.650390625 c 0,8,9
 812 303.450195312 812 303.450195312 696.950195312 235.200195312 c 1,10,11
 838 171.5 838 171.5 838 26.5498046875 c 0,12,13
 838 -255.549804688 838 -255.549804688 500 -255.549804688 c 256,14,15
 162 -255.549804688 162 -255.549804688 162 26.5498046875 c 0,0,1
691.75 438.650390625 m 0,17,18
 691.75 589.450195312 691.75 589.450195312 494.799804688 589.450195312 c 0,19,20
 308.25 589.450195312 308.25 589.450195312 308.25 438.650390625 c 0,21,22
 308.25 283.950195312 308.25 283.950195312 503.25 283.950195312 c 0,23,16
 691.75 283.950195312 691.75 283.950195312 691.75 438.650390625 c 0,17,18
717.75 22.650390625 m 0,25,26
 717.75 186.450195312 717.75 186.450195312 494.799804688 186.450195312 c 0,27,28
 282.25 186.450195312 282.25 186.450195312 282.25 22.650390625 c 0,29,30
 282.25 -158.049804688 282.25 -158.049804688 503.25 -158.049804688 c 0,31,24
 717.75 -158.049804688 717.75 -158.049804688 717.75 22.650390625 c 0,25,26
EndSplineSet
EndChar

StartChar: uni2089
Encoding: 8329 8329 551
Width: 1000
VWidth: 1073
Flags: W
LayerCount: 2
Fore
SplineSet
847.75 309.474609375 m 0,0,1
 847.75 -51.9248046875 847.75 -51.9248046875 420.049804688 -290.474609375 c 1,2,-1
 357.650390625 -207.924804688 l 1,3,4
 592.950195312 -93.525390625 592.950195312 -93.525390625 691.75 103.424804688 c 1,5,6
 606.599609375 62.474609375 606.599609375 62.474609375 486.349609375 62.474609375 c 0,7,8
 152.25 62.474609375 152.25 62.474609375 152.25 361.474609375 c 0,9,10
 152.25 673.474609375 152.25 673.474609375 505.200195312 673.474609375 c 0,11,12
 847.75 673.474609375 847.75 673.474609375 847.75 309.474609375 c 0,0,1
499.349609375 575.974609375 m 0,14,15
 269.900390625 575.974609375 269.900390625 575.974609375 269.900390625 361.474609375 c 0,16,17
 269.900390625 166.474609375 269.900390625 166.474609375 492.200195312 166.474609375 c 0,18,19
 631.299804688 166.474609375 631.299804688 166.474609375 715.799804688 197.674804688 c 1,20,21
 734 236.674804688 734 236.674804688 734 305.575195312 c 0,22,13
 734 575.974609375 734 575.974609375 499.349609375 575.974609375 c 0,14,15
EndSplineSet
EndChar

StartChar: uni2071
Encoding: 8305 8305 555
Width: 1000
VWidth: 2225
Flags: W
LayerCount: 2
Fore
SplineSet
488.625 894 m 1,0,-1
 488.625 1707.15039062 l 1,1,-1
 391.125 1707.15039062 l 1,2,-1
 391.125 1765 l 1,3,-1
 608.875 1830 l 1,4,-1
 608.875 894 l 1,5,-1
 488.625 894 l 1,0,-1
EndSplineSet
EndChar

StartChar: uni2072
Encoding: 8306 8306 556
Width: 1000
VWidth: 2225
Flags: W
LayerCount: 2
Fore
SplineSet
181.5 894 m 1,0,-1
 181.5 991.5 l 1,1,2
 698.25 1347.04980469 698.25 1347.04980469 698.25 1557 c 0,3,4
 698.25 1732.5 698.25 1732.5 477.25 1732.5 c 0,5,6
 334.25 1732.5 334.25 1732.5 207.5 1661 c 1,7,-1
 207.5 1765 l 1,8,9
 334.25 1830 334.25 1830 477.25 1830 c 0,10,11
 818.5 1830 818.5 1830 818.5 1557 c 0,12,13
 818.5 1316.5 818.5 1316.5 353.75 991.5 c 1,14,-1
 818.5 991.5 l 1,15,-1
 818.5 894 l 1,16,-1
 181.5 894 l 1,0,-1
EndSplineSet
EndChar

StartChar: uni2073
Encoding: 8307 8307 557
Width: 1000
VWidth: 2223
Flags: W
LayerCount: 2
Fore
SplineSet
202.625 1789.25 m 1,0,1
 332.625 1828.25 332.625 1828.25 462.625 1828.25 c 0,2,3
 797.375 1828.25 797.375 1828.25 797.375 1574.75 c 0,4,5
 797.375 1421.34960938 797.375 1421.34960938 675.174804688 1363.5 c 1,6,7
 797.375 1308.25 797.375 1308.25 797.375 1152.25 c 0,8,9
 797.375 885.75 797.375 885.75 462.625 885.75 c 0,10,11
 332.625 885.75 332.625 885.75 202.625 924.75 c 1,12,-1
 202.625 1028.75 l 1,13,14
 332.625 983.25 332.625 983.25 462.625 983.25 c 0,15,16
 677.125 983.25 677.125 983.25 677.125 1152.25 c 0,17,18
 677.125 1314.75 677.125 1314.75 513.325195312 1314.75 c 2,19,-1
 300.125 1314.75 l 1,20,-1
 300.125 1412.25 l 1,21,-1
 511.375 1412.25 l 2,22,23
 677.125 1412.25 677.125 1412.25 677.125 1574.75 c 0,24,25
 677.125 1730.75 677.125 1730.75 462.625 1730.75 c 0,26,27
 332.625 1730.75 332.625 1730.75 202.625 1685.25 c 1,28,-1
 202.625 1789.25 l 1,0,1
EndSplineSet
EndChar

StartChar: uni2090
Encoding: 8336 8336 558
Width: 900
VWidth: 2223
Flags: W
LayerCount: 2
Fore
SplineSet
453.575195312 983.25 m 0
 721.375 983.25 721.375 983.25 721.375 1359.59960938 c 0
 721.375 1730.75 721.375 1730.75 453.575195312 1730.75 c 0
 178.625 1730.75 178.625 1730.75 178.625 1359.59960938 c 0
 178.625 983.25 178.625 983.25 453.575195312 983.25 c 0
51.875 1355.70019531 m 0
 51.875 1828.25 51.875 1828.25 453.575195312 1828.25 c 0
 848.125 1828.25 848.125 1828.25 848.125 1355.70019531 c 0
 848.125 885.75 848.125 885.75 453.575195312 885.75 c 0
 51.875 885.75 51.875 885.75 51.875 1355.70019531 c 0
EndSplineSet
Refer: 533 8320 S 1 0 0 1 0 0 2
EndChar

StartChar: uni2091
Encoding: 8337 8337 559
Width: 900
VWidth: 2225
Flags: W
LayerCount: 2
Fore
SplineSet
438.625 894 m 1
 438.625 1707.15039062 l 1
 341.125 1707.15039062 l 1
 341.125 1765 l 1
 558.875 1830 l 1
 558.875 894 l 1
 438.625 894 l 1
EndSplineSet
Refer: 533 8320 S 1 0 0 1 0 0 2
EndChar

StartChar: uni2092
Encoding: 8338 8338 560
Width: 900
VWidth: 2225
Flags: W
LayerCount: 2
Fore
SplineSet
131.5 894 m 1
 131.5 991.5 l 1
 648.25 1347.04980469 648.25 1347.04980469 648.25 1557 c 0
 648.25 1732.5 648.25 1732.5 427.25 1732.5 c 0
 284.25 1732.5 284.25 1732.5 157.5 1661 c 1
 157.5 1765 l 1
 284.25 1830 284.25 1830 427.25 1830 c 0
 768.5 1830 768.5 1830 768.5 1557 c 0
 768.5 1316.5 768.5 1316.5 303.75 991.5 c 1
 768.5 991.5 l 1
 768.5 894 l 1
 131.5 894 l 1
EndSplineSet
Refer: 533 8320 S 1 0 0 1 0 0 2
EndChar

StartChar: uni2093
Encoding: 8339 8339 561
Width: 900
VWidth: 2223
Flags: W
LayerCount: 2
Fore
SplineSet
152.625 1789.25 m 1
 282.625 1828.25 282.625 1828.25 412.625 1828.25 c 0
 747.375 1828.25 747.375 1828.25 747.375 1574.75 c 0
 747.375 1421.34960938 747.375 1421.34960938 625.174804688 1363.5 c 1
 747.375 1308.25 747.375 1308.25 747.375 1152.25 c 0
 747.375 885.75 747.375 885.75 412.625 885.75 c 0
 282.625 885.75 282.625 885.75 152.625 924.75 c 1
 152.625 1028.75 l 1
 282.625 983.25 282.625 983.25 412.625 983.25 c 0
 627.125 983.25 627.125 983.25 627.125 1152.25 c 0
 627.125 1314.75 627.125 1314.75 463.325195312 1314.75 c 2
 250.125 1314.75 l 1
 250.125 1412.25 l 1
 461.375 1412.25 l 2
 627.125 1412.25 627.125 1412.25 627.125 1574.75 c 0
 627.125 1730.75 627.125 1730.75 412.625 1730.75 c 0
 282.625 1730.75 282.625 1730.75 152.625 1685.25 c 1
 152.625 1789.25 l 1
EndSplineSet
Refer: 533 8320 S 1 0 0 1 0 0 2
EndChar

StartChar: uni2094
Encoding: 8340 8340 562
Width: 900
VWidth: 2223
Flags: W
LayerCount: 2
Fore
SplineSet
706.424804688 892.25 m 1
 586.174804688 892.25 l 1
 586.174804688 1113.25 l 1
 97.375 1113.25 l 1
 97.375 1210.75 l 1
 471.125 1821.75 l 1
 597.224609375 1821.75 l 1
 222.825195312 1210.75 l 1
 586.174804688 1210.75 l 1
 586.174804688 1540.95019531 l 1
 706.424804688 1540.95019531 l 1
 706.424804688 1210.75 l 1
 802.625 1161.34960938 l 1
 802.625 1113.25 l 1
 706.424804688 1113.25 l 1
 706.424804688 892.25 l 1
EndSplineSet
Refer: 533 8320 S 1 0 0 1 0 0 2
EndChar

StartChar: uni2095
Encoding: 8341 8341 563
Width: 900
VWidth: 2221
Flags: W
LayerCount: 2
Fore
SplineSet
160.75 1820 m 1
 722.349609375 1820 l 1
 722.349609375 1722.5 l 1
 263.450195312 1722.5 l 1
 247.849609375 1435.20019531 l 1
 323.900390625 1449.5 323.900390625 1449.5 407.75 1449.5 c 0
 758.75 1449.5 758.75 1449.5 758.75 1183 c 0
 758.75 884 758.75 884 394.75 884 c 0
 271.25 884 271.25 884 141.25 923 c 1
 141.25 1027 l 1
 271.25 981.5 271.25 981.5 401.25 981.5 c 0
 638.5 981.5 638.5 981.5 638.5 1183 c 0
 638.5 1352 638.5 1352 407.75 1352 c 0
 261.5 1352 261.5 1352 141.25 1326 c 1
 160.75 1820 l 1
EndSplineSet
Refer: 533 8320 S 1 0 0 1 0 0 2
EndChar

StartChar: uni2096
Encoding: 8342 8342 564
Width: 900
VWidth: 2229
Flags: W
LayerCount: 2
Fore
SplineSet
102.25 1255.52539062 m 0
 102.25 1616.92480469 102.25 1616.92480469 529.950195312 1855.47460938 c 1
 592.349609375 1772.92480469 l 1
 357.049804688 1658.52539062 357.049804688 1658.52539062 258.25 1461.57519531 c 1
 343.400390625 1496.02539062 343.400390625 1496.02539062 463.650390625 1496.02539062 c 0
 797.75 1496.02539062 797.75 1496.02539062 797.75 1203.52539062 c 0
 797.75 891.525390625 797.75 891.525390625 444.799804688 891.525390625 c 0
 102.25 891.525390625 102.25 891.525390625 102.25 1255.52539062 c 0
450.650390625 989.025390625 m 0
 680.099609375 989.025390625 680.099609375 989.025390625 680.099609375 1203.52539062 c 0
 680.099609375 1398.52539062 680.099609375 1398.52539062 457.799804688 1398.52539062 c 0
 318.700195312 1398.52539062 318.700195312 1398.52539062 234.200195312 1367.32519531 c 1
 216 1328.32519531 216 1328.32519531 216 1259.42480469 c 0
 216 989.025390625 216 989.025390625 450.650390625 989.025390625 c 0
EndSplineSet
Refer: 533 8320 S 1 0 0 1 0 0 2
EndChar

StartChar: uni2097
Encoding: 8343 8343 565
Width: 900
VWidth: 2223
Flags: W
LayerCount: 2
Fore
SplineSet
141.25 1821.75 m 1
 758.75 1821.75 l 1
 758.75 1724.25 l 1
 367.450195312 892.25 l 1
 236.799804688 892.25 l 1
 641.099609375 1724.25 l 1
 141.25 1724.25 l 1
 141.25 1821.75 l 1
EndSplineSet
Refer: 533 8320 S 1 0 0 1 0 0 2
EndChar

StartChar: uni2098
Encoding: 8344 8344 566
Width: 900
VWidth: 2224
Flags: W
LayerCount: 2
Fore
SplineSet
112 1168.54980469 m 0
 112 1313.5 112 1313.5 249.799804688 1377.20019531 c 1
 138 1445.45019531 138 1445.45019531 138 1593.65039062 c 0
 138 1831.54980469 138 1831.54980469 450 1831.54980469 c 256
 762 1831.54980469 762 1831.54980469 762 1593.65039062 c 0
 762 1445.45019531 762 1445.45019531 646.950195312 1377.20019531 c 1
 788 1313.5 788 1313.5 788 1168.54980469 c 0
 788 886.450195312 788 886.450195312 450 886.450195312 c 256
 112 886.450195312 112 886.450195312 112 1168.54980469 c 0
641.75 1580.65039062 m 0
 641.75 1731.45019531 641.75 1731.45019531 444.799804688 1731.45019531 c 0
 258.25 1731.45019531 258.25 1731.45019531 258.25 1580.65039062 c 0
 258.25 1425.95019531 258.25 1425.95019531 453.25 1425.95019531 c 0
 641.75 1425.95019531 641.75 1425.95019531 641.75 1580.65039062 c 0
667.75 1164.65039062 m 0
 667.75 1328.45019531 667.75 1328.45019531 444.799804688 1328.45019531 c 0
 232.25 1328.45019531 232.25 1328.45019531 232.25 1164.65039062 c 0
 232.25 983.950195312 232.25 983.950195312 453.25 983.950195312 c 0
 667.75 983.950195312 667.75 983.950195312 667.75 1164.65039062 c 0
EndSplineSet
Refer: 533 8320 S 1 0 0 1 0 0 2
EndChar

StartChar: uni2099
Encoding: 8345 8345 567
Width: 900
VWidth: 2215
Flags: W
LayerCount: 2
Fore
SplineSet
797.75 1451.47460938 m 0
 797.75 1090.07519531 797.75 1090.07519531 370.049804688 851.525390625 c 1
 307.650390625 934.075195312 l 1
 542.950195312 1048.47460938 542.950195312 1048.47460938 641.75 1245.42480469 c 1
 556.599609375 1204.47460938 556.599609375 1204.47460938 436.349609375 1204.47460938 c 0
 102.25 1204.47460938 102.25 1204.47460938 102.25 1503.47460938 c 0
 102.25 1815.47460938 102.25 1815.47460938 455.200195312 1815.47460938 c 0
 797.75 1815.47460938 797.75 1815.47460938 797.75 1451.47460938 c 0
449.349609375 1717.97460938 m 0
 219.900390625 1717.97460938 219.900390625 1717.97460938 219.900390625 1503.47460938 c 0
 219.900390625 1308.47460938 219.900390625 1308.47460938 442.200195312 1308.47460938 c 0
 581.299804688 1308.47460938 581.299804688 1308.47460938 665.799804688 1339.67480469 c 1
 684 1378.67480469 684 1378.67480469 684 1447.57519531 c 0
 684 1717.97460938 684 1717.97460938 449.349609375 1717.97460938 c 0
EndSplineSet
Refer: 533 8320 S 1 0 0 1 0 0 2
EndChar

